M48
; DRILL file {KiCad (6.0.7)} date Thu Feb  2 17:51:52 2023
; FORMAT={-:-/ absolute / inch / decimal}
; #@! TF.CreationDate,2023-02-02T17:51:52-05:00
; #@! TF.GenerationSoftware,Kicad,Pcbnew,(6.0.7)
; #@! TF.FileFunction,Plated,1,4,PTH
FMAT,2
INCH
; #@! TA.AperFunction,Plated,PTH,ViaDrill
T1C0.0157
; #@! TA.AperFunction,Plated,PTH,ComponentDrill
T2C0.0276
; #@! TA.AperFunction,Plated,PTH,ComponentDrill
T3C0.0295
; #@! TA.AperFunction,Plated,PTH,ComponentDrill
T4C0.0315
; #@! TA.AperFunction,Plated,PTH,ComponentDrill
T5C0.0394
; #@! TA.AperFunction,Plated,PTH,ComponentDrill
T6C0.0472
%
G90
G05
T1
X6.29Y-5.4
X6.5949Y-3.8189
X6.735Y-5.665
X6.87Y-5.474
X7.3747Y-4.8611
X7.375Y-4.94
X7.3896Y-5.3346
X7.39Y-5.18
X7.3917Y-5.0984
X7.4409Y-5.4134
X7.805Y-4.8622
X7.81Y-5.255
X7.8935Y-4.0945
X8.01Y-5.295
X8.015Y-5.5
X8.08Y-5.665
X8.188Y-4.282
T2
X5.8Y-5.25
X5.8Y-5.35
X5.9Y-5.25
X5.9Y-5.35
X6.0Y-5.25
X6.0Y-5.35
X6.1Y-5.25
X6.1Y-5.35
X6.2Y-5.25
X6.2Y-5.35
X6.9812Y-5.4
X6.9812Y-5.5
X6.9812Y-5.6
X6.9812Y-5.7
X7.0803Y-5.4
X7.0803Y-5.5
X7.0803Y-5.6
X7.0812Y-5.7
X7.1798Y-5.4
X7.1798Y-5.5
X7.1798Y-5.6
X7.1807Y-5.7
T3
X6.4945Y-4.7047
X6.4945Y-4.9016
X6.4945Y-5.0984
X6.4945Y-5.2953
X6.5445Y-4.7047
X6.5445Y-4.9016
X6.5445Y-5.0984
X6.5445Y-5.2953
X6.5945Y-4.7047
X6.5945Y-4.9016
X6.5945Y-5.0984
X6.5945Y-5.2953
X7.56Y-4.63
X7.61Y-4.63
X7.66Y-4.63
X7.8Y-4.63
X7.85Y-4.63
X7.9Y-4.63
T4
X5.4816Y-5.64
X5.6784Y-5.64
X5.7915Y-5.9159
X5.9884Y-5.9159
X6.1015Y-5.9159
X6.2984Y-5.9159
X6.41Y-5.7216
X6.41Y-5.9184
X6.4638Y-4.2022
X6.4638Y-4.3022
X6.4638Y-4.4384
X6.4638Y-4.5384
X6.51Y-5.82
X6.7291Y-4.685
X6.7291Y-4.8031
X6.7291Y-4.9213
X6.7291Y-5.0394
X6.7291Y-5.1575
X6.7291Y-5.2756
X6.7638Y-4.2022
X6.7638Y-4.3022
X6.7638Y-4.4384
X6.7638Y-4.5384
X6.8673Y-4.2022
X6.8673Y-4.3022
X6.8673Y-4.4384
X6.8673Y-4.5384
X6.91Y-5.82
X7.0Y-5.82
X7.1291Y-4.685
X7.1291Y-4.8031
X7.1291Y-4.9213
X7.1291Y-5.0394
X7.1291Y-5.1575
X7.1291Y-5.2756
X7.1673Y-4.2022
X7.1673Y-4.3022
X7.1673Y-4.4384
X7.1673Y-4.5384
X7.2835Y-4.1339
X7.2835Y-4.5339
X7.4Y-5.82
X7.4016Y-4.1374
X7.4016Y-4.5374
X7.5165Y-4.2126
X7.5165Y-4.3307
X7.5165Y-4.4488
X7.9165Y-4.2126
X7.9165Y-4.3307
X7.9165Y-4.4488
X8.02Y-4.98
X8.02Y-5.1769
T5
X6.75Y-5.95
X6.85Y-5.95
X6.95Y-5.95
X7.05Y-5.95
X7.15Y-5.95
X7.25Y-5.95
X7.3906Y-5.949
X7.4906Y-5.949
X7.5906Y-5.949
X7.7298Y-5.81
X7.73Y-5.95
X7.8298Y-5.81
X7.83Y-5.95
X7.93Y-5.95
X8.03Y-5.95
X8.13Y-5.95
X8.15Y-5.0602
X8.15Y-5.1602
X8.23Y-5.4098
X8.23Y-5.5098
X8.23Y-5.6098
X8.23Y-5.7098
X8.23Y-5.8098
X8.23Y-5.95
T6
X5.5118Y-4.2126
X5.5118Y-4.4776
X5.5118Y-4.7426
X5.5118Y-5.0076
X5.5709Y-3.9229
X5.5906Y-5.3346
X5.5906Y-5.4724
X5.7087Y-3.9229
X5.8118Y-4.2126
X5.8118Y-4.4776
X5.8118Y-4.7426
X5.8118Y-5.0076
X5.8465Y-3.9229
X5.9843Y-3.9229
X6.122Y-3.9229
X6.2118Y-4.2126
X6.2118Y-4.4776
X6.2118Y-4.7426
X6.2118Y-5.0076
X6.3118Y-4.2126
X6.3118Y-4.4776
X6.3118Y-4.7426
X6.3118Y-5.0076
X6.8708Y-3.9229
X7.0086Y-3.9229
X7.1464Y-3.9229
X7.2842Y-3.9229
X7.4219Y-3.9229
X8.1243Y-4.4003
X8.1243Y-4.5381
X8.1243Y-4.6759
X8.1243Y-4.8137
T0
M30
