%TF.GenerationSoftware,KiCad,Pcbnew,(6.0.7)*%
%TF.CreationDate,2023-02-02T17:51:50-05:00*%
%TF.ProjectId,ESPoules,4553506f-756c-4657-932e-6b696361645f,rev?*%
%TF.SameCoordinates,Original*%
%TF.FileFunction,Legend,Bot*%
%TF.FilePolarity,Positive*%
%FSLAX46Y46*%
G04 Gerber Fmt 4.6, Leading zero omitted, Abs format (unit mm)*
G04 Created by KiCad (PCBNEW (6.0.7)) date 2023-02-02 17:51:50*
%MOMM*%
%LPD*%
G01*
G04 APERTURE LIST*
%ADD10C,0.150000*%
G04 APERTURE END LIST*
D10*
X199733657Y-144013180D02*
X199733657Y-143013180D01*
X199400323Y-143727466D01*
X199066990Y-143013180D01*
X199066990Y-144013180D01*
X198257466Y-143489371D02*
X198590800Y-143489371D01*
X198590800Y-144013180D02*
X198590800Y-143013180D01*
X198114609Y-143013180D01*
X197543180Y-143013180D02*
X197352704Y-143013180D01*
X197257466Y-143060800D01*
X197162228Y-143156038D01*
X197114609Y-143346514D01*
X197114609Y-143679847D01*
X197162228Y-143870323D01*
X197257466Y-143965561D01*
X197352704Y-144013180D01*
X197543180Y-144013180D01*
X197638419Y-143965561D01*
X197733657Y-143870323D01*
X197781276Y-143679847D01*
X197781276Y-143346514D01*
X197733657Y-143156038D01*
X197638419Y-143060800D01*
X197543180Y-143013180D01*
X196114609Y-144013180D02*
X196447942Y-143536990D01*
X196686038Y-144013180D02*
X196686038Y-143013180D01*
X196305085Y-143013180D01*
X196209847Y-143060800D01*
X196162228Y-143108419D01*
X196114609Y-143203657D01*
X196114609Y-143346514D01*
X196162228Y-143441752D01*
X196209847Y-143489371D01*
X196305085Y-143536990D01*
X196686038Y-143536990D01*
X195828895Y-143013180D02*
X195257466Y-143013180D01*
X195543180Y-144013180D02*
X195543180Y-143013180D01*
X194924133Y-144013180D02*
X194924133Y-143013180D01*
X194447942Y-143489371D02*
X194114609Y-143489371D01*
X193971752Y-144013180D02*
X194447942Y-144013180D01*
X194447942Y-143013180D01*
X193971752Y-143013180D01*
X192971752Y-144013180D02*
X193305085Y-143536990D01*
X193543180Y-144013180D02*
X193543180Y-143013180D01*
X193162228Y-143013180D01*
X193066990Y-143060800D01*
X193019371Y-143108419D01*
X192971752Y-143203657D01*
X192971752Y-143346514D01*
X193019371Y-143441752D01*
X193066990Y-143489371D01*
X193162228Y-143536990D01*
X193543180Y-143536990D01*
X191781276Y-143632228D02*
X191019371Y-143632228D01*
X189828895Y-143108419D02*
X189781276Y-143060800D01*
X189686038Y-143013180D01*
X189447942Y-143013180D01*
X189352704Y-143060800D01*
X189305085Y-143108419D01*
X189257466Y-143203657D01*
X189257466Y-143298895D01*
X189305085Y-143441752D01*
X189876514Y-144013180D01*
X189257466Y-144013180D01*
X188638419Y-143013180D02*
X188543180Y-143013180D01*
X188447942Y-143060800D01*
X188400323Y-143108419D01*
X188352704Y-143203657D01*
X188305085Y-143394133D01*
X188305085Y-143632228D01*
X188352704Y-143822704D01*
X188400323Y-143917942D01*
X188447942Y-143965561D01*
X188543180Y-144013180D01*
X188638419Y-144013180D01*
X188733657Y-143965561D01*
X188781276Y-143917942D01*
X188828895Y-143822704D01*
X188876514Y-143632228D01*
X188876514Y-143394133D01*
X188828895Y-143203657D01*
X188781276Y-143108419D01*
X188733657Y-143060800D01*
X188638419Y-143013180D01*
X187924133Y-143108419D02*
X187876514Y-143060800D01*
X187781276Y-143013180D01*
X187543180Y-143013180D01*
X187447942Y-143060800D01*
X187400323Y-143108419D01*
X187352704Y-143203657D01*
X187352704Y-143298895D01*
X187400323Y-143441752D01*
X187971752Y-144013180D01*
X187352704Y-144013180D01*
X187019371Y-143013180D02*
X186400323Y-143013180D01*
X186733657Y-143394133D01*
X186590800Y-143394133D01*
X186495561Y-143441752D01*
X186447942Y-143489371D01*
X186400323Y-143584609D01*
X186400323Y-143822704D01*
X186447942Y-143917942D01*
X186495561Y-143965561D01*
X186590800Y-144013180D01*
X186876514Y-144013180D01*
X186971752Y-143965561D01*
X187019371Y-143917942D01*
%TO.C,G\u002A\u002A\u002A*%
G36*
X194210534Y-139152775D02*
G01*
X194241930Y-139158939D01*
X194262143Y-139182644D01*
X194274724Y-139235726D01*
X194283225Y-139330025D01*
X194291197Y-139477377D01*
X194307437Y-139802185D01*
X194670285Y-139811345D01*
X195033132Y-139820505D01*
X195188883Y-140136153D01*
X195240782Y-140241304D01*
X195297173Y-140355479D01*
X195337657Y-140437357D01*
X195355821Y-140473957D01*
X195356402Y-140476371D01*
X195328610Y-140493780D01*
X195259473Y-140506438D01*
X195151939Y-140516763D01*
X195143069Y-141093297D01*
X195134199Y-141669832D01*
X193257907Y-141669832D01*
X193235776Y-141508925D01*
X193230153Y-141465353D01*
X193225515Y-141362617D01*
X193249041Y-141308328D01*
X193310660Y-141291258D01*
X193420297Y-141300175D01*
X193489426Y-141308661D01*
X193550372Y-141310334D01*
X193570438Y-141294790D01*
X193563652Y-141257893D01*
X193561482Y-141249721D01*
X193567975Y-141202354D01*
X193612869Y-141145188D01*
X193704841Y-141066457D01*
X193768532Y-141013874D01*
X193843935Y-140936705D01*
X193866501Y-140881583D01*
X193839340Y-140843348D01*
X193828126Y-140804378D01*
X193845993Y-140728987D01*
X193853408Y-140708232D01*
X193866574Y-140633050D01*
X193838509Y-140607814D01*
X193768737Y-140631927D01*
X193746768Y-140642932D01*
X193694045Y-140651125D01*
X193650060Y-140610198D01*
X193644704Y-140603057D01*
X193613148Y-140571319D01*
X193582486Y-140581535D01*
X193532586Y-140638566D01*
X193476142Y-140695606D01*
X193423132Y-140725762D01*
X193392012Y-140719163D01*
X193396032Y-140672515D01*
X193401516Y-140655692D01*
X193420030Y-140575251D01*
X193436918Y-140473877D01*
X193442525Y-140430889D01*
X193445919Y-140365747D01*
X193430494Y-140344116D01*
X193390783Y-140351487D01*
X193356991Y-140356840D01*
X193314343Y-140332612D01*
X193270646Y-140257798D01*
X193259596Y-140235515D01*
X193219806Y-140169709D01*
X193191341Y-140143233D01*
X193185160Y-140145625D01*
X193151943Y-140185512D01*
X193111213Y-140258962D01*
X193082803Y-140312343D01*
X193041097Y-140355028D01*
X192991514Y-140354216D01*
X192954463Y-140349553D01*
X192929447Y-140377364D01*
X192932279Y-140450734D01*
X192962032Y-140576650D01*
X192981192Y-140663302D01*
X192975551Y-140713992D01*
X192937465Y-140709063D01*
X192865265Y-140649775D01*
X192844067Y-140630205D01*
X192782088Y-140588345D01*
X192747982Y-140598574D01*
X192710912Y-140620110D01*
X192631995Y-140618541D01*
X192612734Y-140615123D01*
X192540449Y-140618680D01*
X192518499Y-140661577D01*
X192544558Y-140747235D01*
X192556480Y-140774822D01*
X192568351Y-140827300D01*
X192544971Y-140849819D01*
X192517460Y-140865065D01*
X192512208Y-140907417D01*
X192562013Y-140972500D01*
X192668540Y-141063190D01*
X192732368Y-141116754D01*
X192803393Y-141193700D01*
X192829560Y-141250926D01*
X192831025Y-141271663D01*
X192848994Y-141298357D01*
X192900109Y-141307928D01*
X193000084Y-141305395D01*
X193073455Y-141303487D01*
X193146397Y-141312245D01*
X193167361Y-141336903D01*
X193166354Y-141352396D01*
X193162911Y-141425554D01*
X193159240Y-141523668D01*
X193154368Y-141669832D01*
X191271980Y-141669832D01*
X191263110Y-141093297D01*
X191254240Y-140516763D01*
X191173038Y-140507050D01*
X191116776Y-140499455D01*
X191046002Y-140481939D01*
X191028398Y-140456791D01*
X191056050Y-140417986D01*
X191070773Y-140399803D01*
X191117426Y-140326794D01*
X191178395Y-140219187D01*
X191244349Y-140093084D01*
X191382406Y-139818425D01*
X191731311Y-139818425D01*
X191882335Y-139817354D01*
X191988668Y-139812663D01*
X192054314Y-139802352D01*
X192091676Y-139784422D01*
X192113157Y-139756874D01*
X192126548Y-139710517D01*
X192096749Y-139654124D01*
X192008306Y-139618915D01*
X192000379Y-139617156D01*
X191976454Y-139601854D01*
X191990568Y-139567768D01*
X192047076Y-139501737D01*
X192143801Y-139396175D01*
X193116113Y-139396175D01*
X193205204Y-139501737D01*
X193294296Y-139607300D01*
X193216212Y-139618695D01*
X193154553Y-139636339D01*
X193110368Y-139685921D01*
X193125297Y-139759834D01*
X193157420Y-139793969D01*
X193222347Y-139813086D01*
X193334960Y-139818425D01*
X193403250Y-139817514D01*
X193478674Y-139808695D01*
X193519326Y-139784381D01*
X193544138Y-139737223D01*
X193550027Y-139722979D01*
X193597500Y-139665183D01*
X193655984Y-139669931D01*
X193719796Y-139737223D01*
X193735875Y-139759505D01*
X193798020Y-139805696D01*
X193894056Y-139817928D01*
X193909072Y-139817682D01*
X193997518Y-139809178D01*
X194054399Y-139792461D01*
X194057185Y-139790228D01*
X194078271Y-139736327D01*
X194093874Y-139624275D01*
X194103121Y-139460030D01*
X194104481Y-139416264D01*
X194109628Y-139288851D01*
X194117538Y-139210957D01*
X194131802Y-139170398D01*
X194156011Y-139154996D01*
X194193754Y-139152568D01*
X194210534Y-139152775D01*
G37*
%TD*%
M02*
