%TF.GenerationSoftware,KiCad,Pcbnew,(6.0.7)*%
%TF.CreationDate,2023-02-02T17:51:50-05:00*%
%TF.ProjectId,ESPoules,4553506f-756c-4657-932e-6b696361645f,rev?*%
%TF.SameCoordinates,Original*%
%TF.FileFunction,Copper,L1,Top*%
%TF.FilePolarity,Positive*%
%FSLAX46Y46*%
G04 Gerber Fmt 4.6, Leading zero omitted, Abs format (unit mm)*
G04 Created by KiCad (PCBNEW (6.0.7)) date 2023-02-02 17:51:50*
%MOMM*%
%LPD*%
G01*
G04 APERTURE LIST*
G04 Aperture macros list*
%AMRoundRect*
0 Rectangle with rounded corners*
0 $1 Rounding radius*
0 $2 $3 $4 $5 $6 $7 $8 $9 X,Y pos of 4 corners*
0 Add a 4 corners polygon primitive as box body*
4,1,4,$2,$3,$4,$5,$6,$7,$8,$9,$2,$3,0*
0 Add four circle primitives for the rounded corners*
1,1,$1+$1,$2,$3*
1,1,$1+$1,$4,$5*
1,1,$1+$1,$6,$7*
1,1,$1+$1,$8,$9*
0 Add four rect primitives between the rounded corners*
20,1,$1+$1,$2,$3,$4,$5,0*
20,1,$1+$1,$4,$5,$6,$7,0*
20,1,$1+$1,$6,$7,$8,$9,0*
20,1,$1+$1,$8,$9,$2,$3,0*%
G04 Aperture macros list end*
%TA.AperFunction,ComponentPad*%
%ADD10R,1.600000X1.600000*%
%TD*%
%TA.AperFunction,ComponentPad*%
%ADD11O,1.600000X1.600000*%
%TD*%
%TA.AperFunction,ComponentPad*%
%ADD12C,1.400000*%
%TD*%
%TA.AperFunction,ComponentPad*%
%ADD13C,1.600000*%
%TD*%
%TA.AperFunction,SMDPad,CuDef*%
%ADD14RoundRect,0.250001X0.624999X-0.462499X0.624999X0.462499X-0.624999X0.462499X-0.624999X-0.462499X0*%
%TD*%
%TA.AperFunction,ComponentPad*%
%ADD15R,1.700000X1.700000*%
%TD*%
%TA.AperFunction,ComponentPad*%
%ADD16O,1.700000X1.700000*%
%TD*%
%TA.AperFunction,ComponentPad*%
%ADD17R,2.000000X3.000000*%
%TD*%
%TA.AperFunction,ComponentPad*%
%ADD18O,2.000000X3.000000*%
%TD*%
%TA.AperFunction,SMDPad,CuDef*%
%ADD19RoundRect,0.250000X0.450000X-0.350000X0.450000X0.350000X-0.450000X0.350000X-0.450000X-0.350000X0*%
%TD*%
%TA.AperFunction,SMDPad,CuDef*%
%ADD20RoundRect,0.250001X-0.624999X0.462499X-0.624999X-0.462499X0.624999X-0.462499X0.624999X0.462499X0*%
%TD*%
%TA.AperFunction,ComponentPad*%
%ADD21R,1.050000X1.500000*%
%TD*%
%TA.AperFunction,ComponentPad*%
%ADD22O,1.050000X1.500000*%
%TD*%
%TA.AperFunction,SMDPad,CuDef*%
%ADD23RoundRect,0.150000X-0.825000X-0.150000X0.825000X-0.150000X0.825000X0.150000X-0.825000X0.150000X0*%
%TD*%
%TA.AperFunction,SMDPad,CuDef*%
%ADD24RoundRect,0.250000X-0.450000X0.350000X-0.450000X-0.350000X0.450000X-0.350000X0.450000X0.350000X0*%
%TD*%
%TA.AperFunction,ComponentPad*%
%ADD25RoundRect,0.250000X-0.650000X-1.550000X0.650000X-1.550000X0.650000X1.550000X-0.650000X1.550000X0*%
%TD*%
%TA.AperFunction,ComponentPad*%
%ADD26O,1.800000X3.600000*%
%TD*%
%TA.AperFunction,ComponentPad*%
%ADD27RoundRect,0.250000X1.550000X-0.650000X1.550000X0.650000X-1.550000X0.650000X-1.550000X-0.650000X0*%
%TD*%
%TA.AperFunction,ComponentPad*%
%ADD28O,3.600000X1.800000*%
%TD*%
%TA.AperFunction,SMDPad,CuDef*%
%ADD29R,2.500000X1.000000*%
%TD*%
%TA.AperFunction,SMDPad,CuDef*%
%ADD30R,1.000000X1.800000*%
%TD*%
%TA.AperFunction,SMDPad,CuDef*%
%ADD31RoundRect,0.250001X0.462499X0.624999X-0.462499X0.624999X-0.462499X-0.624999X0.462499X-0.624999X0*%
%TD*%
%TA.AperFunction,SMDPad,CuDef*%
%ADD32R,1.200000X2.200000*%
%TD*%
%TA.AperFunction,SMDPad,CuDef*%
%ADD33R,5.800000X6.400000*%
%TD*%
%TA.AperFunction,ComponentPad*%
%ADD34RoundRect,0.250000X-1.550000X0.650000X-1.550000X-0.650000X1.550000X-0.650000X1.550000X0.650000X0*%
%TD*%
%TA.AperFunction,ViaPad*%
%ADD35C,0.800000*%
%TD*%
%TA.AperFunction,Conductor*%
%ADD36C,0.250000*%
%TD*%
%TA.AperFunction,Conductor*%
%ADD37C,0.500000*%
%TD*%
%TA.AperFunction,Conductor*%
%ADD38C,1.000000*%
%TD*%
G04 APERTURE END LIST*
D10*
%TO.P,U9,1*%
%TO.N,Net-(D8-Pad1)*%
X171800000Y-115275000D03*
D11*
%TO.P,U9,2*%
%TO.N,Net-(J6-Pad2)*%
X171800000Y-112735000D03*
%TO.P,U9,3*%
%TO.N,GND*%
X164180000Y-112735000D03*
%TO.P,U9,4*%
%TO.N,/GPIO4*%
X164180000Y-115275000D03*
%TD*%
D12*
%TO.P,REF\u002A\u002A,1*%
%TO.N,+3.3V*%
X149860000Y-135890000D03*
%TD*%
%TO.P,REF\u002A\u002A,1*%
%TO.N,+3.3V*%
X149860000Y-133350000D03*
%TD*%
%TO.P,REF\u002A\u002A,1*%
%TO.N,N/C*%
X179839765Y-139700000D03*
%TD*%
%TO.P,REF\u002A\u002A,1*%
%TO.N,N/C*%
X157480000Y-135890000D03*
%TD*%
%TO.P,REF\u002A\u002A,1*%
%TO.N,N/C*%
X182366740Y-139700000D03*
%TD*%
%TO.P,REF\u002A\u002A,1*%
%TO.N,N/C*%
X179839765Y-137160000D03*
%TD*%
%TO.P,+,1*%
%TO.N,unconnected-(U8-Pad7)*%
X177323246Y-139700000D03*
%TD*%
%TO.P,REF\u002A\u002A,1*%
%TO.N,GND*%
X152400000Y-135890000D03*
%TD*%
%TO.P,REF\u002A\u002A,1*%
%TO.N,N/C*%
X157480000Y-133350000D03*
%TD*%
%TO.P,REF\u002A\u002A,1*%
%TO.N,N/C*%
X177323246Y-137160000D03*
%TD*%
%TO.P,REF\u002A\u002A,1*%
%TO.N,N/C*%
X179863246Y-144780000D03*
%TD*%
%TO.P,REF\u002A\u002A,1*%
%TO.N,GND*%
X152400000Y-133350000D03*
%TD*%
%TO.P,-,1*%
%TO.N,unconnected-(U8-Pad6)*%
X177323246Y-142240000D03*
%TD*%
%TO.P,REF\u002A\u002A,1*%
%TO.N,+5V*%
X147320000Y-135890000D03*
%TD*%
%TO.P,REF\u002A\u002A,1*%
%TO.N,N/C*%
X179839765Y-142240000D03*
%TD*%
%TO.P,REF\u002A\u002A,1*%
%TO.N,N/C*%
X182390221Y-144780000D03*
%TD*%
%TO.P,REF\u002A\u002A,1*%
%TO.N,+5V*%
X147320000Y-133350000D03*
%TD*%
%TO.P,REF\u002A\u002A,1*%
%TO.N,N/C*%
X154940000Y-133350000D03*
%TD*%
%TO.P,REF\u002A\u002A,1*%
%TO.N,N/C*%
X182366740Y-142240000D03*
%TD*%
%TO.P,REF\u002A\u002A,1*%
%TO.N,N/C*%
X154940000Y-135890000D03*
%TD*%
%TO.P,OUT,1*%
%TO.N,unconnected-(U8-Pad5)*%
X177323246Y-144780000D03*
%TD*%
%TO.P,REF\u002A\u002A,1*%
%TO.N,N/C*%
X182366740Y-137160000D03*
%TD*%
D13*
%TO.P,R24,1*%
%TO.N,+3.3V*%
X177800000Y-147828000D03*
D11*
%TO.P,R24,2*%
%TO.N,/GPIO4*%
X187960000Y-147828000D03*
%TD*%
D14*
%TO.P,D2,1,K*%
%TO.N,Net-(D2-Pad1)*%
X160000000Y-99975000D03*
%TO.P,D2,2,A*%
%TO.N,+5V*%
X160000000Y-97000000D03*
%TD*%
D15*
%TO.P,J9,1,NC*%
%TO.N,unconnected-(J9-Pad1)*%
X171450000Y-151130000D03*
D16*
%TO.P,J9,2,Vcc*%
%TO.N,+5V*%
X173990000Y-151130000D03*
%TO.P,J9,3,GND*%
%TO.N,GND*%
X176530000Y-151130000D03*
%TO.P,J9,4,Vout*%
%TO.N,Net-(J9-Pad4)*%
X179070000Y-151130000D03*
%TO.P,J9,5,NC*%
%TO.N,unconnected-(J9-Pad5)*%
X181610000Y-151130000D03*
%TO.P,J9,6,NC*%
%TO.N,unconnected-(J9-Pad6)*%
X184150000Y-151130000D03*
%TD*%
D17*
%TO.P,U5,1*%
%TO.N,Net-(J2-Pad1)*%
X140000000Y-113731000D03*
D18*
%TO.P,U5,2*%
%TO.N,Net-(J2-Pad3)*%
X147620000Y-113731000D03*
%TO.P,U5,3*%
%TO.N,+5V*%
X157780000Y-113731000D03*
%TO.P,U5,4*%
%TO.N,Net-(Q2-Pad3)*%
X160320000Y-113731000D03*
%TD*%
D15*
%TO.P,J5,1,Pin_1*%
%TO.N,+5V*%
X209042000Y-147569000D03*
D16*
%TO.P,J5,2,Pin_2*%
%TO.N,+3.3V*%
X209042000Y-145029000D03*
%TO.P,J5,3,Pin_3*%
%TO.N,/GPIO01*%
X209042000Y-142489000D03*
%TO.P,J5,4,Pin_4*%
%TO.N,/GPIO03*%
X209042000Y-139949000D03*
%TO.P,J5,5,Pin_5*%
%TO.N,GND*%
X209042000Y-137409000D03*
%TD*%
D13*
%TO.P,R10,1*%
%TO.N,/GPIO03*%
X181080000Y-128000000D03*
D11*
%TO.P,R10,2*%
%TO.N,Net-(Q4-Pad2)*%
X170920000Y-128000000D03*
%TD*%
D13*
%TO.P,C5,1*%
%TO.N,+3.3V*%
X203708000Y-126492000D03*
%TO.P,C5,2*%
%TO.N,GND*%
X203708000Y-131492000D03*
%TD*%
D19*
%TO.P,R21,1*%
%TO.N,+5V*%
X202000000Y-104000000D03*
%TO.P,R21,2*%
%TO.N,Net-(D11-Pad2)*%
X202000000Y-102000000D03*
%TD*%
D13*
%TO.P,R2,1*%
%TO.N,GND*%
X170920000Y-134000000D03*
D11*
%TO.P,R2,2*%
%TO.N,Net-(R2-Pad2)*%
X181080000Y-134000000D03*
%TD*%
D19*
%TO.P,R12,1*%
%TO.N,Net-(Q2-Pad3)*%
X163000000Y-104000000D03*
%TO.P,R12,2*%
%TO.N,Net-(D3-Pad1)*%
X163000000Y-102000000D03*
%TD*%
%TO.P,R18,1*%
%TO.N,Net-(J1-Pad2)*%
X202565000Y-142478000D03*
%TO.P,R18,2*%
%TO.N,+3.3V*%
X202565000Y-140478000D03*
%TD*%
D20*
%TO.P,D8,1,K*%
%TO.N,Net-(D8-Pad1)*%
X193000000Y-97012500D03*
%TO.P,D8,2,A*%
%TO.N,Net-(D8-Pad2)*%
X193000000Y-99987500D03*
%TD*%
D19*
%TO.P,R23,1*%
%TO.N,Net-(J4-Pad6)*%
X204597000Y-142478000D03*
%TO.P,R23,2*%
%TO.N,+3.3V*%
X204597000Y-140478000D03*
%TD*%
D13*
%TO.P,C4,1*%
%TO.N,+3.3V*%
X162814000Y-145328000D03*
%TO.P,C4,2*%
%TO.N,GND*%
X162814000Y-150328000D03*
%TD*%
D10*
%TO.P,U11,1*%
%TO.N,Net-(D10-Pad1)*%
X182050000Y-115275000D03*
D11*
%TO.P,U11,2*%
%TO.N,Net-(J6-Pad4)*%
X182050000Y-112735000D03*
%TO.P,U11,3*%
%TO.N,GND*%
X174430000Y-112735000D03*
%TO.P,U11,4*%
%TO.N,/GPIO12*%
X174430000Y-115275000D03*
%TD*%
D15*
%TO.P,J4,1,Pin_1*%
%TO.N,GND*%
X196342000Y-151130000D03*
D16*
%TO.P,J4,2,Pin_2*%
%TO.N,/GPIO00*%
X198882000Y-151130000D03*
%TO.P,J4,3,Pin_3*%
X201422000Y-151130000D03*
%TO.P,J4,4,Pin_4*%
%TO.N,Net-(J4-Pad4)*%
X203962000Y-151130000D03*
%TO.P,J4,5,Pin_5*%
%TO.N,/GPIO02*%
X206502000Y-151130000D03*
%TO.P,J4,6,Pin_6*%
%TO.N,Net-(J4-Pad6)*%
X209042000Y-151130000D03*
%TD*%
D11*
%TO.P,R7,2*%
%TO.N,Net-(Q1-Pad2)*%
X170920000Y-119000000D03*
D13*
%TO.P,R7,1*%
%TO.N,/GPIO00*%
X181080000Y-119000000D03*
%TD*%
D14*
%TO.P,D3,1,K*%
%TO.N,Net-(D3-Pad1)*%
X163000000Y-99975000D03*
%TO.P,D3,2,A*%
%TO.N,+5V*%
X163000000Y-97000000D03*
%TD*%
D13*
%TO.P,R8,1*%
%TO.N,/GPIO01*%
X181080000Y-122000000D03*
D11*
%TO.P,R8,2*%
%TO.N,Net-(Q2-Pad2)*%
X170920000Y-122000000D03*
%TD*%
D13*
%TO.P,R3,1*%
%TO.N,Net-(R2-Pad2)*%
X181080000Y-131000000D03*
D11*
%TO.P,R3,2*%
%TO.N,/ADC*%
X170920000Y-131000000D03*
%TD*%
D21*
%TO.P,Q5,1,E*%
%TO.N,/GPIO01*%
X194564000Y-117602000D03*
D22*
%TO.P,Q5,2,B*%
%TO.N,Net-(Q5-Pad2)*%
X193294000Y-117602000D03*
%TO.P,Q5,3,C*%
%TO.N,+3.3V*%
X192024000Y-117602000D03*
%TD*%
D23*
%TO.P,U8,1*%
%TO.N,/ADC*%
X169525000Y-140095000D03*
%TO.P,U8,2,-*%
%TO.N,Net-(R2-Pad2)*%
X169525000Y-141365000D03*
%TO.P,U8,3,+*%
%TO.N,Net-(R1-Pad2)*%
X169525000Y-142635000D03*
%TO.P,U8,4,V-*%
%TO.N,GND*%
X169525000Y-143905000D03*
%TO.P,U8,5,+*%
%TO.N,unconnected-(U8-Pad5)*%
X174475000Y-143905000D03*
%TO.P,U8,6,-*%
%TO.N,unconnected-(U8-Pad6)*%
X174475000Y-142635000D03*
%TO.P,U8,7*%
%TO.N,unconnected-(U8-Pad7)*%
X174475000Y-141365000D03*
%TO.P,U8,8,V+*%
%TO.N,+5V*%
X174475000Y-140095000D03*
%TD*%
D19*
%TO.P,R20,1*%
%TO.N,+5V*%
X199000000Y-104000000D03*
%TO.P,R20,2*%
%TO.N,Net-(D10-Pad2)*%
X199000000Y-102000000D03*
%TD*%
D13*
%TO.P,C3,1*%
%TO.N,Net-(C3-Pad1)*%
X139232000Y-143256000D03*
%TO.P,C3,2*%
%TO.N,GND*%
X144232000Y-143256000D03*
%TD*%
D20*
%TO.P,D9,1,K*%
%TO.N,Net-(D9-Pad1)*%
X196000000Y-97012500D03*
%TO.P,D9,2,A*%
%TO.N,Net-(D9-Pad2)*%
X196000000Y-99987500D03*
%TD*%
D24*
%TO.P,R6,1*%
%TO.N,Net-(D1-Pad1)*%
X206248000Y-136414000D03*
%TO.P,R6,2*%
%TO.N,GND*%
X206248000Y-138414000D03*
%TD*%
D19*
%TO.P,R22,1*%
%TO.N,Net-(J4-Pad4)*%
X204216000Y-146542000D03*
%TO.P,R22,2*%
%TO.N,+3.3V*%
X204216000Y-144542000D03*
%TD*%
D15*
%TO.P,J8,1,Pin_1*%
%TO.N,+3.3V*%
X187721000Y-151105000D03*
D16*
%TO.P,J8,2,Pin_2*%
%TO.N,/GPIO4*%
X190261000Y-151105000D03*
%TO.P,J8,3,Pin_3*%
%TO.N,GND*%
X192801000Y-151105000D03*
%TD*%
D25*
%TO.P,J2,1,Pin_1*%
%TO.N,Net-(J2-Pad1)*%
X141500000Y-99642500D03*
D26*
%TO.P,J2,2,Pin_2*%
%TO.N,Net-(J2-Pad2)*%
X145000000Y-99642500D03*
%TO.P,J2,3,Pin_3*%
%TO.N,Net-(J2-Pad3)*%
X148500000Y-99642500D03*
%TO.P,J2,4,Pin_4*%
%TO.N,Net-(J2-Pad4)*%
X152000000Y-99642500D03*
%TO.P,J2,5,Pin_5*%
%TO.N,Net-(J2-Pad5)*%
X155500000Y-99642500D03*
%TD*%
D19*
%TO.P,R11,1*%
%TO.N,Net-(Q1-Pad3)*%
X160000000Y-104000000D03*
%TO.P,R11,2*%
%TO.N,Net-(D2-Pad1)*%
X160000000Y-102000000D03*
%TD*%
D27*
%TO.P,J3,1,Pin_1*%
%TO.N,Net-(C3-Pad1)*%
X142000000Y-139000000D03*
D28*
%TO.P,J3,2,Pin_2*%
%TO.N,GND*%
X142000000Y-135500000D03*
%TD*%
D29*
%TO.P,U1,1,~{RST}*%
%TO.N,Net-(J1-Pad2)*%
X200600000Y-137500000D03*
%TO.P,U1,2,ADC*%
%TO.N,/ADC*%
X200600000Y-135500000D03*
%TO.P,U1,3,EN*%
%TO.N,+3.3V*%
X200600000Y-133500000D03*
%TO.P,U1,4,GPIO16*%
%TO.N,Net-(J10-Pad1)*%
X200600000Y-131500000D03*
%TO.P,U1,5,GPIO14*%
%TO.N,Net-(J10-Pad2)*%
X200600000Y-129500000D03*
%TO.P,U1,6,GPIO12*%
%TO.N,/GPIO12*%
X200600000Y-127500000D03*
%TO.P,U1,7,GPIO13*%
%TO.N,/GPIO13*%
X200600000Y-125500000D03*
%TO.P,U1,8,VCC*%
%TO.N,+3.3V*%
X200600000Y-123500000D03*
D30*
%TO.P,U1,9,CS0*%
%TO.N,unconnected-(U1-Pad9)*%
X198000000Y-122000000D03*
%TO.P,U1,10,MISO*%
%TO.N,unconnected-(U1-Pad10)*%
X196000000Y-122000000D03*
%TO.P,U1,11,GPIO9*%
%TO.N,unconnected-(U1-Pad11)*%
X194000000Y-122000000D03*
%TO.P,U1,12,GPIO10*%
%TO.N,unconnected-(U1-Pad12)*%
X192000000Y-122000000D03*
%TO.P,U1,13,MOSI*%
%TO.N,unconnected-(U1-Pad13)*%
X190000000Y-122000000D03*
%TO.P,U1,14,SCLK*%
%TO.N,unconnected-(U1-Pad14)*%
X188000000Y-122000000D03*
D29*
%TO.P,U1,15,GND*%
%TO.N,GND*%
X185400000Y-123500000D03*
%TO.P,U1,16,GPIO15*%
%TO.N,Net-(D1-Pad2)*%
X185400000Y-125500000D03*
%TO.P,U1,17,GPIO2*%
%TO.N,/GPIO02*%
X185400000Y-127500000D03*
%TO.P,U1,18,GPIO0*%
%TO.N,/GPIO00*%
X185400000Y-129500000D03*
%TO.P,U1,19,GPIO4*%
%TO.N,/GPIO4*%
X185400000Y-131500000D03*
%TO.P,U1,20,GPIO5*%
%TO.N,/GPIO5*%
X185400000Y-133500000D03*
%TO.P,U1,21,GPIO3/RXD*%
%TO.N,/GPIO03*%
X185400000Y-135500000D03*
%TO.P,U1,22,GPIO1/TXD*%
%TO.N,/GPIO01*%
X185400000Y-137500000D03*
%TD*%
D31*
%TO.P,D7,1,K*%
%TO.N,Net-(D7-Pad1)*%
X207987500Y-104500000D03*
%TO.P,D7,2,A*%
%TO.N,/GPIO01*%
X205012500Y-104500000D03*
%TD*%
D32*
%TO.P,U2,1,GND*%
%TO.N,GND*%
X152141000Y-138940000D03*
D33*
%TO.P,U2,2,VO*%
%TO.N,+5V*%
X149861000Y-145240000D03*
D32*
%TO.P,U2,3,VI*%
%TO.N,Net-(C3-Pad1)*%
X147581000Y-138940000D03*
%TD*%
D13*
%TO.P,R1,1*%
%TO.N,Net-(J9-Pad4)*%
X175514000Y-147828000D03*
D11*
%TO.P,R1,2*%
%TO.N,Net-(R1-Pad2)*%
X165354000Y-147828000D03*
%TD*%
D14*
%TO.P,D4,1,K*%
%TO.N,Net-(D4-Pad1)*%
X166000000Y-99975000D03*
%TO.P,D4,2,A*%
%TO.N,+5V*%
X166000000Y-97000000D03*
%TD*%
D20*
%TO.P,D10,1,K*%
%TO.N,Net-(D10-Pad1)*%
X199000000Y-97012500D03*
%TO.P,D10,2,A*%
%TO.N,Net-(D10-Pad2)*%
X199000000Y-99987500D03*
%TD*%
D10*
%TO.P,U12,1*%
%TO.N,Net-(D11-Pad1)*%
X182050000Y-109275000D03*
D11*
%TO.P,U12,2*%
%TO.N,Net-(J6-Pad5)*%
X182050000Y-106735000D03*
%TO.P,U12,3*%
%TO.N,GND*%
X174430000Y-106735000D03*
%TO.P,U12,4*%
%TO.N,/GPIO13*%
X174430000Y-109275000D03*
%TD*%
D19*
%TO.P,R13,1*%
%TO.N,Net-(Q3-Pad3)*%
X166000000Y-104000000D03*
%TO.P,R13,2*%
%TO.N,Net-(D4-Pad1)*%
X166000000Y-102000000D03*
%TD*%
D31*
%TO.P,D1,1,K*%
%TO.N,Net-(D1-Pad1)*%
X208534000Y-134112000D03*
%TO.P,D1,2,A*%
%TO.N,Net-(D1-Pad2)*%
X205559000Y-134112000D03*
%TD*%
D13*
%TO.P,RTRIG1,1*%
%TO.N,/GPIO00*%
X188000000Y-115250000D03*
D11*
%TO.P,RTRIG1,2*%
%TO.N,Net-(D6-Pad2)*%
X188000000Y-105090000D03*
%TD*%
D21*
%TO.P,Q2,1,E*%
%TO.N,GND*%
X167500000Y-124500000D03*
D22*
%TO.P,Q2,2,B*%
%TO.N,Net-(Q2-Pad2)*%
X166230000Y-124500000D03*
%TO.P,Q2,3,C*%
%TO.N,Net-(Q2-Pad3)*%
X164960000Y-124500000D03*
%TD*%
D13*
%TO.P,R17,1*%
%TO.N,Net-(Q6-Pad3)*%
X185000000Y-105000000D03*
D11*
%TO.P,R17,2*%
%TO.N,+5V*%
X185000000Y-115160000D03*
%TD*%
D21*
%TO.P,Q3,1,E*%
%TO.N,GND*%
X167500000Y-129500000D03*
D22*
%TO.P,Q3,2,B*%
%TO.N,Net-(Q3-Pad2)*%
X166230000Y-129500000D03*
%TO.P,Q3,3,C*%
%TO.N,Net-(Q3-Pad3)*%
X164960000Y-129500000D03*
%TD*%
D13*
%TO.P,R16,1*%
%TO.N,GND*%
X190920000Y-107000000D03*
D11*
%TO.P,R16,2*%
%TO.N,/GPIO01*%
X201080000Y-107000000D03*
%TD*%
D13*
%TO.P,C1,1*%
%TO.N,+5V*%
X147105000Y-150265000D03*
%TO.P,C1,2*%
%TO.N,GND*%
X152105000Y-150265000D03*
%TD*%
%TO.P,RECHO1,1*%
%TO.N,Net-(Q5-Pad2)*%
X190920000Y-113000000D03*
D11*
%TO.P,RECHO1,2*%
%TO.N,Net-(J7-Pad3)*%
X201080000Y-113000000D03*
%TD*%
D21*
%TO.P,Q4,1,E*%
%TO.N,GND*%
X167500000Y-134500000D03*
D22*
%TO.P,Q4,2,B*%
%TO.N,Net-(Q4-Pad2)*%
X166230000Y-134500000D03*
%TO.P,Q4,3,C*%
%TO.N,Net-(Q4-Pad3)*%
X164960000Y-134500000D03*
%TD*%
D21*
%TO.P,Q1,1,E*%
%TO.N,GND*%
X167500000Y-119500000D03*
D22*
%TO.P,Q1,2,B*%
%TO.N,Net-(Q1-Pad2)*%
X166230000Y-119500000D03*
%TO.P,Q1,3,C*%
%TO.N,Net-(Q1-Pad3)*%
X164960000Y-119500000D03*
%TD*%
D17*
%TO.P,U4,1*%
%TO.N,Net-(J2-Pad1)*%
X140000000Y-107000000D03*
D18*
%TO.P,U4,2*%
%TO.N,Net-(J2-Pad2)*%
X147620000Y-107000000D03*
%TO.P,U4,3*%
%TO.N,+5V*%
X157780000Y-107000000D03*
%TO.P,U4,4*%
%TO.N,Net-(Q1-Pad3)*%
X160320000Y-107000000D03*
%TD*%
D32*
%TO.P,U3,1,GND*%
%TO.N,GND*%
X159760000Y-138988000D03*
D33*
%TO.P,U3,2,VO*%
%TO.N,+3.3V*%
X157480000Y-145288000D03*
D32*
%TO.P,U3,3,VI*%
%TO.N,+5V*%
X155200000Y-138988000D03*
%TD*%
D24*
%TO.P,R5,1*%
%TO.N,Net-(D1-Pad2)*%
X204216000Y-136414000D03*
%TO.P,R5,2*%
%TO.N,GND*%
X204216000Y-138414000D03*
%TD*%
D25*
%TO.P,J6,1,Pin_1*%
%TO.N,GND*%
X174517500Y-99642500D03*
D26*
%TO.P,J6,2,Pin_2*%
%TO.N,Net-(J6-Pad2)*%
X178017500Y-99642500D03*
%TO.P,J6,3,Pin_3*%
%TO.N,Net-(J6-Pad3)*%
X181517500Y-99642500D03*
%TO.P,J6,4,Pin_4*%
%TO.N,Net-(J6-Pad4)*%
X185017500Y-99642500D03*
%TO.P,J6,5,Pin_5*%
%TO.N,Net-(J6-Pad5)*%
X188517500Y-99642500D03*
%TD*%
D17*
%TO.P,U7,1*%
%TO.N,Net-(J2-Pad1)*%
X140000000Y-127193000D03*
D18*
%TO.P,U7,2*%
%TO.N,Net-(J2-Pad5)*%
X147620000Y-127193000D03*
%TO.P,U7,3*%
%TO.N,+5V*%
X157780000Y-127193000D03*
%TO.P,U7,4*%
%TO.N,Net-(Q4-Pad3)*%
X160320000Y-127193000D03*
%TD*%
D19*
%TO.P,R19,1*%
%TO.N,+5V*%
X196000000Y-104000000D03*
%TO.P,R19,2*%
%TO.N,Net-(D9-Pad2)*%
X196000000Y-102000000D03*
%TD*%
D13*
%TO.P,R15,1*%
%TO.N,Net-(D7-Pad1)*%
X201080000Y-110000000D03*
D11*
%TO.P,R15,2*%
%TO.N,GND*%
X190920000Y-110000000D03*
%TD*%
D21*
%TO.P,Q6,1,E*%
%TO.N,Net-(J7-Pad2)*%
X200660000Y-117602000D03*
D22*
%TO.P,Q6,2,B*%
%TO.N,Net-(D6-Pad2)*%
X199390000Y-117602000D03*
%TO.P,Q6,3,C*%
%TO.N,Net-(Q6-Pad3)*%
X198120000Y-117602000D03*
%TD*%
D15*
%TO.P,J10,1,Pin_1*%
%TO.N,Net-(J10-Pad1)*%
X207010000Y-131069000D03*
D16*
%TO.P,J10,2,Pin_2*%
%TO.N,Net-(J10-Pad2)*%
X207010000Y-128529000D03*
%TD*%
D17*
%TO.P,U6,1*%
%TO.N,Net-(J2-Pad1)*%
X140000000Y-120462000D03*
D18*
%TO.P,U6,2*%
%TO.N,Net-(J2-Pad4)*%
X147620000Y-120462000D03*
%TO.P,U6,3*%
%TO.N,+5V*%
X157780000Y-120462000D03*
%TO.P,U6,4*%
%TO.N,Net-(Q3-Pad3)*%
X160320000Y-120462000D03*
%TD*%
D14*
%TO.P,D5,1,K*%
%TO.N,Net-(D5-Pad1)*%
X169000000Y-99975000D03*
%TO.P,D5,2,A*%
%TO.N,+5V*%
X169000000Y-97000000D03*
%TD*%
D31*
%TO.P,D6,1,K*%
%TO.N,GND*%
X207987500Y-107250000D03*
%TO.P,D6,2,A*%
%TO.N,Net-(D6-Pad2)*%
X205012500Y-107250000D03*
%TD*%
D19*
%TO.P,R14,1*%
%TO.N,Net-(Q4-Pad3)*%
X169000000Y-104000000D03*
%TO.P,R14,2*%
%TO.N,Net-(D5-Pad1)*%
X169000000Y-102000000D03*
%TD*%
D13*
%TO.P,R9,1*%
%TO.N,/GPIO02*%
X181080000Y-125000000D03*
D11*
%TO.P,R9,2*%
%TO.N,Net-(Q3-Pad2)*%
X170920000Y-125000000D03*
%TD*%
D19*
%TO.P,R4,1*%
%TO.N,+5V*%
X193000000Y-104000000D03*
%TO.P,R4,2*%
%TO.N,Net-(D8-Pad2)*%
X193000000Y-102000000D03*
%TD*%
D15*
%TO.P,J1,1,Pin_1*%
%TO.N,GND*%
X196337000Y-147574000D03*
D16*
%TO.P,J1,2,Pin_2*%
%TO.N,Net-(J1-Pad2)*%
X198877000Y-147574000D03*
%TD*%
D13*
%TO.P,C2,1*%
%TO.N,+3.3V*%
X154979000Y-150265000D03*
%TO.P,C2,2*%
%TO.N,GND*%
X159979000Y-150265000D03*
%TD*%
D10*
%TO.P,U10,1*%
%TO.N,Net-(D9-Pad1)*%
X171800000Y-109275000D03*
D11*
%TO.P,U10,2*%
%TO.N,Net-(J6-Pad3)*%
X171800000Y-106735000D03*
%TO.P,U10,3*%
%TO.N,GND*%
X164180000Y-106735000D03*
%TO.P,U10,4*%
%TO.N,/GPIO5*%
X164180000Y-109275000D03*
%TD*%
D20*
%TO.P,D11,1,K*%
%TO.N,Net-(D11-Pad1)*%
X202000000Y-97012500D03*
%TO.P,D11,2,A*%
%TO.N,Net-(D11-Pad2)*%
X202000000Y-99987500D03*
%TD*%
D34*
%TO.P,J7,1,Pin_1*%
%TO.N,+5V*%
X206357500Y-111767500D03*
D28*
%TO.P,J7,2,Pin_2*%
%TO.N,Net-(J7-Pad2)*%
X206357500Y-115267500D03*
%TO.P,J7,3,Pin_3*%
%TO.N,Net-(J7-Pad3)*%
X206357500Y-118767500D03*
%TO.P,J7,4,Pin_4*%
%TO.N,GND*%
X206357500Y-122267500D03*
%TD*%
D35*
%TO.N,/GPIO03*%
X187697000Y-135500000D03*
%TO.N,Net-(D1-Pad2)*%
X203454000Y-134493000D03*
X187325000Y-125476000D03*
%TO.N,+3.3V*%
X198374000Y-133477000D03*
X203581000Y-139700000D03*
%TO.N,GND*%
X187316411Y-123470699D03*
%TO.N,+3.3V*%
X198247000Y-123499502D03*
X205232000Y-143891000D03*
%TO.N,/GPIO4*%
X187706000Y-131572000D03*
%TO.N,GND*%
X171069000Y-143891000D03*
X159766000Y-137160000D03*
%TO.N,+5V*%
X174498000Y-139039600D03*
X200495200Y-104000000D03*
X167510400Y-97000000D03*
%TO.N,GND*%
X207975200Y-108762800D03*
%TO.N,/GPIO00*%
X187750000Y-129500000D03*
%TO.N,/GPIO01*%
X189000000Y-137500000D03*
%TD*%
D36*
%TO.N,Net-(Q1-Pad3)*%
X160320000Y-104320000D02*
X160320000Y-107000000D01*
X160000000Y-104000000D02*
X160320000Y-104320000D01*
%TO.N,Net-(Q5-Pad2)*%
X193294000Y-115374000D02*
X193294000Y-117602000D01*
X190920000Y-113000000D02*
X193294000Y-115374000D01*
%TO.N,Net-(D6-Pad2)*%
X190816396Y-105090000D02*
X188000000Y-105090000D01*
X199390000Y-113663604D02*
X190816396Y-105090000D01*
X199390000Y-117602000D02*
X199390000Y-113663604D01*
X202819000Y-113265109D02*
X202819000Y-112395000D01*
X199390000Y-116694109D02*
X202819000Y-113265109D01*
X199390000Y-117602000D02*
X199390000Y-116694109D01*
X202819000Y-109443500D02*
X202819000Y-112395000D01*
X205012500Y-107250000D02*
X202819000Y-109443500D01*
%TO.N,Net-(Q6-Pad3)*%
X198120000Y-113030000D02*
X198120000Y-117602000D01*
X193929000Y-108839000D02*
X198120000Y-113030000D01*
X188839000Y-108839000D02*
X193929000Y-108839000D01*
X185000000Y-105000000D02*
X188839000Y-108839000D01*
%TO.N,/ADC*%
X172170000Y-129750000D02*
X182000000Y-129750000D01*
X182475000Y-130225000D02*
X182475000Y-134975000D01*
X199775000Y-136325000D02*
X200600000Y-135500000D01*
X182475000Y-134975000D02*
X183825000Y-136325000D01*
X183825000Y-136325000D02*
X199775000Y-136325000D01*
X170920000Y-131000000D02*
X172170000Y-129750000D01*
X182000000Y-129750000D02*
X182475000Y-130225000D01*
%TO.N,/GPIO5*%
X180473630Y-126700000D02*
X181310000Y-126700000D01*
X164180000Y-110406370D02*
X180473630Y-126700000D01*
X181700000Y-126700000D02*
X181310000Y-126700000D01*
X164180000Y-109275000D02*
X164180000Y-110406370D01*
%TO.N,/GPIO03*%
X185400000Y-135500000D02*
X187697000Y-135500000D01*
%TO.N,Net-(R2-Pad2)*%
X181080000Y-134000000D02*
X181080000Y-131000000D01*
%TO.N,/ADC*%
X172339000Y-138684000D02*
X172339000Y-132419000D01*
X170928000Y-140095000D02*
X172339000Y-138684000D01*
X172339000Y-132419000D02*
X170920000Y-131000000D01*
X169525000Y-140095000D02*
X170928000Y-140095000D01*
%TO.N,Net-(R2-Pad2)*%
X178512295Y-134000000D02*
X181080000Y-134000000D01*
X171147295Y-141365000D02*
X178512295Y-134000000D01*
X169525000Y-141365000D02*
X171147295Y-141365000D01*
%TO.N,Net-(R1-Pad2)*%
X167118000Y-142635000D02*
X165354000Y-144399000D01*
X169525000Y-142635000D02*
X167118000Y-142635000D01*
X165354000Y-144399000D02*
X165354000Y-147828000D01*
%TO.N,Net-(J9-Pad4)*%
X178816000Y-151130000D02*
X179070000Y-151130000D01*
X175514000Y-147828000D02*
X178816000Y-151130000D01*
%TO.N,/GPIO4*%
X190261000Y-150129000D02*
X190261000Y-151105000D01*
X187960000Y-147828000D02*
X190261000Y-150129000D01*
%TO.N,Net-(D1-Pad2)*%
X204216000Y-135255000D02*
X203454000Y-134493000D01*
X204216000Y-136414000D02*
X204216000Y-135255000D01*
X205178000Y-134493000D02*
X205559000Y-134112000D01*
X203454000Y-134493000D02*
X205178000Y-134493000D01*
X187301000Y-125500000D02*
X187325000Y-125476000D01*
X185400000Y-125500000D02*
X187301000Y-125500000D01*
D37*
%TO.N,+3.3V*%
X198397000Y-133500000D02*
X198374000Y-133477000D01*
X200600000Y-133500000D02*
X198397000Y-133500000D01*
D36*
%TO.N,Net-(J4-Pad6)*%
X207742000Y-149830000D02*
X209042000Y-151130000D01*
X205470000Y-142478000D02*
X207742000Y-144750000D01*
X204597000Y-142478000D02*
X205470000Y-142478000D01*
X207742000Y-144750000D02*
X207742000Y-149830000D01*
%TO.N,Net-(J1-Pad2)*%
X202565000Y-142478000D02*
X201438000Y-142478000D01*
X201415000Y-142501000D02*
X201415000Y-146805000D01*
X201438000Y-142478000D02*
X201415000Y-142501000D01*
X201415000Y-138315000D02*
X201415000Y-142501000D01*
X200646000Y-147574000D02*
X198877000Y-147574000D01*
X201415000Y-146805000D02*
X200646000Y-147574000D01*
X200600000Y-137500000D02*
X201415000Y-138315000D01*
D37*
%TO.N,+3.3V*%
X204486000Y-140478000D02*
X203581000Y-139573000D01*
X204597000Y-140478000D02*
X204486000Y-140478000D01*
X202676000Y-140478000D02*
X203581000Y-139573000D01*
X202565000Y-140478000D02*
X202676000Y-140478000D01*
%TO.N,GND*%
X187287110Y-123500000D02*
X187316411Y-123470699D01*
X185400000Y-123500000D02*
X187287110Y-123500000D01*
%TO.N,+3.3V*%
X198247498Y-123500000D02*
X198247000Y-123499502D01*
X200600000Y-123500000D02*
X198247498Y-123500000D01*
D36*
%TO.N,Net-(J10-Pad1)*%
X206141000Y-130200000D02*
X207010000Y-131069000D01*
X202650000Y-130200000D02*
X206141000Y-130200000D01*
X201350000Y-131500000D02*
X202650000Y-130200000D01*
X200600000Y-131500000D02*
X201350000Y-131500000D01*
%TO.N,Net-(J10-Pad2)*%
X206039000Y-129500000D02*
X207010000Y-128529000D01*
X200600000Y-129500000D02*
X206039000Y-129500000D01*
D37*
%TO.N,+3.3V*%
X204581000Y-144542000D02*
X205232000Y-143891000D01*
X204216000Y-144542000D02*
X204581000Y-144542000D01*
D36*
%TO.N,Net-(D1-Pad1)*%
X206248000Y-136414000D02*
X206248000Y-136398000D01*
X206248000Y-136398000D02*
X208534000Y-134112000D01*
%TO.N,GND*%
X208037000Y-138414000D02*
X204216000Y-138414000D01*
X209042000Y-137409000D02*
X208037000Y-138414000D01*
%TO.N,Net-(J4-Pad4)*%
X204216000Y-150876000D02*
X203962000Y-151130000D01*
X204216000Y-146542000D02*
X204216000Y-150876000D01*
D37*
%TO.N,/GPIO4*%
X185472000Y-131572000D02*
X185400000Y-131500000D01*
X187706000Y-131572000D02*
X185472000Y-131572000D01*
%TO.N,GND*%
X171055000Y-143905000D02*
X171069000Y-143891000D01*
X169525000Y-143905000D02*
X171055000Y-143905000D01*
D38*
%TO.N,+3.3V*%
X157520000Y-145328000D02*
X157480000Y-145288000D01*
X162814000Y-145328000D02*
X157520000Y-145328000D01*
X157480000Y-145288000D02*
X157480000Y-147764000D01*
X157480000Y-147764000D02*
X154979000Y-150265000D01*
%TO.N,+5V*%
X149861000Y-147509000D02*
X147105000Y-150265000D01*
X149861000Y-145240000D02*
X149861000Y-147509000D01*
%TO.N,GND*%
X159760000Y-137166000D02*
X159766000Y-137160000D01*
X159760000Y-138988000D02*
X159760000Y-137166000D01*
%TO.N,+5V*%
X155200000Y-138988000D02*
X155200000Y-139901000D01*
X155200000Y-139901000D02*
X149861000Y-145240000D01*
%TO.N,GND*%
X152141000Y-138940000D02*
X152141000Y-136149000D01*
X152141000Y-136149000D02*
X152400000Y-135890000D01*
%TO.N,Net-(C3-Pad1)*%
X139232000Y-143256000D02*
X139232000Y-141768000D01*
X139232000Y-141768000D02*
X142000000Y-139000000D01*
X147521000Y-139000000D02*
X147581000Y-138940000D01*
X142000000Y-139000000D02*
X147521000Y-139000000D01*
D36*
%TO.N,+5V*%
X193000000Y-104000000D02*
X202000000Y-104000000D01*
D37*
X174475000Y-140095000D02*
X174475000Y-139062600D01*
X174475000Y-139062600D02*
X174498000Y-139039600D01*
D36*
X160000000Y-97000000D02*
X169000000Y-97000000D01*
D37*
%TO.N,GND*%
X207987500Y-108750500D02*
X207975200Y-108762800D01*
X207987500Y-107250000D02*
X207987500Y-108750500D01*
D36*
%TO.N,Net-(D2-Pad1)*%
X160000000Y-102000000D02*
X160000000Y-99975000D01*
%TO.N,Net-(D3-Pad1)*%
X163000000Y-99975000D02*
X163000000Y-102000000D01*
%TO.N,Net-(D4-Pad1)*%
X166000000Y-102000000D02*
X166000000Y-99975000D01*
%TO.N,Net-(D5-Pad1)*%
X169000000Y-99975000D02*
X169000000Y-102000000D01*
%TO.N,/GPIO00*%
X187750000Y-129500000D02*
X185400000Y-129500000D01*
%TO.N,Net-(D7-Pad1)*%
X204148896Y-106000000D02*
X201080000Y-109068896D01*
X207987500Y-104500000D02*
X206487500Y-106000000D01*
X201080000Y-109068896D02*
X201080000Y-110000000D01*
X206487500Y-106000000D02*
X204148896Y-106000000D01*
%TO.N,Net-(D8-Pad2)*%
X193000000Y-99987500D02*
X193000000Y-102000000D01*
%TO.N,Net-(D9-Pad1)*%
X170675000Y-100471827D02*
X174146827Y-97000000D01*
X194962500Y-98050000D02*
X196000000Y-97012500D01*
X191086828Y-97000000D02*
X192136828Y-98050000D01*
X174146827Y-97000000D02*
X191086828Y-97000000D01*
X171800000Y-109275000D02*
X170675000Y-108150000D01*
X170675000Y-108150000D02*
X170675000Y-100471827D01*
X192136828Y-98050000D02*
X194962500Y-98050000D01*
%TO.N,Net-(D10-Pad1)*%
X197512500Y-98500000D02*
X199000000Y-97012500D01*
X188792412Y-102000000D02*
X189750000Y-101042412D01*
X189750000Y-100700432D02*
X191950432Y-98500000D01*
X180475000Y-104638604D02*
X183113604Y-102000000D01*
X189750000Y-101042412D02*
X189750000Y-100700432D01*
X182050000Y-115275000D02*
X180475000Y-113700000D01*
X191950432Y-98500000D02*
X197512500Y-98500000D01*
X180475000Y-113700000D02*
X180475000Y-104638604D01*
X183113604Y-102000000D02*
X188792412Y-102000000D01*
%TO.N,Net-(D10-Pad2)*%
X199000000Y-99987500D02*
X199000000Y-102000000D01*
%TO.N,Net-(D11-Pad1)*%
X200062500Y-98950000D02*
X192136828Y-98950000D01*
X180925000Y-104825000D02*
X180925000Y-108150000D01*
X190200000Y-101228808D02*
X188978808Y-102450000D01*
X183300000Y-102450000D02*
X180925000Y-104825000D01*
X188978808Y-102450000D02*
X183300000Y-102450000D01*
X180925000Y-108150000D02*
X182050000Y-109275000D01*
X202000000Y-97012500D02*
X200062500Y-98950000D01*
X192136828Y-98950000D02*
X190200000Y-100886828D01*
X190200000Y-100886828D02*
X190200000Y-101228808D01*
%TO.N,Net-(D11-Pad2)*%
X202000000Y-99987500D02*
X202000000Y-102000000D01*
%TO.N,Net-(D8-Pad1)*%
X192537500Y-96550000D02*
X193000000Y-97012500D01*
X173960431Y-96550000D02*
X192537500Y-96550000D01*
X170225000Y-100285431D02*
X173960431Y-96550000D01*
X170225000Y-113700000D02*
X170225000Y-100285431D01*
X171800000Y-115275000D02*
X170225000Y-113700000D01*
D38*
%TO.N,Net-(J2-Pad1)*%
X140000000Y-127193000D02*
X140000000Y-107000000D01*
X140000000Y-101142500D02*
X141500000Y-99642500D01*
X140000000Y-107000000D02*
X140000000Y-101142500D01*
%TO.N,Net-(J2-Pad2)*%
X147620000Y-107000000D02*
X147620000Y-105370000D01*
X145000000Y-99642500D02*
X145000000Y-102750000D01*
X147620000Y-105370000D02*
X145000000Y-102750000D01*
%TO.N,Net-(J2-Pad3)*%
X148500000Y-99642500D02*
X148500000Y-102250000D01*
X148500000Y-102250000D02*
X150000000Y-103750000D01*
X150000000Y-111351000D02*
X150000000Y-103750000D01*
X147620000Y-113731000D02*
X150000000Y-111351000D01*
%TO.N,Net-(J2-Pad4)*%
X147620000Y-120462000D02*
X152000000Y-116082000D01*
X152000000Y-116082000D02*
X152000000Y-99642500D01*
%TO.N,Net-(J2-Pad5)*%
X154000000Y-103750000D02*
X154000000Y-120813000D01*
X154000000Y-120813000D02*
X152656500Y-122156500D01*
X155500000Y-99642500D02*
X155500000Y-102250000D01*
X155500000Y-102250000D02*
X154000000Y-103750000D01*
X147620000Y-127193000D02*
X152656500Y-122156500D01*
D36*
%TO.N,/GPIO01*%
X185400000Y-137500000D02*
X189000000Y-137500000D01*
X201080000Y-107000000D02*
X202512500Y-107000000D01*
X202512500Y-107000000D02*
X205012500Y-104500000D01*
%TO.N,Net-(J7-Pad2)*%
X206357500Y-115267500D02*
X202732500Y-115267500D01*
X202732500Y-115267500D02*
X200750000Y-117250000D01*
%TO.N,Net-(Q1-Pad2)*%
X166535000Y-118290000D02*
X170210000Y-118290000D01*
X166230000Y-118595000D02*
X166535000Y-118290000D01*
X166230000Y-119500000D02*
X166230000Y-118595000D01*
X170210000Y-118290000D02*
X170920000Y-119000000D01*
%TO.N,Net-(Q2-Pad2)*%
X166230000Y-124500000D02*
X166230000Y-123595000D01*
X167825000Y-122000000D02*
X170920000Y-122000000D01*
X166230000Y-123595000D02*
X167825000Y-122000000D01*
%TO.N,Net-(Q2-Pad3)*%
X161850000Y-105150000D02*
X163000000Y-104000000D01*
X160320000Y-113731000D02*
X161850000Y-112201000D01*
X161850000Y-112201000D02*
X161850000Y-105150000D01*
%TO.N,Net-(Q3-Pad2)*%
X166230000Y-128595000D02*
X169825000Y-125000000D01*
X166230000Y-129500000D02*
X166230000Y-128595000D01*
X169825000Y-125000000D02*
X170920000Y-125000000D01*
%TO.N,Net-(Q3-Pad3)*%
X162300000Y-118482000D02*
X162300000Y-105813604D01*
X160320000Y-120462000D02*
X162300000Y-118482000D01*
X162300000Y-105813604D02*
X163188604Y-104925000D01*
X165075000Y-104925000D02*
X166000000Y-104000000D01*
X163188604Y-104925000D02*
X165075000Y-104925000D01*
%TO.N,Net-(Q4-Pad2)*%
X166230000Y-132690000D02*
X170920000Y-128000000D01*
X166230000Y-134500000D02*
X166230000Y-132690000D01*
%TO.N,Net-(Q4-Pad3)*%
X162750000Y-106000000D02*
X163250000Y-105500000D01*
X162750000Y-124763000D02*
X162750000Y-106000000D01*
X160320000Y-127193000D02*
X162750000Y-124763000D01*
X167500000Y-105500000D02*
X169000000Y-104000000D01*
X163250000Y-105500000D02*
X167500000Y-105500000D01*
%TO.N,/GPIO02*%
X181272792Y-125000000D02*
X183772792Y-127500000D01*
X183772792Y-127500000D02*
X185400000Y-127500000D01*
X181080000Y-125000000D02*
X181272792Y-125000000D01*
%TO.N,/GPIO03*%
X184850000Y-135500000D02*
X185400000Y-135500000D01*
X182925000Y-129845000D02*
X182925000Y-133575000D01*
X181080000Y-128000000D02*
X182925000Y-129845000D01*
X182925000Y-133575000D02*
X184850000Y-135500000D01*
%TO.N,/GPIO12*%
X189000000Y-126500000D02*
X190000000Y-127500000D01*
X190000000Y-127500000D02*
X200600000Y-127500000D01*
X184000000Y-126500000D02*
X189000000Y-126500000D01*
X178945991Y-115275000D02*
X182750000Y-119079009D01*
X182750000Y-119079009D02*
X182750000Y-125250000D01*
X174430000Y-115275000D02*
X178945991Y-115275000D01*
X182750000Y-125250000D02*
X184000000Y-126500000D01*
%TO.N,/GPIO13*%
X183250000Y-118750000D02*
X183250000Y-123750000D01*
X188450000Y-124500000D02*
X189450000Y-125500000D01*
X174430000Y-109275000D02*
X174430000Y-109930000D01*
X189450000Y-125500000D02*
X200600000Y-125500000D01*
X183250000Y-123750000D02*
X184000000Y-124500000D01*
X174430000Y-109930000D02*
X183250000Y-118750000D01*
X184000000Y-124500000D02*
X188450000Y-124500000D01*
%TO.N,/GPIO5*%
X183375000Y-132125000D02*
X183375000Y-128375000D01*
X183375000Y-128375000D02*
X181700000Y-126700000D01*
X184250000Y-133000000D02*
X183375000Y-132125000D01*
%TO.N,unconnected-(U8-Pad5)*%
X174475000Y-143905000D02*
X176448246Y-143905000D01*
X176448246Y-143905000D02*
X177323246Y-144780000D01*
%TO.N,unconnected-(U8-Pad6)*%
X174475000Y-142635000D02*
X175635000Y-142635000D01*
X175635000Y-142635000D02*
X176030000Y-142240000D01*
X176030000Y-142240000D02*
X177323246Y-142240000D01*
%TO.N,unconnected-(U8-Pad7)*%
X175658246Y-141365000D02*
X177323246Y-139700000D01*
X174475000Y-141365000D02*
X175658246Y-141365000D01*
%TO.N,Net-(D9-Pad2)*%
X196000000Y-99987500D02*
X196000000Y-102000000D01*
%TD*%
%TA.AperFunction,Conductor*%
%TO.N,/GPIO5*%
G36*
X164188196Y-108884157D02*
G01*
X164190715Y-108886142D01*
X164893967Y-109617438D01*
X164897232Y-109625777D01*
X164895726Y-109631293D01*
X164831778Y-109744746D01*
X164831184Y-109745692D01*
X164753828Y-109856650D01*
X164753480Y-109857123D01*
X164673208Y-109960766D01*
X164673195Y-109960783D01*
X164602006Y-110052358D01*
X164596804Y-110059049D01*
X164531199Y-110153809D01*
X164483089Y-110247187D01*
X164459181Y-110341307D01*
X164459248Y-110342238D01*
X164459248Y-110342241D01*
X164466112Y-110437299D01*
X164466184Y-110438292D01*
X164466582Y-110439202D01*
X164466583Y-110439205D01*
X164509544Y-110537377D01*
X164510808Y-110540266D01*
X164511309Y-110540881D01*
X164511310Y-110540882D01*
X164593079Y-110641161D01*
X164595651Y-110649739D01*
X164592284Y-110656828D01*
X164431423Y-110817689D01*
X164423150Y-110821116D01*
X164414713Y-110817522D01*
X164301725Y-110699929D01*
X164301374Y-110699547D01*
X164204126Y-110588912D01*
X164203779Y-110588498D01*
X164124801Y-110489804D01*
X164124507Y-110489422D01*
X164058119Y-110399065D01*
X164057973Y-110398861D01*
X163998617Y-110313375D01*
X163940790Y-110229386D01*
X163886621Y-110154138D01*
X163879060Y-110143634D01*
X163879045Y-110143614D01*
X163879006Y-110143560D01*
X163807706Y-110052460D01*
X163721328Y-109952648D01*
X163620414Y-109847066D01*
X163617175Y-109838718D01*
X163618777Y-109833068D01*
X164172187Y-108888338D01*
X164179325Y-108882932D01*
X164188196Y-108884157D01*
G37*
%TD.AperFunction*%
%TD*%
%TA.AperFunction,Conductor*%
%TO.N,unconnected-(U8-Pad5)*%
G36*
X176432412Y-143788358D02*
G01*
X176433882Y-143788535D01*
X176554682Y-143811060D01*
X176556157Y-143811438D01*
X176657690Y-143844598D01*
X176658896Y-143845068D01*
X176747243Y-143885436D01*
X176747950Y-143885789D01*
X176829065Y-143929971D01*
X176829171Y-143930030D01*
X176908516Y-143974320D01*
X176908527Y-143974326D01*
X176908660Y-143974400D01*
X176908791Y-143974464D01*
X176908808Y-143974473D01*
X176991746Y-144015057D01*
X176991752Y-144015060D01*
X176992037Y-144015199D01*
X176992338Y-144015308D01*
X176992341Y-144015309D01*
X177084666Y-144048660D01*
X177084673Y-144048662D01*
X177085055Y-144048800D01*
X177085450Y-144048883D01*
X177085457Y-144048885D01*
X177193116Y-144071515D01*
X177193121Y-144071516D01*
X177193522Y-144071600D01*
X177193930Y-144071626D01*
X177193934Y-144071627D01*
X177268752Y-144076471D01*
X177314817Y-144079454D01*
X177322851Y-144083409D01*
X177325381Y-144088172D01*
X177326133Y-144091051D01*
X177566826Y-145012530D01*
X177565601Y-145021401D01*
X177558463Y-145026807D01*
X177555278Y-145027185D01*
X177168890Y-145019631D01*
X176670977Y-145009897D01*
X176662773Y-145006309D01*
X176659852Y-145001022D01*
X176629096Y-144877317D01*
X176628809Y-144875670D01*
X176615225Y-144741158D01*
X176615167Y-144740153D01*
X176613208Y-144606274D01*
X176613209Y-144605910D01*
X176615335Y-144476902D01*
X176615337Y-144476789D01*
X176613915Y-144356605D01*
X176601287Y-144249481D01*
X176569803Y-144159339D01*
X176511808Y-144090097D01*
X176419652Y-144045677D01*
X176418687Y-144045564D01*
X176296023Y-144031210D01*
X176288204Y-144026845D01*
X176285683Y-144019589D01*
X176285683Y-143792385D01*
X176289110Y-143784112D01*
X176298047Y-143780704D01*
X176432412Y-143788358D01*
G37*
%TD.AperFunction*%
%TD*%
%TA.AperFunction,Conductor*%
%TO.N,unconnected-(U8-Pad6)*%
G36*
X176835491Y-141749255D02*
G01*
X177210094Y-141968692D01*
X177659908Y-142232187D01*
X177665314Y-142239325D01*
X177664089Y-142248196D01*
X177662105Y-142250714D01*
X177510472Y-142396532D01*
X177024625Y-142863748D01*
X177016286Y-142867013D01*
X177010425Y-142865305D01*
X176898090Y-142796818D01*
X176896648Y-142795780D01*
X176789765Y-142705739D01*
X176788967Y-142705001D01*
X176691457Y-142605995D01*
X176691163Y-142605685D01*
X176600462Y-142506595D01*
X176600446Y-142506578D01*
X176600360Y-142506484D01*
X176513624Y-142416043D01*
X176499346Y-142403874D01*
X176428722Y-142343685D01*
X176428239Y-142343273D01*
X176427677Y-142342973D01*
X176342293Y-142297431D01*
X176342292Y-142297431D01*
X176341340Y-142296923D01*
X176250061Y-142285741D01*
X176151536Y-142318475D01*
X176150740Y-142319101D01*
X176051063Y-142397457D01*
X176042441Y-142399876D01*
X176035559Y-142396532D01*
X175874953Y-142235926D01*
X175871526Y-142227653D01*
X175875505Y-142218862D01*
X175975859Y-142130729D01*
X175977216Y-142129702D01*
X176079478Y-142063415D01*
X176081010Y-142062577D01*
X176177912Y-142018640D01*
X176179289Y-142018118D01*
X176272508Y-141989410D01*
X176273377Y-141989179D01*
X176364568Y-141968692D01*
X176415538Y-141957850D01*
X176454649Y-141949530D01*
X176454657Y-141949528D01*
X176454817Y-141949494D01*
X176544994Y-141924607D01*
X176552571Y-141921486D01*
X176635983Y-141887131D01*
X176635986Y-141887130D01*
X176636417Y-141886952D01*
X176636815Y-141886709D01*
X176636818Y-141886707D01*
X176729994Y-141829701D01*
X176730403Y-141829451D01*
X176821937Y-141750491D01*
X176830438Y-141747682D01*
X176835491Y-141749255D01*
G37*
%TD.AperFunction*%
%TD*%
%TA.AperFunction,Conductor*%
%TO.N,Net-(Q1-Pad3)*%
G36*
X160442184Y-105013427D02*
G01*
X160445594Y-105021073D01*
X160457648Y-105245827D01*
X160493417Y-105438612D01*
X160549040Y-105597794D01*
X160621252Y-105732813D01*
X160706787Y-105853109D01*
X160802379Y-105968120D01*
X160904629Y-106087132D01*
X160904900Y-106087461D01*
X161010394Y-106219701D01*
X161010916Y-106220408D01*
X161116516Y-106375369D01*
X161117109Y-106376336D01*
X161215870Y-106556574D01*
X161216840Y-106565476D01*
X161214042Y-106570306D01*
X160328433Y-107491231D01*
X160320229Y-107494819D01*
X160311567Y-107491231D01*
X159425958Y-106570306D01*
X159422693Y-106561967D01*
X159424130Y-106556574D01*
X159522890Y-106376336D01*
X159523483Y-106375369D01*
X159629083Y-106220408D01*
X159629605Y-106219701D01*
X159735099Y-106087461D01*
X159735370Y-106087132D01*
X159837620Y-105968120D01*
X159933212Y-105853109D01*
X160018747Y-105732813D01*
X160090959Y-105597794D01*
X160146582Y-105438612D01*
X160182351Y-105245827D01*
X160194406Y-105021073D01*
X160198271Y-105012996D01*
X160206089Y-105010000D01*
X160433911Y-105010000D01*
X160442184Y-105013427D01*
G37*
%TD.AperFunction*%
%TD*%
%TA.AperFunction,Conductor*%
%TO.N,Net-(Q5-Pad2)*%
G36*
X193416064Y-116560427D02*
G01*
X193419480Y-116568198D01*
X193424195Y-116678266D01*
X193439016Y-116778904D01*
X193462316Y-116863344D01*
X193492948Y-116936018D01*
X193529766Y-117001358D01*
X193571623Y-117063795D01*
X193617371Y-117127763D01*
X193665707Y-117197463D01*
X193665999Y-117197905D01*
X193715740Y-117277665D01*
X193716145Y-117278367D01*
X193762523Y-117365671D01*
X193763377Y-117374585D01*
X193760624Y-117379268D01*
X193302433Y-117855731D01*
X193294229Y-117859319D01*
X193285567Y-117855731D01*
X192827377Y-117379269D01*
X192824112Y-117370931D01*
X192825477Y-117365671D01*
X192871855Y-117278367D01*
X192872260Y-117277665D01*
X192897867Y-117236603D01*
X192922000Y-117197905D01*
X192922292Y-117197463D01*
X192970628Y-117127763D01*
X193016376Y-117063795D01*
X193058233Y-117001358D01*
X193095051Y-116936018D01*
X193125683Y-116863344D01*
X193148983Y-116778904D01*
X193163804Y-116678266D01*
X193168520Y-116568199D01*
X193172298Y-116560080D01*
X193180209Y-116557000D01*
X193407791Y-116557000D01*
X193416064Y-116560427D01*
G37*
%TD.AperFunction*%
%TD*%
%TA.AperFunction,Conductor*%
%TO.N,Net-(Q5-Pad2)*%
G36*
X191667130Y-112737293D02*
G01*
X191675334Y-112740881D01*
X191678121Y-112745674D01*
X191723581Y-112899435D01*
X191723833Y-112900454D01*
X191752876Y-113045454D01*
X191753006Y-113046243D01*
X191770202Y-113178496D01*
X191770241Y-113178835D01*
X191782404Y-113301927D01*
X191796349Y-113419091D01*
X191818922Y-113533662D01*
X191856982Y-113649135D01*
X191917390Y-113769005D01*
X191917630Y-113769347D01*
X191974344Y-113850202D01*
X192007004Y-113896765D01*
X192007244Y-113897031D01*
X192007253Y-113897042D01*
X192125233Y-114027659D01*
X192128236Y-114036095D01*
X192124824Y-114043774D01*
X191963774Y-114204824D01*
X191955501Y-114208251D01*
X191947659Y-114205233D01*
X191817042Y-114087253D01*
X191817031Y-114087244D01*
X191816765Y-114087004D01*
X191689005Y-113997390D01*
X191569135Y-113936982D01*
X191453662Y-113898922D01*
X191339091Y-113876349D01*
X191221927Y-113862404D01*
X191098835Y-113850241D01*
X191098522Y-113850205D01*
X190966240Y-113833005D01*
X190965457Y-113832877D01*
X190940619Y-113827902D01*
X190820454Y-113803833D01*
X190819435Y-113803581D01*
X190665674Y-113758121D01*
X190658712Y-113752489D01*
X190657293Y-113747130D01*
X190637396Y-112729323D01*
X190640661Y-112720984D01*
X190649323Y-112717396D01*
X191667130Y-112737293D01*
G37*
%TD.AperFunction*%
%TD*%
%TA.AperFunction,Conductor*%
%TO.N,Net-(D6-Pad2)*%
G36*
X188356237Y-104374091D02*
G01*
X188497116Y-104450676D01*
X188497989Y-104451202D01*
X188597291Y-104517363D01*
X188621072Y-104533207D01*
X188621722Y-104533673D01*
X188727382Y-104615018D01*
X188727663Y-104615240D01*
X188823306Y-104693682D01*
X188916015Y-104766668D01*
X188916196Y-104766789D01*
X188916205Y-104766796D01*
X188957036Y-104794185D01*
X189012991Y-104831721D01*
X189053757Y-104852276D01*
X189121173Y-104886269D01*
X189121180Y-104886272D01*
X189121555Y-104886461D01*
X189249031Y-104928507D01*
X189402738Y-104955480D01*
X189403090Y-104955498D01*
X189403091Y-104955498D01*
X189424330Y-104956578D01*
X189578895Y-104964435D01*
X189586983Y-104968278D01*
X189590000Y-104976120D01*
X189590000Y-105203880D01*
X189586573Y-105212153D01*
X189578895Y-105215564D01*
X189422432Y-105223518D01*
X189403091Y-105224501D01*
X189403090Y-105224501D01*
X189402738Y-105224519D01*
X189249031Y-105251492D01*
X189121555Y-105293538D01*
X189121180Y-105293727D01*
X189121173Y-105293730D01*
X189053757Y-105327723D01*
X189012991Y-105348278D01*
X188957036Y-105385814D01*
X188916205Y-105413203D01*
X188916196Y-105413210D01*
X188916015Y-105413331D01*
X188823306Y-105486317D01*
X188823267Y-105486349D01*
X188727665Y-105564757D01*
X188727382Y-105564981D01*
X188621722Y-105646326D01*
X188621072Y-105646792D01*
X188498001Y-105728789D01*
X188497102Y-105729331D01*
X188356236Y-105805909D01*
X188347331Y-105806850D01*
X188342538Y-105804063D01*
X187767856Y-105251419D01*
X187608769Y-105098433D01*
X187605181Y-105090229D01*
X187608769Y-105081567D01*
X187729985Y-104965000D01*
X188093923Y-104615018D01*
X188342538Y-104375937D01*
X188350877Y-104372672D01*
X188356237Y-104374091D01*
G37*
%TD.AperFunction*%
%TD*%
%TA.AperFunction,Conductor*%
%TO.N,Net-(D6-Pad2)*%
G36*
X199512064Y-116560427D02*
G01*
X199515480Y-116568198D01*
X199520195Y-116678266D01*
X199529945Y-116744469D01*
X199535016Y-116778904D01*
X199535109Y-116779241D01*
X199544092Y-116811794D01*
X199558316Y-116863344D01*
X199588948Y-116936018D01*
X199625766Y-117001358D01*
X199667623Y-117063795D01*
X199713371Y-117127763D01*
X199761707Y-117197463D01*
X199761999Y-117197905D01*
X199811740Y-117277665D01*
X199812145Y-117278367D01*
X199858523Y-117365671D01*
X199859377Y-117374585D01*
X199856624Y-117379268D01*
X199398433Y-117855731D01*
X199390229Y-117859319D01*
X199381567Y-117855731D01*
X198923377Y-117379269D01*
X198920112Y-117370931D01*
X198921477Y-117365671D01*
X198967855Y-117278367D01*
X198968260Y-117277665D01*
X198993867Y-117236603D01*
X199018000Y-117197905D01*
X199018292Y-117197463D01*
X199066628Y-117127763D01*
X199112376Y-117063795D01*
X199154233Y-117001358D01*
X199191051Y-116936018D01*
X199221683Y-116863344D01*
X199244983Y-116778904D01*
X199259804Y-116678266D01*
X199264520Y-116568199D01*
X199268298Y-116560080D01*
X199276209Y-116557000D01*
X199503791Y-116557000D01*
X199512064Y-116560427D01*
G37*
%TD.AperFunction*%
%TD*%
%TA.AperFunction,Conductor*%
%TO.N,Net-(D6-Pad2)*%
G36*
X199414419Y-116510485D02*
G01*
X199575028Y-116671094D01*
X199578455Y-116679367D01*
X199575913Y-116686648D01*
X199522072Y-116754371D01*
X199496234Y-116824302D01*
X199499320Y-116889969D01*
X199525755Y-116953073D01*
X199569965Y-117015316D01*
X199626374Y-117078399D01*
X199689407Y-117144023D01*
X199753489Y-117213890D01*
X199813045Y-117289701D01*
X199858612Y-117366596D01*
X199859377Y-117374585D01*
X199856624Y-117379268D01*
X199466467Y-117784984D01*
X199398433Y-117855731D01*
X199390229Y-117859319D01*
X199385919Y-117857534D01*
X199018769Y-117230769D01*
X199083324Y-117156631D01*
X199128335Y-117085612D01*
X199158976Y-117016644D01*
X199180419Y-116948661D01*
X199197838Y-116880596D01*
X199216299Y-116811782D01*
X199216547Y-116810976D01*
X199227603Y-116779249D01*
X199241070Y-116740601D01*
X199241596Y-116739334D01*
X199254409Y-116713025D01*
X199277682Y-116665239D01*
X199330736Y-116586177D01*
X199360593Y-116552501D01*
X199397391Y-116510996D01*
X199405444Y-116507079D01*
X199414419Y-116510485D01*
G37*
%TD.AperFunction*%
%TD*%
%TA.AperFunction,Conductor*%
%TO.N,Net-(Q6-Pad3)*%
G36*
X198242064Y-116560427D02*
G01*
X198245480Y-116568198D01*
X198250195Y-116678266D01*
X198265016Y-116778904D01*
X198288316Y-116863344D01*
X198318948Y-116936018D01*
X198355766Y-117001358D01*
X198397623Y-117063795D01*
X198443371Y-117127763D01*
X198491707Y-117197463D01*
X198491999Y-117197905D01*
X198541740Y-117277665D01*
X198542145Y-117278367D01*
X198588523Y-117365671D01*
X198589377Y-117374585D01*
X198586624Y-117379268D01*
X198128433Y-117855731D01*
X198120229Y-117859319D01*
X198111567Y-117855731D01*
X197653377Y-117379269D01*
X197650112Y-117370931D01*
X197651477Y-117365671D01*
X197697855Y-117278367D01*
X197698260Y-117277665D01*
X197723867Y-117236603D01*
X197748000Y-117197905D01*
X197748292Y-117197463D01*
X197796628Y-117127763D01*
X197842376Y-117063795D01*
X197884233Y-117001358D01*
X197921051Y-116936018D01*
X197951683Y-116863344D01*
X197974983Y-116778904D01*
X197989804Y-116678266D01*
X197994520Y-116568199D01*
X197998298Y-116560080D01*
X198006209Y-116557000D01*
X198233791Y-116557000D01*
X198242064Y-116560427D01*
G37*
%TD.AperFunction*%
%TD*%
%TA.AperFunction,Conductor*%
%TO.N,Net-(Q6-Pad3)*%
G36*
X185747130Y-104737293D02*
G01*
X185755334Y-104740881D01*
X185758121Y-104745674D01*
X185803581Y-104899435D01*
X185803833Y-104900454D01*
X185832876Y-105045454D01*
X185833006Y-105046243D01*
X185850202Y-105178496D01*
X185850241Y-105178835D01*
X185862404Y-105301927D01*
X185876349Y-105419091D01*
X185898922Y-105533662D01*
X185936982Y-105649135D01*
X185997390Y-105769005D01*
X185997630Y-105769347D01*
X186054344Y-105850202D01*
X186087004Y-105896765D01*
X186087244Y-105897031D01*
X186087253Y-105897042D01*
X186205233Y-106027659D01*
X186208236Y-106036095D01*
X186204824Y-106043774D01*
X186043774Y-106204824D01*
X186035501Y-106208251D01*
X186027659Y-106205233D01*
X185897042Y-106087253D01*
X185897031Y-106087244D01*
X185896765Y-106087004D01*
X185769005Y-105997390D01*
X185649135Y-105936982D01*
X185533662Y-105898922D01*
X185419091Y-105876349D01*
X185301927Y-105862404D01*
X185178835Y-105850241D01*
X185178522Y-105850205D01*
X185046240Y-105833005D01*
X185045457Y-105832877D01*
X185020619Y-105827902D01*
X184900454Y-105803833D01*
X184899435Y-105803581D01*
X184745674Y-105758121D01*
X184738712Y-105752489D01*
X184737293Y-105747130D01*
X184717396Y-104729323D01*
X184720661Y-104720984D01*
X184729323Y-104717396D01*
X185747130Y-104737293D01*
G37*
%TD.AperFunction*%
%TD*%
%TA.AperFunction,Conductor*%
%TO.N,/ADC*%
G36*
X171963774Y-129795176D02*
G01*
X172124824Y-129956226D01*
X172128251Y-129964499D01*
X172125233Y-129972341D01*
X172097894Y-130002609D01*
X172007004Y-130103234D01*
X171917390Y-130230994D01*
X171856982Y-130350864D01*
X171818922Y-130466337D01*
X171796349Y-130580908D01*
X171782404Y-130698072D01*
X171782394Y-130698175D01*
X171770243Y-130821144D01*
X171770202Y-130821503D01*
X171753006Y-130953756D01*
X171752877Y-130954542D01*
X171723730Y-131100062D01*
X171675693Y-131262540D01*
X170645887Y-131282671D01*
X170644819Y-131282253D01*
X170638365Y-131276046D01*
X170637387Y-131271130D01*
X170640595Y-131106998D01*
X170648212Y-130717374D01*
X170655377Y-130350864D01*
X170657293Y-130252870D01*
X170660881Y-130244666D01*
X170665674Y-130241879D01*
X170819435Y-130196418D01*
X170820454Y-130196166D01*
X170940619Y-130172097D01*
X170965457Y-130167122D01*
X170966240Y-130166994D01*
X171098522Y-130149794D01*
X171098835Y-130149758D01*
X171221927Y-130137595D01*
X171339091Y-130123650D01*
X171453662Y-130101077D01*
X171569135Y-130063017D01*
X171689005Y-130002609D01*
X171816765Y-129912995D01*
X171947660Y-129794766D01*
X171956095Y-129791764D01*
X171963774Y-129795176D01*
G37*
%TD.AperFunction*%
%TD*%
%TA.AperFunction,Conductor*%
%TO.N,Net-(J9-Pad4)*%
G36*
X176261130Y-147565293D02*
G01*
X176269334Y-147568881D01*
X176272121Y-147573674D01*
X176317581Y-147727435D01*
X176317833Y-147728454D01*
X176346876Y-147873454D01*
X176347006Y-147874243D01*
X176364202Y-148006496D01*
X176364241Y-148006835D01*
X176376404Y-148129927D01*
X176390349Y-148247091D01*
X176412922Y-148361662D01*
X176450982Y-148477135D01*
X176511390Y-148597005D01*
X176511630Y-148597347D01*
X176568344Y-148678202D01*
X176601004Y-148724765D01*
X176601244Y-148725031D01*
X176601253Y-148725042D01*
X176719233Y-148855659D01*
X176722236Y-148864095D01*
X176718824Y-148871774D01*
X176557774Y-149032824D01*
X176549501Y-149036251D01*
X176541659Y-149033233D01*
X176411042Y-148915253D01*
X176411031Y-148915244D01*
X176410765Y-148915004D01*
X176283005Y-148825390D01*
X176163135Y-148764982D01*
X176047662Y-148726922D01*
X175933091Y-148704349D01*
X175815927Y-148690404D01*
X175692835Y-148678241D01*
X175692522Y-148678205D01*
X175560240Y-148661005D01*
X175559457Y-148660877D01*
X175534619Y-148655902D01*
X175414454Y-148631833D01*
X175413435Y-148631581D01*
X175259674Y-148586121D01*
X175252712Y-148580489D01*
X175251293Y-148575130D01*
X175231396Y-147557323D01*
X175234661Y-147548984D01*
X175243323Y-147545396D01*
X176261130Y-147565293D01*
G37*
%TD.AperFunction*%
%TD*%
%TA.AperFunction,Conductor*%
%TO.N,/GPIO03*%
G36*
X187528703Y-135145826D02*
G01*
X187888231Y-135491567D01*
X187891819Y-135499771D01*
X187888231Y-135508433D01*
X187528703Y-135854174D01*
X187520365Y-135857439D01*
X187515191Y-135856119D01*
X187452994Y-135823736D01*
X187452465Y-135823443D01*
X187443739Y-135818311D01*
X187393061Y-135788503D01*
X187392785Y-135788333D01*
X187340190Y-135755118D01*
X187340188Y-135755115D01*
X187340187Y-135755116D01*
X187291437Y-135724310D01*
X187291427Y-135724304D01*
X187291359Y-135724261D01*
X187243352Y-135696476D01*
X187243150Y-135696379D01*
X187243144Y-135696376D01*
X187193339Y-135672506D01*
X187193064Y-135672374D01*
X187137389Y-135652564D01*
X187111557Y-135646563D01*
X187073524Y-135637728D01*
X187073521Y-135637728D01*
X187073222Y-135637658D01*
X187072913Y-135637620D01*
X187072909Y-135637619D01*
X187028886Y-135632162D01*
X186997461Y-135628266D01*
X186941870Y-135626259D01*
X186918278Y-135625407D01*
X186910134Y-135621684D01*
X186907000Y-135613715D01*
X186907000Y-135386285D01*
X186910427Y-135378012D01*
X186918278Y-135374593D01*
X186951212Y-135373403D01*
X186997461Y-135371733D01*
X187028886Y-135367837D01*
X187072909Y-135362380D01*
X187072913Y-135362379D01*
X187073222Y-135362341D01*
X187073521Y-135362271D01*
X187073524Y-135362271D01*
X187137070Y-135347509D01*
X187137068Y-135347509D01*
X187137389Y-135347435D01*
X187193064Y-135327625D01*
X187212766Y-135318182D01*
X187243144Y-135303623D01*
X187243150Y-135303620D01*
X187243352Y-135303523D01*
X187291359Y-135275738D01*
X187340187Y-135244883D01*
X187392785Y-135211666D01*
X187393061Y-135211496D01*
X187452465Y-135176556D01*
X187452994Y-135176263D01*
X187460879Y-135172158D01*
X187515191Y-135143881D01*
X187524111Y-135143100D01*
X187528703Y-135145826D01*
G37*
%TD.AperFunction*%
%TD*%
%TA.AperFunction,Conductor*%
%TO.N,Net-(R2-Pad2)*%
G36*
X181214519Y-132597261D02*
G01*
X181241492Y-132750968D01*
X181283538Y-132878444D01*
X181283727Y-132878819D01*
X181283730Y-132878826D01*
X181317723Y-132946242D01*
X181338278Y-132987008D01*
X181375814Y-133042963D01*
X181403203Y-133083794D01*
X181403210Y-133083803D01*
X181403331Y-133083984D01*
X181476317Y-133176693D01*
X181476349Y-133176732D01*
X181554757Y-133272334D01*
X181554981Y-133272617D01*
X181636326Y-133378277D01*
X181636792Y-133378927D01*
X181718789Y-133501998D01*
X181719331Y-133502897D01*
X181795909Y-133643764D01*
X181796850Y-133652669D01*
X181794063Y-133657462D01*
X181473645Y-133990657D01*
X181473645Y-133990658D01*
X181276098Y-134196082D01*
X181276090Y-134196090D01*
X181276015Y-134196168D01*
X181088119Y-134391557D01*
X181079915Y-134395145D01*
X181074999Y-134394167D01*
X181073949Y-134393708D01*
X180360000Y-133651289D01*
X180440921Y-133502432D01*
X180523207Y-133378927D01*
X180523673Y-133378277D01*
X180605018Y-133272617D01*
X180605242Y-133272334D01*
X180683650Y-133176732D01*
X180683682Y-133176693D01*
X180756668Y-133083984D01*
X180756789Y-133083803D01*
X180756796Y-133083794D01*
X180784185Y-133042963D01*
X180821721Y-132987008D01*
X180842276Y-132946242D01*
X180876269Y-132878826D01*
X180876272Y-132878819D01*
X180876461Y-132878444D01*
X180918507Y-132750968D01*
X180945480Y-132597261D01*
X180955000Y-132410000D01*
X181205000Y-132410000D01*
X181214519Y-132597261D01*
G37*
%TD.AperFunction*%
%TD*%
%TA.AperFunction,Conductor*%
%TO.N,Net-(R2-Pad2)*%
G36*
X181088433Y-130608769D02*
G01*
X181794063Y-131342538D01*
X181797328Y-131350877D01*
X181795909Y-131356236D01*
X181719331Y-131497102D01*
X181718789Y-131498001D01*
X181636792Y-131621072D01*
X181636326Y-131621722D01*
X181554981Y-131727382D01*
X181554759Y-131727663D01*
X181476317Y-131823306D01*
X181403331Y-131916015D01*
X181403210Y-131916196D01*
X181403203Y-131916205D01*
X181375814Y-131957036D01*
X181338278Y-132012991D01*
X181338115Y-132013315D01*
X181283730Y-132121173D01*
X181283727Y-132121180D01*
X181283538Y-132121555D01*
X181241492Y-132249031D01*
X181214519Y-132402738D01*
X181205000Y-132590000D01*
X180955000Y-132590000D01*
X180945480Y-132402738D01*
X180918507Y-132249031D01*
X180876461Y-132121555D01*
X180876272Y-132121180D01*
X180876269Y-132121173D01*
X180821884Y-132013315D01*
X180821721Y-132012991D01*
X180784185Y-131957036D01*
X180756796Y-131916205D01*
X180756789Y-131916196D01*
X180756668Y-131916015D01*
X180683682Y-131823306D01*
X180605240Y-131727663D01*
X180605018Y-131727382D01*
X180523673Y-131621722D01*
X180523207Y-131621072D01*
X180507363Y-131597291D01*
X180441202Y-131497989D01*
X180440676Y-131497116D01*
X180364091Y-131356236D01*
X180363150Y-131347331D01*
X180365937Y-131342538D01*
X181071567Y-130608769D01*
X181079771Y-130605181D01*
X181088433Y-130608769D01*
G37*
%TD.AperFunction*%
%TD*%
%TA.AperFunction,Conductor*%
%TO.N,/ADC*%
G36*
X171675693Y-130737460D02*
G01*
X171723730Y-130899937D01*
X171743772Y-131000000D01*
X171744000Y-131001138D01*
X171752876Y-131045454D01*
X171753006Y-131046243D01*
X171770202Y-131178496D01*
X171770241Y-131178835D01*
X171782404Y-131301927D01*
X171796349Y-131419091D01*
X171818922Y-131533662D01*
X171856982Y-131649135D01*
X171917390Y-131769005D01*
X171917630Y-131769347D01*
X171974344Y-131850202D01*
X172007004Y-131896765D01*
X172007244Y-131897031D01*
X172007253Y-131897042D01*
X172125233Y-132027659D01*
X172128236Y-132036095D01*
X172124824Y-132043774D01*
X171963774Y-132204824D01*
X171955501Y-132208251D01*
X171947659Y-132205233D01*
X171817042Y-132087253D01*
X171817031Y-132087244D01*
X171816765Y-132087004D01*
X171689005Y-131997390D01*
X171569135Y-131936982D01*
X171453662Y-131898922D01*
X171339091Y-131876349D01*
X171221927Y-131862404D01*
X171098835Y-131850241D01*
X171098522Y-131850205D01*
X170966240Y-131833005D01*
X170965457Y-131832877D01*
X170940619Y-131827902D01*
X170820454Y-131803833D01*
X170819435Y-131803581D01*
X170665674Y-131758121D01*
X170658712Y-131752489D01*
X170657293Y-131747130D01*
X170653126Y-131534004D01*
X170637387Y-130728870D01*
X170640652Y-130720531D01*
X170644819Y-130717747D01*
X170645887Y-130717329D01*
X171675693Y-130737460D01*
G37*
%TD.AperFunction*%
%TD*%
%TA.AperFunction,Conductor*%
%TO.N,Net-(R2-Pad2)*%
G36*
X181473709Y-133993950D02*
G01*
X181474167Y-133994998D01*
X181474342Y-134003951D01*
X181471557Y-134008119D01*
X181340135Y-134134501D01*
X181276090Y-134196090D01*
X181276082Y-134196098D01*
X181072336Y-134392031D01*
X181070657Y-134393645D01*
X181070658Y-134393645D01*
X180737462Y-134714063D01*
X180729123Y-134717328D01*
X180723764Y-134715909D01*
X180582897Y-134639331D01*
X180581998Y-134638789D01*
X180458927Y-134556792D01*
X180458277Y-134556326D01*
X180352617Y-134474981D01*
X180352334Y-134474757D01*
X180256732Y-134396349D01*
X180256693Y-134396317D01*
X180163984Y-134323331D01*
X180163803Y-134323210D01*
X180163794Y-134323203D01*
X180122963Y-134295814D01*
X180067008Y-134258278D01*
X180026242Y-134237723D01*
X179958826Y-134203730D01*
X179958819Y-134203727D01*
X179958444Y-134203538D01*
X179830968Y-134161492D01*
X179677261Y-134134519D01*
X179676909Y-134134501D01*
X179676908Y-134134501D01*
X179657482Y-134133514D01*
X179501105Y-134125564D01*
X179493018Y-134121722D01*
X179490000Y-134113880D01*
X179490000Y-133886120D01*
X179493427Y-133877847D01*
X179501105Y-133874435D01*
X179655559Y-133866583D01*
X179676908Y-133865498D01*
X179676909Y-133865498D01*
X179677261Y-133865480D01*
X179830968Y-133838507D01*
X179958444Y-133796461D01*
X179958819Y-133796272D01*
X179958826Y-133796269D01*
X180026242Y-133762276D01*
X180067008Y-133741721D01*
X180122963Y-133704185D01*
X180163794Y-133676796D01*
X180163803Y-133676789D01*
X180163984Y-133676668D01*
X180256693Y-133603682D01*
X180352336Y-133525240D01*
X180352617Y-133525018D01*
X180458277Y-133443673D01*
X180458927Y-133443207D01*
X180467910Y-133437222D01*
X180582432Y-133360921D01*
X180731289Y-133280000D01*
X181473709Y-133993950D01*
G37*
%TD.AperFunction*%
%TD*%
%TA.AperFunction,Conductor*%
%TO.N,Net-(R1-Pad2)*%
G36*
X165476153Y-146241427D02*
G01*
X165479564Y-146249105D01*
X165488519Y-146425261D01*
X165515492Y-146578968D01*
X165557538Y-146706444D01*
X165557727Y-146706819D01*
X165557730Y-146706826D01*
X165591723Y-146774242D01*
X165612278Y-146815008D01*
X165649814Y-146870963D01*
X165677203Y-146911794D01*
X165677210Y-146911803D01*
X165677331Y-146911984D01*
X165750317Y-147004693D01*
X165750349Y-147004732D01*
X165828757Y-147100334D01*
X165828981Y-147100617D01*
X165910326Y-147206277D01*
X165910792Y-147206927D01*
X165992789Y-147329998D01*
X165993331Y-147330897D01*
X166069909Y-147471764D01*
X166070850Y-147480669D01*
X166068063Y-147485462D01*
X165362433Y-148219231D01*
X165354229Y-148222819D01*
X165345567Y-148219231D01*
X164639937Y-147485462D01*
X164636672Y-147477123D01*
X164638091Y-147471764D01*
X164714669Y-147330896D01*
X164715211Y-147329997D01*
X164797207Y-147206927D01*
X164797673Y-147206277D01*
X164879018Y-147100617D01*
X164879242Y-147100334D01*
X164957650Y-147004732D01*
X164957682Y-147004693D01*
X165030668Y-146911984D01*
X165030789Y-146911803D01*
X165030796Y-146911794D01*
X165058185Y-146870963D01*
X165095721Y-146815008D01*
X165116276Y-146774242D01*
X165150269Y-146706826D01*
X165150272Y-146706819D01*
X165150461Y-146706444D01*
X165192507Y-146578968D01*
X165219480Y-146425261D01*
X165228435Y-146249105D01*
X165232278Y-146241017D01*
X165240120Y-146238000D01*
X165467880Y-146238000D01*
X165476153Y-146241427D01*
G37*
%TD.AperFunction*%
%TD*%
%TA.AperFunction,Conductor*%
%TO.N,Net-(J9-Pad4)*%
G36*
X177844907Y-149981272D02*
G01*
X177975936Y-150098675D01*
X177976260Y-150098894D01*
X178104211Y-150185508D01*
X178104215Y-150185510D01*
X178104609Y-150185777D01*
X178105050Y-150185979D01*
X178225725Y-150241310D01*
X178225728Y-150241311D01*
X178226199Y-150241527D01*
X178274432Y-150254088D01*
X178343784Y-150272149D01*
X178343789Y-150272150D01*
X178344227Y-150272264D01*
X178344676Y-150272310D01*
X178344682Y-150272311D01*
X178424610Y-150280484D01*
X178462216Y-150284329D01*
X178583686Y-150284063D01*
X178712159Y-150277805D01*
X178712231Y-150277802D01*
X178731764Y-150276972D01*
X178850883Y-150271908D01*
X178851410Y-150271897D01*
X178940251Y-150272351D01*
X179003762Y-150272675D01*
X179004646Y-150272713D01*
X179166319Y-150285800D01*
X179174289Y-150289883D01*
X179176765Y-150294790D01*
X179367114Y-151106700D01*
X179423958Y-151349161D01*
X179422510Y-151357998D01*
X179414790Y-151363319D01*
X178351612Y-151569106D01*
X178342839Y-151567314D01*
X178339103Y-151563194D01*
X178251739Y-151402005D01*
X178251236Y-151400957D01*
X178229504Y-151349161D01*
X178187316Y-151248614D01*
X178186964Y-151247661D01*
X178141948Y-151107326D01*
X178141766Y-151106700D01*
X178107323Y-150974394D01*
X178107298Y-150974296D01*
X178075258Y-150846731D01*
X178075225Y-150846598D01*
X178075184Y-150846461D01*
X178037312Y-150720195D01*
X178037309Y-150720185D01*
X178037232Y-150719930D01*
X177985023Y-150590696D01*
X177910275Y-150455202D01*
X177804668Y-150309754D01*
X177804459Y-150309524D01*
X177804453Y-150309517D01*
X177667394Y-150158913D01*
X177664360Y-150150488D01*
X177667774Y-150142765D01*
X177828826Y-149981713D01*
X177837099Y-149978286D01*
X177844907Y-149981272D01*
G37*
%TD.AperFunction*%
%TD*%
%TA.AperFunction,Conductor*%
%TO.N,unconnected-(U8-Pad7)*%
G36*
X177566907Y-139456016D02*
G01*
X177570495Y-139464678D01*
X177553135Y-140352690D01*
X177549547Y-140360894D01*
X177544780Y-140363673D01*
X177412758Y-140403055D01*
X177411807Y-140403295D01*
X177286410Y-140429406D01*
X177285694Y-140429531D01*
X177171312Y-140445870D01*
X177171074Y-140445901D01*
X177064655Y-140458214D01*
X176963374Y-140472262D01*
X176963140Y-140472313D01*
X176963134Y-140472314D01*
X176864638Y-140493752D01*
X176864631Y-140493754D01*
X176864291Y-140493828D01*
X176764348Y-140528713D01*
X176660485Y-140582714D01*
X176660155Y-140582949D01*
X176660150Y-140582952D01*
X176549920Y-140661433D01*
X176549916Y-140661436D01*
X176549641Y-140661632D01*
X176437009Y-140763782D01*
X176428581Y-140766800D01*
X176420878Y-140763387D01*
X176259859Y-140602368D01*
X176256432Y-140594095D01*
X176259464Y-140586236D01*
X176361613Y-140473604D01*
X176361812Y-140473325D01*
X176440293Y-140363095D01*
X176440296Y-140363090D01*
X176440531Y-140362760D01*
X176494532Y-140258897D01*
X176529417Y-140158954D01*
X176550983Y-140059871D01*
X176565031Y-139958590D01*
X176577344Y-139852171D01*
X176577375Y-139851933D01*
X176593714Y-139737551D01*
X176593840Y-139736830D01*
X176619948Y-139611446D01*
X176620190Y-139610486D01*
X176659573Y-139478464D01*
X176665222Y-139471516D01*
X176670556Y-139470111D01*
X176788398Y-139467807D01*
X177558568Y-139452751D01*
X177566907Y-139456016D01*
G37*
%TD.AperFunction*%
%TD*%
%TA.AperFunction,Conductor*%
%TO.N,/GPIO4*%
G36*
X189845716Y-149536857D02*
G01*
X189975742Y-149665585D01*
X190093666Y-149779762D01*
X190195870Y-149876443D01*
X190236634Y-149914208D01*
X190287006Y-149960875D01*
X190371730Y-150038301D01*
X190454694Y-150113969D01*
X190454740Y-150114012D01*
X190500649Y-150156335D01*
X190540554Y-150193123D01*
X190633908Y-150280958D01*
X190634013Y-150281058D01*
X190739496Y-150382800D01*
X190739600Y-150382901D01*
X190855576Y-150497569D01*
X190859050Y-150505823D01*
X190857445Y-150511803D01*
X190268813Y-151516662D01*
X190261675Y-151522068D01*
X190252804Y-151520843D01*
X190250285Y-151518858D01*
X189501870Y-150740598D01*
X189498605Y-150732259D01*
X189499964Y-150727011D01*
X189559145Y-150615285D01*
X189559432Y-150614775D01*
X189625430Y-150503973D01*
X189625508Y-150503843D01*
X189689579Y-150399367D01*
X189689584Y-150399358D01*
X189689626Y-150399290D01*
X189699003Y-150382901D01*
X189746574Y-150299750D01*
X189746693Y-150299542D01*
X189755346Y-150280958D01*
X189791503Y-150203297D01*
X189791504Y-150203295D01*
X189791690Y-150202895D01*
X189819619Y-150107614D01*
X189825481Y-150011963D01*
X189815532Y-149966101D01*
X189804443Y-149914981D01*
X189804442Y-149914979D01*
X189804275Y-149914208D01*
X189751003Y-149812613D01*
X189667592Y-149713659D01*
X189664880Y-149705125D01*
X189668265Y-149697846D01*
X189829212Y-149536899D01*
X189837485Y-149533472D01*
X189845716Y-149536857D01*
G37*
%TD.AperFunction*%
%TD*%
%TA.AperFunction,Conductor*%
%TO.N,/GPIO4*%
G36*
X188707130Y-147565293D02*
G01*
X188715334Y-147568881D01*
X188718121Y-147573674D01*
X188763581Y-147727435D01*
X188763833Y-147728454D01*
X188792876Y-147873454D01*
X188793006Y-147874243D01*
X188810202Y-148006496D01*
X188810241Y-148006835D01*
X188822404Y-148129927D01*
X188836349Y-148247091D01*
X188858922Y-148361662D01*
X188896982Y-148477135D01*
X188957390Y-148597005D01*
X188957630Y-148597347D01*
X189014344Y-148678202D01*
X189047004Y-148724765D01*
X189047244Y-148725031D01*
X189047253Y-148725042D01*
X189165233Y-148855659D01*
X189168236Y-148864095D01*
X189164824Y-148871774D01*
X189003774Y-149032824D01*
X188995501Y-149036251D01*
X188987659Y-149033233D01*
X188857042Y-148915253D01*
X188857031Y-148915244D01*
X188856765Y-148915004D01*
X188729005Y-148825390D01*
X188609135Y-148764982D01*
X188493662Y-148726922D01*
X188379091Y-148704349D01*
X188261927Y-148690404D01*
X188138835Y-148678241D01*
X188138522Y-148678205D01*
X188006240Y-148661005D01*
X188005457Y-148660877D01*
X187980619Y-148655902D01*
X187860454Y-148631833D01*
X187859435Y-148631581D01*
X187705674Y-148586121D01*
X187698712Y-148580489D01*
X187697293Y-148575130D01*
X187677396Y-147557323D01*
X187680661Y-147548984D01*
X187689323Y-147545396D01*
X188707130Y-147565293D01*
G37*
%TD.AperFunction*%
%TD*%
%TA.AperFunction,Conductor*%
%TO.N,Net-(D1-Pad2)*%
G36*
X203396969Y-134353229D02*
G01*
X203396970Y-134353229D01*
X203831846Y-134361730D01*
X203855545Y-134436911D01*
X203872953Y-134504050D01*
X203886699Y-134564910D01*
X203899407Y-134621254D01*
X203913706Y-134674846D01*
X203917238Y-134684879D01*
X203917902Y-134686765D01*
X203932118Y-134727155D01*
X203932121Y-134727163D01*
X203932222Y-134727449D01*
X203957583Y-134780824D01*
X203957756Y-134781102D01*
X203957760Y-134781109D01*
X203992251Y-134836474D01*
X203992415Y-134836737D01*
X203992601Y-134836975D01*
X203992604Y-134836980D01*
X204039195Y-134896756D01*
X204039201Y-134896763D01*
X204039346Y-134896949D01*
X204053254Y-134911899D01*
X204093315Y-134954963D01*
X204096441Y-134963354D01*
X204093022Y-134971205D01*
X203932205Y-135132022D01*
X203923932Y-135135449D01*
X203915963Y-135132315D01*
X203885318Y-135103807D01*
X203857949Y-135078346D01*
X203857763Y-135078201D01*
X203857756Y-135078195D01*
X203797980Y-135031604D01*
X203797975Y-135031601D01*
X203797737Y-135031415D01*
X203797474Y-135031251D01*
X203742109Y-134996760D01*
X203742102Y-134996756D01*
X203741824Y-134996583D01*
X203688449Y-134971222D01*
X203688163Y-134971121D01*
X203688155Y-134971118D01*
X203636068Y-134952784D01*
X203636065Y-134952783D01*
X203635846Y-134952706D01*
X203582254Y-134938407D01*
X203525914Y-134925700D01*
X203525910Y-134925697D01*
X203525910Y-134925699D01*
X203465202Y-134911987D01*
X203464843Y-134911899D01*
X203398217Y-134894624D01*
X203397637Y-134894458D01*
X203330747Y-134873373D01*
X203323886Y-134867617D01*
X203322566Y-134862443D01*
X203320964Y-134780521D01*
X203319095Y-134684879D01*
X203316519Y-134553122D01*
X203312817Y-134363744D01*
X203316082Y-134355405D01*
X203324744Y-134351817D01*
X203396969Y-134353229D01*
G37*
%TD.AperFunction*%
%TD*%
%TA.AperFunction,Conductor*%
%TO.N,Net-(D1-Pad2)*%
G36*
X203635808Y-134136881D02*
G01*
X203690828Y-134165527D01*
X203698005Y-134169263D01*
X203698534Y-134169556D01*
X203757938Y-134204496D01*
X203758214Y-134204666D01*
X203810809Y-134237881D01*
X203810811Y-134237884D01*
X203810812Y-134237883D01*
X203859640Y-134268738D01*
X203907647Y-134296523D01*
X203907849Y-134296620D01*
X203907855Y-134296623D01*
X203938233Y-134311182D01*
X203957935Y-134320625D01*
X204013610Y-134340435D01*
X204013931Y-134340509D01*
X204013929Y-134340509D01*
X204077475Y-134355271D01*
X204077478Y-134355271D01*
X204077777Y-134355341D01*
X204078086Y-134355379D01*
X204078090Y-134355380D01*
X204122113Y-134360837D01*
X204153538Y-134364733D01*
X204200068Y-134366413D01*
X204232722Y-134367593D01*
X204240866Y-134371316D01*
X204244000Y-134379285D01*
X204244000Y-134606715D01*
X204240573Y-134614988D01*
X204232722Y-134618407D01*
X204209541Y-134619244D01*
X204153538Y-134621266D01*
X204122113Y-134625162D01*
X204078090Y-134630619D01*
X204078086Y-134630620D01*
X204077777Y-134630658D01*
X204077478Y-134630728D01*
X204077475Y-134630728D01*
X204039442Y-134639563D01*
X204013610Y-134645564D01*
X203957935Y-134665374D01*
X203957660Y-134665506D01*
X203919336Y-134683873D01*
X203919335Y-134683874D01*
X203907647Y-134689476D01*
X203859640Y-134717261D01*
X203810812Y-134748116D01*
X203758058Y-134781432D01*
X203698274Y-134816596D01*
X203628355Y-134853000D01*
X203262769Y-134501433D01*
X203259181Y-134493229D01*
X203262769Y-134484567D01*
X203312450Y-134436792D01*
X203312450Y-134436791D01*
X203433141Y-134320728D01*
X203622297Y-134138826D01*
X203630636Y-134135561D01*
X203635808Y-134136881D01*
G37*
%TD.AperFunction*%
%TD*%
%TA.AperFunction,Conductor*%
%TO.N,Net-(D1-Pad2)*%
G36*
X187135977Y-125132414D02*
G01*
X187387671Y-125347232D01*
X187515393Y-125456241D01*
X187519462Y-125464218D01*
X187516394Y-125473078D01*
X187177996Y-125839537D01*
X187169865Y-125843290D01*
X187164633Y-125842284D01*
X187097622Y-125812387D01*
X187097084Y-125812130D01*
X187033479Y-125779775D01*
X187033136Y-125779594D01*
X186976841Y-125748566D01*
X186976797Y-125748541D01*
X186924823Y-125719602D01*
X186924748Y-125719560D01*
X186873750Y-125693289D01*
X186820583Y-125670383D01*
X186820320Y-125670298D01*
X186762260Y-125651560D01*
X186762253Y-125651558D01*
X186761986Y-125651472D01*
X186732642Y-125645242D01*
X186694973Y-125637243D01*
X186694965Y-125637242D01*
X186694698Y-125637185D01*
X186694426Y-125637154D01*
X186694420Y-125637153D01*
X186637942Y-125630715D01*
X186615456Y-125628151D01*
X186615220Y-125628143D01*
X186615218Y-125628143D01*
X186532310Y-125625377D01*
X186524156Y-125621677D01*
X186521000Y-125613684D01*
X186521000Y-125386287D01*
X186524427Y-125378014D01*
X186532280Y-125374595D01*
X186554965Y-125373780D01*
X186611275Y-125371758D01*
X186611523Y-125371727D01*
X186611526Y-125371727D01*
X186661681Y-125365507D01*
X186686955Y-125362373D01*
X186687262Y-125362301D01*
X186687268Y-125362300D01*
X186750717Y-125347432D01*
X186750720Y-125347431D01*
X186751062Y-125347351D01*
X186806618Y-125327200D01*
X186856644Y-125302426D01*
X186904163Y-125273536D01*
X186952196Y-125241039D01*
X187003652Y-125205521D01*
X187003873Y-125205372D01*
X187023780Y-125192292D01*
X187061695Y-125167382D01*
X187062102Y-125167128D01*
X187122402Y-125131258D01*
X187131263Y-125129973D01*
X187135977Y-125132414D01*
G37*
%TD.AperFunction*%
%TD*%
%TA.AperFunction,Conductor*%
%TO.N,+3.3V*%
G36*
X198575633Y-133131272D02*
G01*
X198625555Y-133157849D01*
X198625680Y-133157908D01*
X198625698Y-133157917D01*
X198678236Y-133182681D01*
X198678244Y-133182685D01*
X198678417Y-133182766D01*
X198678600Y-133182838D01*
X198678606Y-133182841D01*
X198699526Y-133191119D01*
X198729033Y-133202794D01*
X198729231Y-133202856D01*
X198729243Y-133202860D01*
X198779055Y-133218389D01*
X198779267Y-133218455D01*
X198830983Y-133230272D01*
X198831174Y-133230301D01*
X198831187Y-133230304D01*
X198873234Y-133236792D01*
X198886043Y-133238768D01*
X198908098Y-133240853D01*
X198946181Y-133244454D01*
X198946196Y-133244455D01*
X198946312Y-133244466D01*
X198982387Y-133246300D01*
X199013545Y-133247884D01*
X199013573Y-133247885D01*
X199013652Y-133247889D01*
X199013746Y-133247891D01*
X199013773Y-133247892D01*
X199055274Y-133248800D01*
X199089927Y-133249559D01*
X199165359Y-133249941D01*
X199173615Y-133253410D01*
X199177000Y-133261641D01*
X199177000Y-133738326D01*
X199173573Y-133746599D01*
X199165327Y-133750026D01*
X199085046Y-133750202D01*
X199085012Y-133750202D01*
X199004808Y-133751147D01*
X199004795Y-133751147D01*
X199004740Y-133751148D01*
X198959218Y-133752560D01*
X198934052Y-133753341D01*
X198934034Y-133753342D01*
X198933964Y-133753344D01*
X198933898Y-133753348D01*
X198933879Y-133753349D01*
X198901987Y-133755339D01*
X198870601Y-133757298D01*
X198870467Y-133757312D01*
X198870447Y-133757314D01*
X198812700Y-133763499D01*
X198812689Y-133763501D01*
X198812535Y-133763517D01*
X198757648Y-133772509D01*
X198757489Y-133772545D01*
X198757480Y-133772547D01*
X198704008Y-133784739D01*
X198703824Y-133784781D01*
X198703656Y-133784830D01*
X198703645Y-133784833D01*
X198649101Y-133800794D01*
X198649090Y-133800798D01*
X198648945Y-133800840D01*
X198590896Y-133821193D01*
X198535005Y-133843392D01*
X198526052Y-133843261D01*
X198522110Y-133840475D01*
X198504260Y-133821234D01*
X198182600Y-133474524D01*
X198179485Y-133466129D01*
X198183561Y-133457685D01*
X198412179Y-133261641D01*
X198562522Y-133132719D01*
X198571033Y-133129935D01*
X198575633Y-133131272D01*
G37*
%TD.AperFunction*%
%TD*%
%TA.AperFunction,Conductor*%
%TO.N,Net-(J4-Pad6)*%
G36*
X207943630Y-149854043D02*
G01*
X208083386Y-149980067D01*
X208083659Y-149980313D01*
X208219880Y-150075278D01*
X208220272Y-150075473D01*
X208220277Y-150075476D01*
X208283500Y-150106926D01*
X208347754Y-150138890D01*
X208416677Y-150161064D01*
X208470650Y-150178428D01*
X208470655Y-150178429D01*
X208470993Y-150178538D01*
X208560751Y-150195471D01*
X208593090Y-150201572D01*
X208593093Y-150201573D01*
X208593308Y-150201613D01*
X208593512Y-150201636D01*
X208593521Y-150201637D01*
X208717890Y-150215449D01*
X208718411Y-150215507D01*
X208795020Y-150222552D01*
X208849827Y-150227592D01*
X208850205Y-150227633D01*
X208991428Y-150245260D01*
X208992241Y-150245391D01*
X209147043Y-150275898D01*
X209148087Y-150276154D01*
X209223152Y-150298267D01*
X209312726Y-150324654D01*
X209319693Y-150330278D01*
X209321117Y-150335645D01*
X209332892Y-150938015D01*
X209342282Y-151418355D01*
X209339017Y-151426694D01*
X209330355Y-151430282D01*
X209008851Y-151423997D01*
X208247646Y-151409117D01*
X208239443Y-151405529D01*
X208236653Y-151400725D01*
X208188154Y-151236087D01*
X208187898Y-151235043D01*
X208157391Y-151080241D01*
X208157260Y-151079428D01*
X208139633Y-150938205D01*
X208139592Y-150937827D01*
X208127507Y-150806411D01*
X208113637Y-150681521D01*
X208113636Y-150681512D01*
X208113613Y-150681308D01*
X208090538Y-150558993D01*
X208050890Y-150435754D01*
X207998420Y-150330278D01*
X207987476Y-150308277D01*
X207987473Y-150308272D01*
X207987278Y-150307880D01*
X207892313Y-150171659D01*
X207892067Y-150171386D01*
X207766043Y-150031630D01*
X207763048Y-150023191D01*
X207766459Y-150015522D01*
X207927522Y-149854459D01*
X207935795Y-149851032D01*
X207943630Y-149854043D01*
G37*
%TD.AperFunction*%
%TD*%
%TA.AperFunction,Conductor*%
%TO.N,Net-(J1-Pad2)*%
G36*
X199255034Y-146813102D02*
G01*
X199405744Y-146895224D01*
X199406663Y-146895781D01*
X199537713Y-146983682D01*
X199538357Y-146984149D01*
X199618073Y-147046172D01*
X199650688Y-147071548D01*
X199650984Y-147071786D01*
X199752455Y-147156167D01*
X199850741Y-147234804D01*
X199953548Y-147304978D01*
X200068726Y-147364085D01*
X200139846Y-147387953D01*
X200203721Y-147409390D01*
X200203724Y-147409391D01*
X200204127Y-147409526D01*
X200313165Y-147428983D01*
X200367241Y-147438633D01*
X200367245Y-147438633D01*
X200367601Y-147438697D01*
X200367969Y-147438716D01*
X200555904Y-147448427D01*
X200563989Y-147452276D01*
X200567000Y-147460111D01*
X200567000Y-147687889D01*
X200563573Y-147696162D01*
X200555904Y-147699573D01*
X200376259Y-147708855D01*
X200367601Y-147709302D01*
X200367245Y-147709366D01*
X200367241Y-147709366D01*
X200313165Y-147719016D01*
X200204127Y-147738473D01*
X200203724Y-147738608D01*
X200203721Y-147738609D01*
X200139846Y-147760046D01*
X200068726Y-147783914D01*
X199953548Y-147843021D01*
X199850741Y-147913195D01*
X199752455Y-147991832D01*
X199752417Y-147991864D01*
X199650984Y-148076213D01*
X199650688Y-148076451D01*
X199538357Y-148163850D01*
X199537713Y-148164317D01*
X199436073Y-148232491D01*
X199406663Y-148252218D01*
X199405744Y-148252775D01*
X199258413Y-148333057D01*
X199255034Y-148334898D01*
X199246130Y-148335847D01*
X199241326Y-148333057D01*
X198974487Y-148076451D01*
X198460769Y-147582433D01*
X198457181Y-147574229D01*
X198460769Y-147565567D01*
X198570431Y-147460111D01*
X199241326Y-146814943D01*
X199249665Y-146811678D01*
X199255034Y-146813102D01*
G37*
%TD.AperFunction*%
%TD*%
%TA.AperFunction,Conductor*%
%TO.N,+3.3V*%
G36*
X203906403Y-139469218D02*
G01*
X203910142Y-139472567D01*
X203944084Y-139519688D01*
X203979062Y-139568040D01*
X204011905Y-139612620D01*
X204044214Y-139655044D01*
X204077588Y-139696928D01*
X204077635Y-139696984D01*
X204077648Y-139697000D01*
X204113605Y-139739867D01*
X204113625Y-139739890D01*
X204153913Y-139785533D01*
X204153924Y-139785545D01*
X204200085Y-139835510D01*
X204253691Y-139891385D01*
X204253707Y-139891402D01*
X204308215Y-139946564D01*
X204311593Y-139954858D01*
X204308166Y-139963061D01*
X203971012Y-140300215D01*
X203962739Y-140303642D01*
X203954565Y-140300314D01*
X203954464Y-140300215D01*
X203917400Y-140264027D01*
X203875979Y-140226195D01*
X203837527Y-140194404D01*
X203834158Y-140191984D01*
X203801209Y-140168312D01*
X203801198Y-140168305D01*
X203800995Y-140168159D01*
X203765338Y-140146969D01*
X203761440Y-140145160D01*
X203729789Y-140130472D01*
X203729783Y-140130470D01*
X203729508Y-140130342D01*
X203692459Y-140117786D01*
X203692170Y-140117720D01*
X203692163Y-140117718D01*
X203667227Y-140112024D01*
X203653144Y-140108808D01*
X203652900Y-140108774D01*
X203652893Y-140108773D01*
X203610711Y-140102943D01*
X203610708Y-140102943D01*
X203610515Y-140102916D01*
X203581000Y-140100844D01*
X203580997Y-140100844D01*
X203563527Y-140099618D01*
X203404981Y-139605043D01*
X203741327Y-139511548D01*
X203897515Y-139468132D01*
X203906403Y-139469218D01*
G37*
%TD.AperFunction*%
%TD*%
%TA.AperFunction,Conductor*%
%TO.N,+3.3V*%
G36*
X203264483Y-139468131D02*
G01*
X203757019Y-139605043D01*
X203598473Y-140099618D01*
X203581003Y-140100844D01*
X203581000Y-140100844D01*
X203551484Y-140102916D01*
X203551291Y-140102943D01*
X203551288Y-140102943D01*
X203509106Y-140108773D01*
X203509099Y-140108774D01*
X203508855Y-140108808D01*
X203494772Y-140112024D01*
X203469836Y-140117718D01*
X203469829Y-140117720D01*
X203469540Y-140117786D01*
X203432491Y-140130342D01*
X203432216Y-140130470D01*
X203432210Y-140130472D01*
X203400559Y-140145160D01*
X203396661Y-140146969D01*
X203361004Y-140168159D01*
X203360801Y-140168305D01*
X203360790Y-140168312D01*
X203327841Y-140191984D01*
X203324472Y-140194404D01*
X203286020Y-140226195D01*
X203244599Y-140264027D01*
X203244547Y-140264078D01*
X203244534Y-140264090D01*
X203207435Y-140300313D01*
X203199121Y-140303641D01*
X203190988Y-140300215D01*
X202853834Y-139963061D01*
X202850407Y-139954788D01*
X202853785Y-139946564D01*
X202908292Y-139891402D01*
X202908308Y-139891385D01*
X202961914Y-139835510D01*
X203008075Y-139785545D01*
X203008086Y-139785533D01*
X203048374Y-139739890D01*
X203048394Y-139739867D01*
X203084351Y-139697000D01*
X203084364Y-139696984D01*
X203084411Y-139696928D01*
X203117785Y-139655044D01*
X203150094Y-139612620D01*
X203182937Y-139568040D01*
X203217915Y-139519688D01*
X203251859Y-139472565D01*
X203259474Y-139467856D01*
X203264483Y-139468131D01*
G37*
%TD.AperFunction*%
%TD*%
%TA.AperFunction,Conductor*%
%TO.N,GND*%
G36*
X187122321Y-123129523D02*
G01*
X187506511Y-123448294D01*
X187510690Y-123456214D01*
X187507745Y-123465115D01*
X187174226Y-123836527D01*
X187166149Y-123840393D01*
X187161372Y-123839650D01*
X187153137Y-123836527D01*
X187104989Y-123818268D01*
X187077786Y-123809155D01*
X187046694Y-123798739D01*
X187046532Y-123798685D01*
X186991358Y-123783251D01*
X186961633Y-123776772D01*
X186937490Y-123771509D01*
X186937477Y-123771507D01*
X186937323Y-123771473D01*
X186937158Y-123771447D01*
X186937141Y-123771444D01*
X186882459Y-123762886D01*
X186882456Y-123762886D01*
X186882286Y-123762859D01*
X186824106Y-123756916D01*
X186760640Y-123753151D01*
X186689746Y-123751072D01*
X186689659Y-123751071D01*
X186689657Y-123751071D01*
X186609283Y-123750185D01*
X186608912Y-123750184D01*
X186528786Y-123750023D01*
X186520520Y-123746579D01*
X186517110Y-123738323D01*
X186517110Y-123261635D01*
X186520537Y-123253362D01*
X186528744Y-123249935D01*
X186573511Y-123249683D01*
X186603006Y-123249517D01*
X186603047Y-123249516D01*
X186603049Y-123249516D01*
X186678217Y-123247727D01*
X186678237Y-123247726D01*
X186678282Y-123247725D01*
X186744753Y-123244109D01*
X186744853Y-123244099D01*
X186744866Y-123244098D01*
X186804067Y-123238170D01*
X186804066Y-123238170D01*
X186804237Y-123238153D01*
X186804400Y-123238127D01*
X186804412Y-123238125D01*
X186838371Y-123232616D01*
X186858552Y-123229342D01*
X186884466Y-123223148D01*
X186909281Y-123217217D01*
X186909294Y-123217213D01*
X186909513Y-123217161D01*
X186958940Y-123201094D01*
X186985705Y-123190073D01*
X187008473Y-123180698D01*
X187008482Y-123180694D01*
X187008647Y-123180626D01*
X187008807Y-123180548D01*
X187008815Y-123180544D01*
X187060356Y-123155289D01*
X187060355Y-123155289D01*
X187060454Y-123155241D01*
X187109190Y-123128289D01*
X187118088Y-123127284D01*
X187122321Y-123129523D01*
G37*
%TD.AperFunction*%
%TD*%
%TA.AperFunction,Conductor*%
%TO.N,+3.3V*%
G36*
X198429072Y-123143106D02*
G01*
X198456694Y-123155971D01*
X198480614Y-123167112D01*
X198480628Y-123167118D01*
X198480735Y-123167168D01*
X198480841Y-123167212D01*
X198480857Y-123167219D01*
X198508693Y-123178760D01*
X198535033Y-123189682D01*
X198586663Y-123207746D01*
X198586844Y-123207796D01*
X198586850Y-123207798D01*
X198609132Y-123213966D01*
X198637578Y-123221841D01*
X198689733Y-123232449D01*
X198716758Y-123236160D01*
X198744919Y-123240027D01*
X198744934Y-123240029D01*
X198745082Y-123240049D01*
X198745225Y-123240061D01*
X198745243Y-123240063D01*
X198805469Y-123245115D01*
X198805476Y-123245115D01*
X198805578Y-123245124D01*
X198873177Y-123248153D01*
X198949832Y-123249618D01*
X199025850Y-123249949D01*
X199034107Y-123253412D01*
X199037498Y-123261649D01*
X199037498Y-123738350D01*
X199034071Y-123746623D01*
X199025848Y-123750050D01*
X198949722Y-123750376D01*
X198949720Y-123750376D01*
X198873027Y-123751826D01*
X198873023Y-123751826D01*
X198872977Y-123751827D01*
X198805301Y-123754831D01*
X198805168Y-123754842D01*
X198805169Y-123754842D01*
X198744874Y-123759858D01*
X198744861Y-123759859D01*
X198744734Y-123759870D01*
X198744597Y-123759889D01*
X198744594Y-123759889D01*
X198689491Y-123767400D01*
X198689479Y-123767402D01*
X198689318Y-123767424D01*
X198689139Y-123767460D01*
X198689140Y-123767460D01*
X198637310Y-123777929D01*
X198637305Y-123777930D01*
X198637093Y-123777973D01*
X198586097Y-123791997D01*
X198585920Y-123792058D01*
X198585912Y-123792061D01*
X198567157Y-123798580D01*
X198534372Y-123809976D01*
X198501277Y-123823610D01*
X198480092Y-123832337D01*
X198480084Y-123832340D01*
X198479959Y-123832392D01*
X198479823Y-123832455D01*
X198428165Y-123856360D01*
X198419217Y-123856725D01*
X198415130Y-123854165D01*
X198055760Y-123507691D01*
X198052183Y-123499482D01*
X198055782Y-123490824D01*
X198294704Y-123261649D01*
X198416035Y-123145268D01*
X198424378Y-123142015D01*
X198429072Y-123143106D01*
G37*
%TD.AperFunction*%
%TD*%
%TA.AperFunction,Conductor*%
%TO.N,Net-(J10-Pad1)*%
G36*
X205794022Y-130077701D02*
G01*
X205854882Y-130079026D01*
X205855447Y-130079052D01*
X205928132Y-130084157D01*
X206010688Y-130089956D01*
X206011264Y-130090011D01*
X206054996Y-130095307D01*
X206143894Y-130106073D01*
X206144414Y-130106148D01*
X206224643Y-130119544D01*
X206261282Y-130125661D01*
X206261602Y-130125720D01*
X206369555Y-130146990D01*
X206369599Y-130147020D01*
X206369603Y-130147000D01*
X206475395Y-130168312D01*
X206475483Y-130168328D01*
X206554907Y-130182444D01*
X206585573Y-130187895D01*
X206585674Y-130187908D01*
X206585684Y-130187910D01*
X206706751Y-130204005D01*
X206706756Y-130204006D01*
X206706895Y-130204024D01*
X206846118Y-130214968D01*
X207001195Y-130218783D01*
X207009380Y-130222412D01*
X207012226Y-130227522D01*
X207306613Y-131354563D01*
X207305388Y-131363434D01*
X207298250Y-131368840D01*
X207295065Y-131369218D01*
X206215807Y-131348120D01*
X206207604Y-131344532D01*
X206204758Y-131339529D01*
X206167125Y-131202824D01*
X206166868Y-131201664D01*
X206142463Y-131056906D01*
X206142373Y-131056269D01*
X206126436Y-130914553D01*
X206126429Y-130914484D01*
X206112102Y-130779928D01*
X206112085Y-130779767D01*
X206092390Y-130655828D01*
X206060384Y-130546342D01*
X206009103Y-130454911D01*
X205931581Y-130385141D01*
X205820852Y-130340636D01*
X205782134Y-130336624D01*
X205680446Y-130326087D01*
X205672570Y-130321825D01*
X205669952Y-130314449D01*
X205669952Y-130086957D01*
X205673379Y-130078684D01*
X205681906Y-130075260D01*
X205794022Y-130077701D01*
G37*
%TD.AperFunction*%
%TD*%
%TA.AperFunction,Conductor*%
%TO.N,Net-(J10-Pad2)*%
G36*
X207303403Y-128232047D02*
G01*
X207306991Y-128240251D01*
X207306613Y-128243437D01*
X207182360Y-128719133D01*
X207028633Y-129307667D01*
X207012184Y-129370639D01*
X207006778Y-129377777D01*
X207001367Y-129379371D01*
X206903639Y-129383574D01*
X206849819Y-129385888D01*
X206849546Y-129385926D01*
X206849543Y-129385926D01*
X206714819Y-129404547D01*
X206714817Y-129404547D01*
X206714552Y-129404584D01*
X206714288Y-129404646D01*
X206714283Y-129404647D01*
X206639797Y-129422163D01*
X206597389Y-129432136D01*
X206491520Y-129465592D01*
X206390138Y-129502000D01*
X206286699Y-129538314D01*
X206286162Y-129538488D01*
X206224364Y-129556810D01*
X206174033Y-129571733D01*
X206173155Y-129571957D01*
X206045322Y-129599308D01*
X206044309Y-129599479D01*
X205893777Y-129618052D01*
X205892805Y-129618130D01*
X205742250Y-129623857D01*
X205724347Y-129624538D01*
X205715949Y-129621428D01*
X205712202Y-129612846D01*
X205712202Y-129385468D01*
X205715629Y-129377195D01*
X205722605Y-129373840D01*
X205869671Y-129357437D01*
X205869673Y-129357436D01*
X205870573Y-129357336D01*
X205982544Y-129307196D01*
X205983334Y-129306358D01*
X205983336Y-129306357D01*
X206055739Y-129229599D01*
X206056441Y-129228855D01*
X206100589Y-129126591D01*
X206100709Y-129125950D01*
X206100710Y-129125945D01*
X206123256Y-129005006D01*
X206123256Y-129005003D01*
X206123317Y-129004678D01*
X206132950Y-128867392D01*
X206137812Y-128719133D01*
X206137823Y-128718882D01*
X206146218Y-128564235D01*
X206146297Y-128563375D01*
X206166458Y-128406796D01*
X206166738Y-128405349D01*
X206204846Y-128258635D01*
X206210242Y-128251489D01*
X206215941Y-128249878D01*
X206941586Y-128235692D01*
X207295064Y-128228782D01*
X207303403Y-128232047D01*
G37*
%TD.AperFunction*%
%TD*%
%TA.AperFunction,Conductor*%
%TO.N,+3.3V*%
G36*
X205369595Y-143753082D02*
G01*
X205373183Y-143761744D01*
X205370390Y-143904639D01*
X205364409Y-144210620D01*
X205363427Y-144260839D01*
X205359839Y-144269043D01*
X205355751Y-144271597D01*
X205302236Y-144291174D01*
X205247955Y-144313701D01*
X205247824Y-144313764D01*
X205247811Y-144313770D01*
X205224085Y-144325222D01*
X205198703Y-144337472D01*
X205198542Y-144337563D01*
X205198533Y-144337568D01*
X205152931Y-144363434D01*
X205152760Y-144363531D01*
X205152605Y-144363634D01*
X205152598Y-144363638D01*
X205108558Y-144392819D01*
X205108403Y-144392922D01*
X205063912Y-144426688D01*
X205063824Y-144426763D01*
X205063812Y-144426772D01*
X205041265Y-144445835D01*
X205017564Y-144465874D01*
X204967637Y-144511523D01*
X204912411Y-144564680D01*
X204858435Y-144618189D01*
X204850148Y-144621580D01*
X204841926Y-144618153D01*
X204504847Y-144281074D01*
X204501420Y-144272801D01*
X204504811Y-144264564D01*
X204558287Y-144210620D01*
X204558319Y-144210588D01*
X204611476Y-144155362D01*
X204657125Y-144105435D01*
X204677164Y-144081734D01*
X204696227Y-144059187D01*
X204696236Y-144059175D01*
X204696311Y-144059087D01*
X204730077Y-144014596D01*
X204759468Y-143970239D01*
X204785527Y-143924296D01*
X204797777Y-143898914D01*
X204809229Y-143875188D01*
X204809235Y-143875175D01*
X204809298Y-143875044D01*
X204831825Y-143820763D01*
X204851403Y-143767250D01*
X204857463Y-143760659D01*
X204862159Y-143759574D01*
X205218361Y-143752610D01*
X205361256Y-143749817D01*
X205369595Y-143753082D01*
G37*
%TD.AperFunction*%
%TD*%
%TA.AperFunction,Conductor*%
%TO.N,GND*%
G36*
X209335403Y-137112047D02*
G01*
X209338991Y-137120251D01*
X209338613Y-137123437D01*
X209295403Y-137288864D01*
X209073524Y-138138315D01*
X209044170Y-138250693D01*
X209038764Y-138257831D01*
X209033426Y-138259422D01*
X208953226Y-138263374D01*
X208882871Y-138266840D01*
X208796278Y-138280591D01*
X208749175Y-138288071D01*
X208749171Y-138288072D01*
X208748868Y-138288120D01*
X208748576Y-138288199D01*
X208748572Y-138288200D01*
X208745620Y-138289000D01*
X208633133Y-138319480D01*
X208632918Y-138319558D01*
X208632910Y-138319561D01*
X208559574Y-138346329D01*
X208528805Y-138357560D01*
X208429112Y-138398964D01*
X208429024Y-138399000D01*
X208327241Y-138440315D01*
X208326630Y-138440544D01*
X208216156Y-138478354D01*
X208215166Y-138478644D01*
X208088958Y-138509739D01*
X208087803Y-138509963D01*
X207938767Y-138531081D01*
X207937652Y-138531184D01*
X207770494Y-138538468D01*
X207762080Y-138535404D01*
X207758285Y-138526779D01*
X207758285Y-138299444D01*
X207761712Y-138291171D01*
X207768662Y-138287819D01*
X207918357Y-138270780D01*
X207919288Y-138270674D01*
X207962513Y-138250693D01*
X208030660Y-138219192D01*
X208030662Y-138219191D01*
X208031745Y-138218690D01*
X208032541Y-138217801D01*
X208032543Y-138217800D01*
X208103756Y-138138315D01*
X208103757Y-138138314D01*
X208104451Y-138137539D01*
X208104832Y-138136574D01*
X208104833Y-138136572D01*
X208145963Y-138032313D01*
X208146200Y-138031713D01*
X208165785Y-137905701D01*
X208172003Y-137763995D01*
X208173645Y-137611221D01*
X208173651Y-137610942D01*
X208179492Y-137451930D01*
X208179563Y-137451003D01*
X208198297Y-137290399D01*
X208198580Y-137288872D01*
X208236875Y-137138684D01*
X208242240Y-137131514D01*
X208247983Y-137129877D01*
X208740386Y-137120251D01*
X209327064Y-137108782D01*
X209335403Y-137112047D01*
G37*
%TD.AperFunction*%
%TD*%
%TA.AperFunction,Conductor*%
%TO.N,Net-(J4-Pad4)*%
G36*
X204338099Y-149469427D02*
G01*
X204341514Y-149477161D01*
X204351093Y-149685266D01*
X204378938Y-149867017D01*
X204420883Y-150019868D01*
X204473279Y-150152433D01*
X204473380Y-150152640D01*
X204473383Y-150152646D01*
X204483801Y-150173922D01*
X204532473Y-150273325D01*
X204532514Y-150273402D01*
X204594763Y-150391060D01*
X204594881Y-150391290D01*
X204656474Y-150514189D01*
X204656804Y-150514906D01*
X204714123Y-150651594D01*
X204714505Y-150652644D01*
X204764034Y-150811866D01*
X204764334Y-150813042D01*
X204800950Y-150995769D01*
X204799215Y-151004554D01*
X204795114Y-151008321D01*
X203846066Y-151529848D01*
X203837166Y-151530829D01*
X203829966Y-151524824D01*
X203571884Y-151008322D01*
X203345896Y-150556052D01*
X203345263Y-150547119D01*
X203348162Y-150542476D01*
X203459367Y-150433220D01*
X203459963Y-150432674D01*
X203572439Y-150336494D01*
X203572789Y-150336206D01*
X203679150Y-150252165D01*
X203777424Y-150173922D01*
X203777542Y-150173816D01*
X203777551Y-150173809D01*
X203865351Y-150095356D01*
X203865605Y-150095129D01*
X203941862Y-150009303D01*
X204004362Y-149909962D01*
X204051272Y-149790619D01*
X204080762Y-149644793D01*
X204090368Y-149477030D01*
X204094262Y-149468967D01*
X204102049Y-149466000D01*
X204329826Y-149466000D01*
X204338099Y-149469427D01*
G37*
%TD.AperFunction*%
%TD*%
%TA.AperFunction,Conductor*%
%TO.N,/GPIO4*%
G36*
X187537418Y-131217552D02*
G01*
X187897231Y-131563567D01*
X187900819Y-131571771D01*
X187897231Y-131580433D01*
X187537418Y-131926448D01*
X187529079Y-131929713D01*
X187524381Y-131928627D01*
X187504962Y-131919611D01*
X187472699Y-131904631D01*
X187418386Y-131882177D01*
X187366751Y-131864160D01*
X187366596Y-131864117D01*
X187366589Y-131864115D01*
X187349058Y-131859274D01*
X187315838Y-131850099D01*
X187308859Y-131848683D01*
X187263874Y-131839554D01*
X187263870Y-131839553D01*
X187263691Y-131839517D01*
X187208354Y-131831933D01*
X187208192Y-131831919D01*
X187208188Y-131831919D01*
X187147992Y-131826878D01*
X187147994Y-131826878D01*
X187147873Y-131826868D01*
X187080290Y-131823844D01*
X187003651Y-131822381D01*
X186927648Y-131822051D01*
X186919391Y-131818588D01*
X186916000Y-131810351D01*
X186916000Y-131333649D01*
X186919427Y-131325376D01*
X186927648Y-131321949D01*
X187003651Y-131321618D01*
X187080290Y-131320155D01*
X187147873Y-131317131D01*
X187163568Y-131315817D01*
X187208188Y-131312080D01*
X187208192Y-131312080D01*
X187208354Y-131312066D01*
X187263691Y-131304482D01*
X187263870Y-131304446D01*
X187263874Y-131304445D01*
X187315626Y-131293943D01*
X187315625Y-131293943D01*
X187315838Y-131293900D01*
X187349058Y-131284725D01*
X187366589Y-131279884D01*
X187366596Y-131279882D01*
X187366751Y-131279839D01*
X187418386Y-131261822D01*
X187472699Y-131239368D01*
X187472839Y-131239303D01*
X187524381Y-131215373D01*
X187533328Y-131214997D01*
X187537418Y-131217552D01*
G37*
%TD.AperFunction*%
%TD*%
%TA.AperFunction,Conductor*%
%TO.N,GND*%
G36*
X170888229Y-143542591D02*
G01*
X171194637Y-143817470D01*
X171259824Y-143875950D01*
X171263694Y-143884025D01*
X171260408Y-143892806D01*
X170912793Y-144251075D01*
X170904573Y-144254627D01*
X170899843Y-144253705D01*
X170845027Y-144230538D01*
X170787907Y-144209202D01*
X170787747Y-144209152D01*
X170733964Y-144192357D01*
X170733948Y-144192353D01*
X170733786Y-144192302D01*
X170680593Y-144179322D01*
X170680419Y-144179291D01*
X170680408Y-144179289D01*
X170626407Y-144169775D01*
X170626405Y-144169775D01*
X170626259Y-144169749D01*
X170626104Y-144169731D01*
X170568844Y-144163084D01*
X170568835Y-144163083D01*
X170568713Y-144163069D01*
X170568602Y-144163061D01*
X170568587Y-144163060D01*
X170505977Y-144158774D01*
X170505963Y-144158773D01*
X170505885Y-144158768D01*
X170469455Y-144157504D01*
X170435802Y-144156335D01*
X170435771Y-144156334D01*
X170435703Y-144156332D01*
X170356098Y-144155247D01*
X170276667Y-144155032D01*
X170268404Y-144151583D01*
X170265000Y-144143332D01*
X170265000Y-143666648D01*
X170268427Y-143658375D01*
X170276648Y-143654948D01*
X170353133Y-143654607D01*
X170430289Y-143653080D01*
X170498384Y-143649895D01*
X170559333Y-143644530D01*
X170570386Y-143642929D01*
X170614834Y-143636493D01*
X170614846Y-143636491D01*
X170615052Y-143636461D01*
X170615265Y-143636415D01*
X170615271Y-143636414D01*
X170645864Y-143629820D01*
X170667459Y-143625166D01*
X170718469Y-143610121D01*
X170718669Y-143610046D01*
X170718678Y-143610043D01*
X170769807Y-143590874D01*
X170769818Y-143590870D01*
X170769998Y-143590802D01*
X170778865Y-143586840D01*
X170823811Y-143566757D01*
X170823832Y-143566747D01*
X170823964Y-143566688D01*
X170875146Y-143540856D01*
X170884076Y-143540188D01*
X170888229Y-143542591D01*
G37*
%TD.AperFunction*%
%TD*%
%TA.AperFunction,Conductor*%
%TO.N,+3.3V*%
G36*
X162471060Y-144613550D02*
G01*
X163205231Y-145319567D01*
X163208819Y-145327771D01*
X163205231Y-145336433D01*
X162471060Y-146042450D01*
X162462721Y-146045715D01*
X162458027Y-146044631D01*
X162346584Y-145992936D01*
X162346582Y-145992935D01*
X162346461Y-145992879D01*
X162346344Y-145992831D01*
X162346324Y-145992822D01*
X162237103Y-145947810D01*
X162237098Y-145947808D01*
X162236957Y-145947750D01*
X162132840Y-145911626D01*
X162030170Y-145883519D01*
X161991236Y-145875716D01*
X161925181Y-145862478D01*
X161925168Y-145862476D01*
X161925009Y-145862444D01*
X161902290Y-145859384D01*
X161813594Y-145847436D01*
X161813578Y-145847434D01*
X161813420Y-145847413D01*
X161813254Y-145847399D01*
X161813250Y-145847399D01*
X161691566Y-145837447D01*
X161691462Y-145837439D01*
X161691384Y-145837436D01*
X161691358Y-145837434D01*
X161611973Y-145833996D01*
X161555198Y-145831537D01*
X161555173Y-145831537D01*
X161555159Y-145831536D01*
X161400713Y-145828719D01*
X161400690Y-145828719D01*
X161377104Y-145828623D01*
X161235652Y-145828047D01*
X161227393Y-145824586D01*
X161224000Y-145816347D01*
X161224000Y-144839653D01*
X161227427Y-144831380D01*
X161235652Y-144827953D01*
X161379903Y-144827365D01*
X161400690Y-144827280D01*
X161400713Y-144827280D01*
X161555159Y-144824463D01*
X161555173Y-144824462D01*
X161555198Y-144824462D01*
X161611973Y-144822003D01*
X161691358Y-144818565D01*
X161691384Y-144818563D01*
X161691462Y-144818560D01*
X161691566Y-144818552D01*
X161813250Y-144808600D01*
X161813254Y-144808600D01*
X161813420Y-144808586D01*
X161813578Y-144808565D01*
X161813594Y-144808563D01*
X161902290Y-144796615D01*
X161925009Y-144793555D01*
X161925168Y-144793523D01*
X161925181Y-144793521D01*
X161991236Y-144780283D01*
X162030170Y-144772480D01*
X162132840Y-144744373D01*
X162236957Y-144708249D01*
X162237103Y-144708189D01*
X162346324Y-144663177D01*
X162346344Y-144663168D01*
X162346461Y-144663120D01*
X162346584Y-144663063D01*
X162458027Y-144611369D01*
X162466974Y-144610997D01*
X162471060Y-144613550D01*
G37*
%TD.AperFunction*%
%TD*%
%TA.AperFunction,Conductor*%
%TO.N,+3.3V*%
G36*
X155757985Y-148795387D02*
G01*
X156448613Y-149486015D01*
X156452040Y-149494288D01*
X156448648Y-149502525D01*
X156332421Y-149619702D01*
X156225160Y-149730948D01*
X156132981Y-149831474D01*
X156132908Y-149831560D01*
X156132900Y-149831569D01*
X156053886Y-149924656D01*
X156053871Y-149924674D01*
X156053796Y-149924763D01*
X155985519Y-150014297D01*
X155926062Y-150103560D01*
X155873338Y-150196033D01*
X155825260Y-150295198D01*
X155779740Y-150404540D01*
X155779695Y-150404664D01*
X155737446Y-150520022D01*
X155731383Y-150526612D01*
X155726689Y-150527696D01*
X154708323Y-150547604D01*
X154699984Y-150544339D01*
X154696396Y-150535677D01*
X154716304Y-149517311D01*
X154719892Y-149509107D01*
X154723978Y-149506554D01*
X154783633Y-149484705D01*
X154839459Y-149464259D01*
X154948801Y-149418739D01*
X154970435Y-149408250D01*
X155047779Y-149370752D01*
X155047787Y-149370748D01*
X155047966Y-149370661D01*
X155048147Y-149370558D01*
X155140273Y-149318032D01*
X155140281Y-149318027D01*
X155140439Y-149317937D01*
X155229702Y-149258480D01*
X155229827Y-149258385D01*
X155229835Y-149258379D01*
X155319134Y-149190281D01*
X155319139Y-149190277D01*
X155319236Y-149190203D01*
X155319325Y-149190128D01*
X155319343Y-149190113D01*
X155412430Y-149111099D01*
X155412439Y-149111091D01*
X155412525Y-149111018D01*
X155513051Y-149018839D01*
X155624297Y-148911578D01*
X155741474Y-148795352D01*
X155749760Y-148791960D01*
X155757985Y-148795387D01*
G37*
%TD.AperFunction*%
%TD*%
%TA.AperFunction,Conductor*%
%TO.N,+5V*%
G36*
X147883985Y-148795387D02*
G01*
X148574613Y-149486015D01*
X148578040Y-149494288D01*
X148574648Y-149502525D01*
X148458421Y-149619702D01*
X148351160Y-149730948D01*
X148258981Y-149831474D01*
X148258908Y-149831560D01*
X148258900Y-149831569D01*
X148179886Y-149924656D01*
X148179871Y-149924674D01*
X148179796Y-149924763D01*
X148111519Y-150014297D01*
X148052062Y-150103560D01*
X147999338Y-150196033D01*
X147951260Y-150295198D01*
X147905740Y-150404540D01*
X147905695Y-150404664D01*
X147863446Y-150520022D01*
X147857383Y-150526612D01*
X147852689Y-150527696D01*
X146834323Y-150547604D01*
X146825984Y-150544339D01*
X146822396Y-150535677D01*
X146842304Y-149517311D01*
X146845892Y-149509107D01*
X146849978Y-149506554D01*
X146909633Y-149484705D01*
X146965459Y-149464259D01*
X147074801Y-149418739D01*
X147096435Y-149408250D01*
X147173779Y-149370752D01*
X147173787Y-149370748D01*
X147173966Y-149370661D01*
X147174147Y-149370558D01*
X147266273Y-149318032D01*
X147266281Y-149318027D01*
X147266439Y-149317937D01*
X147355702Y-149258480D01*
X147355827Y-149258385D01*
X147355835Y-149258379D01*
X147445134Y-149190281D01*
X147445139Y-149190277D01*
X147445236Y-149190203D01*
X147445325Y-149190128D01*
X147445343Y-149190113D01*
X147538430Y-149111099D01*
X147538439Y-149111091D01*
X147538525Y-149111018D01*
X147639051Y-149018839D01*
X147750297Y-148911578D01*
X147867474Y-148795352D01*
X147875760Y-148791960D01*
X147883985Y-148795387D01*
G37*
%TD.AperFunction*%
%TD*%
%TA.AperFunction,Conductor*%
%TO.N,GND*%
G36*
X152532665Y-135575503D02*
G01*
X152684539Y-135943534D01*
X152826961Y-136288658D01*
X152871791Y-136397294D01*
X152871779Y-136406249D01*
X152869345Y-136409934D01*
X152817327Y-136463174D01*
X152770052Y-136524363D01*
X152731944Y-136589217D01*
X152731802Y-136589547D01*
X152731799Y-136589554D01*
X152714874Y-136629029D01*
X152702040Y-136658963D01*
X152679378Y-136734831D01*
X152662995Y-136818049D01*
X152651928Y-136909847D01*
X152645215Y-137011452D01*
X152645213Y-137011522D01*
X152645212Y-137011542D01*
X152643629Y-137065237D01*
X152641893Y-137124093D01*
X152641893Y-137124150D01*
X152641083Y-137237384D01*
X152637597Y-137245632D01*
X152629383Y-137249000D01*
X151652866Y-137249000D01*
X151644593Y-137245573D01*
X151641167Y-137237136D01*
X151643584Y-137065237D01*
X151643594Y-137064905D01*
X151650459Y-136903145D01*
X151650475Y-136902842D01*
X151660322Y-136758950D01*
X151660338Y-136758750D01*
X151662438Y-136735108D01*
X151671845Y-136629153D01*
X151683706Y-136510035D01*
X151694593Y-136397815D01*
X151703188Y-136288774D01*
X151708175Y-136179193D01*
X151708234Y-136065353D01*
X151702453Y-135951452D01*
X151705456Y-135943016D01*
X151709256Y-135940226D01*
X152516968Y-135569333D01*
X152525916Y-135568995D01*
X152532665Y-135575503D01*
G37*
%TD.AperFunction*%
%TD*%
%TA.AperFunction,Conductor*%
%TO.N,Net-(C3-Pad1)*%
G36*
X138965923Y-141343634D02*
G01*
X138966899Y-141344507D01*
X139657408Y-142035016D01*
X139660835Y-142043289D01*
X139658334Y-142050519D01*
X139590558Y-142136754D01*
X139556905Y-142227170D01*
X139557164Y-142314439D01*
X139584710Y-142399395D01*
X139632917Y-142482872D01*
X139695161Y-142565706D01*
X139695260Y-142565825D01*
X139695264Y-142565829D01*
X139764812Y-142648725D01*
X139764816Y-142648730D01*
X139835056Y-142732537D01*
X139835440Y-142733020D01*
X139899461Y-142818156D01*
X139900194Y-142819254D01*
X139947500Y-142899642D01*
X139948742Y-142908510D01*
X139945850Y-142913684D01*
X139244827Y-143642662D01*
X139242715Y-143644858D01*
X139234511Y-143648446D01*
X139226172Y-143645181D01*
X139224187Y-143642662D01*
X138670203Y-142696952D01*
X138668978Y-142688081D01*
X138670867Y-142684114D01*
X138748011Y-142579035D01*
X138748012Y-142579034D01*
X138748565Y-142578280D01*
X138787563Y-142458438D01*
X138795102Y-142331760D01*
X138782975Y-142199219D01*
X138762999Y-142061954D01*
X138762954Y-142061603D01*
X138760765Y-142042357D01*
X138746968Y-141921071D01*
X138746893Y-141919786D01*
X138746532Y-141777224D01*
X138746728Y-141775060D01*
X138773412Y-141631240D01*
X138774251Y-141628563D01*
X138839506Y-141483907D01*
X138841025Y-141481421D01*
X138949480Y-141345483D01*
X138957319Y-141341153D01*
X138965923Y-141343634D01*
G37*
%TD.AperFunction*%
%TD*%
%TA.AperFunction,Conductor*%
%TO.N,Net-(C3-Pad1)*%
G36*
X142297916Y-139719236D02*
G01*
X142297873Y-139721443D01*
X142295515Y-139842052D01*
X142291927Y-139850256D01*
X142287715Y-139852855D01*
X142147903Y-139902252D01*
X142147884Y-139902259D01*
X142147870Y-139902264D01*
X142147827Y-139902280D01*
X142147814Y-139902285D01*
X142017254Y-139951416D01*
X142017234Y-139951424D01*
X142017133Y-139951462D01*
X142017016Y-139951511D01*
X142017001Y-139951517D01*
X141899246Y-140000843D01*
X141899236Y-140000848D01*
X141899094Y-140000907D01*
X141789698Y-140053758D01*
X141684891Y-140113173D01*
X141580621Y-140182312D01*
X141472834Y-140264333D01*
X141357476Y-140362394D01*
X141357403Y-140362461D01*
X141357391Y-140362472D01*
X141301572Y-140414017D01*
X141230493Y-140479655D01*
X141230470Y-140479678D01*
X141230462Y-140479685D01*
X141096105Y-140611178D01*
X141087795Y-140614515D01*
X141079648Y-140611089D01*
X140388910Y-139920351D01*
X140385483Y-139912078D01*
X140388820Y-139903897D01*
X140520344Y-139769506D01*
X140637605Y-139642523D01*
X140735666Y-139527165D01*
X140817687Y-139419378D01*
X140886826Y-139315108D01*
X140946241Y-139210301D01*
X140999092Y-139100905D01*
X141048537Y-138982866D01*
X141097735Y-138852129D01*
X141147145Y-138712285D01*
X141153133Y-138705626D01*
X141157948Y-138704485D01*
X141682752Y-138694225D01*
X141871812Y-138690529D01*
X142318198Y-138681802D01*
X142297916Y-139719236D01*
G37*
%TD.AperFunction*%
%TD*%
%TA.AperFunction,Conductor*%
%TO.N,Net-(C3-Pad1)*%
G36*
X142399612Y-138193494D02*
G01*
X142533370Y-138257410D01*
X142533407Y-138257427D01*
X142533436Y-138257441D01*
X142533478Y-138257460D01*
X142533506Y-138257473D01*
X142643451Y-138307295D01*
X142660669Y-138315098D01*
X142779099Y-138363601D01*
X142893825Y-138403585D01*
X142894010Y-138403636D01*
X142894016Y-138403638D01*
X143009739Y-138435624D01*
X143009752Y-138435627D01*
X143009947Y-138435681D01*
X143010145Y-138435721D01*
X143010157Y-138435724D01*
X143132391Y-138460488D01*
X143132404Y-138460490D01*
X143132566Y-138460523D01*
X143266781Y-138478743D01*
X143404092Y-138489872D01*
X143417567Y-138490964D01*
X143417569Y-138490964D01*
X143417691Y-138490974D01*
X143417812Y-138490979D01*
X143417815Y-138490979D01*
X143456858Y-138492533D01*
X143590397Y-138497849D01*
X143778427Y-138499875D01*
X143786662Y-138503390D01*
X143790000Y-138511574D01*
X143790000Y-139488426D01*
X143786573Y-139496699D01*
X143778427Y-139500125D01*
X143590397Y-139502150D01*
X143456858Y-139507466D01*
X143417815Y-139509020D01*
X143417812Y-139509020D01*
X143417691Y-139509025D01*
X143417569Y-139509035D01*
X143417567Y-139509035D01*
X143404092Y-139510127D01*
X143266781Y-139521256D01*
X143132566Y-139539476D01*
X143132404Y-139539509D01*
X143132391Y-139539511D01*
X143010157Y-139564275D01*
X143010145Y-139564278D01*
X143009947Y-139564318D01*
X143009752Y-139564372D01*
X143009739Y-139564375D01*
X142894016Y-139596361D01*
X142894010Y-139596363D01*
X142893825Y-139596414D01*
X142779099Y-139636398D01*
X142660669Y-139684901D01*
X142533436Y-139742558D01*
X142399612Y-139806506D01*
X142390670Y-139806981D01*
X142386458Y-139804382D01*
X142299595Y-139720850D01*
X141550000Y-139000000D01*
X142110990Y-138460523D01*
X142386458Y-138195618D01*
X142394797Y-138192353D01*
X142399612Y-138193494D01*
G37*
%TD.AperFunction*%
%TD*%
%TA.AperFunction,Conductor*%
%TO.N,+5V*%
G36*
X174517315Y-138849161D02*
G01*
X174842280Y-139228121D01*
X174845064Y-139236632D01*
X174843726Y-139241235D01*
X174835602Y-139256496D01*
X174817150Y-139291155D01*
X174817091Y-139291280D01*
X174817082Y-139291298D01*
X174806051Y-139314701D01*
X174792233Y-139344017D01*
X174772205Y-139394633D01*
X174772143Y-139394831D01*
X174772139Y-139394843D01*
X174763336Y-139423080D01*
X174756544Y-139444867D01*
X174744727Y-139496583D01*
X174744698Y-139496774D01*
X174744695Y-139496787D01*
X174738614Y-139536201D01*
X174736231Y-139551643D01*
X174730533Y-139611912D01*
X174728699Y-139647987D01*
X174727560Y-139670408D01*
X174727110Y-139679252D01*
X174725440Y-139755527D01*
X174725440Y-139755607D01*
X174725439Y-139755646D01*
X174725059Y-139830959D01*
X174721590Y-139839215D01*
X174713359Y-139842600D01*
X174236674Y-139842600D01*
X174228401Y-139839173D01*
X174224974Y-139830926D01*
X174224808Y-139755449D01*
X174224797Y-139750646D01*
X174223958Y-139679373D01*
X174223852Y-139670408D01*
X174223852Y-139670391D01*
X174223851Y-139670340D01*
X174221655Y-139599564D01*
X174217701Y-139536201D01*
X174213437Y-139496383D01*
X174211500Y-139478300D01*
X174211498Y-139478289D01*
X174211482Y-139478135D01*
X174202490Y-139423248D01*
X174190218Y-139369424D01*
X174182784Y-139344017D01*
X174174205Y-139314701D01*
X174174201Y-139314690D01*
X174174159Y-139314545D01*
X174153806Y-139256496D01*
X174131608Y-139200605D01*
X174131739Y-139191652D01*
X174134525Y-139187710D01*
X174500476Y-138848200D01*
X174508871Y-138845085D01*
X174517315Y-138849161D01*
G37*
%TD.AperFunction*%
%TD*%
%TA.AperFunction,Conductor*%
%TO.N,GND*%
G36*
X208234107Y-107963927D02*
G01*
X208237534Y-107972166D01*
X208237764Y-108051184D01*
X208238897Y-108130432D01*
X208241408Y-108200301D01*
X208245807Y-108262847D01*
X208252603Y-108320128D01*
X208262304Y-108374199D01*
X208275421Y-108427118D01*
X208275480Y-108427305D01*
X208275483Y-108427315D01*
X208287506Y-108465287D01*
X208292463Y-108480941D01*
X208313940Y-108537725D01*
X208313996Y-108537855D01*
X208337212Y-108592165D01*
X208337313Y-108601119D01*
X208334635Y-108605128D01*
X207977786Y-108954199D01*
X207969476Y-108957534D01*
X207960928Y-108953683D01*
X207640599Y-108599528D01*
X207626059Y-108583452D01*
X207623051Y-108575019D01*
X207624271Y-108570374D01*
X207649823Y-108519259D01*
X207649831Y-108519243D01*
X207649884Y-108519136D01*
X207666730Y-108481096D01*
X207673731Y-108465287D01*
X207673733Y-108465282D01*
X207673799Y-108465133D01*
X207692960Y-108413596D01*
X207707886Y-108362602D01*
X207719093Y-108310232D01*
X207725893Y-108262963D01*
X207727078Y-108254726D01*
X207727079Y-108254716D01*
X207727101Y-108254564D01*
X207731849Y-108200301D01*
X207732415Y-108193830D01*
X207732416Y-108193816D01*
X207732428Y-108193678D01*
X207735591Y-108125652D01*
X207737109Y-108048566D01*
X207737448Y-107972147D01*
X207740912Y-107963890D01*
X207749148Y-107960500D01*
X208225834Y-107960500D01*
X208234107Y-107963927D01*
G37*
%TD.AperFunction*%
%TD*%
%TA.AperFunction,Conductor*%
%TO.N,/GPIO00*%
G36*
X187581703Y-129145826D02*
G01*
X187941231Y-129491567D01*
X187944819Y-129499771D01*
X187941231Y-129508433D01*
X187581703Y-129854174D01*
X187573365Y-129857439D01*
X187568191Y-129856119D01*
X187505994Y-129823736D01*
X187505465Y-129823443D01*
X187496739Y-129818311D01*
X187446061Y-129788503D01*
X187445785Y-129788333D01*
X187393190Y-129755118D01*
X187393188Y-129755115D01*
X187393187Y-129755116D01*
X187344437Y-129724310D01*
X187344427Y-129724304D01*
X187344359Y-129724261D01*
X187296352Y-129696476D01*
X187296150Y-129696379D01*
X187296144Y-129696376D01*
X187246339Y-129672506D01*
X187246064Y-129672374D01*
X187190389Y-129652564D01*
X187164557Y-129646563D01*
X187126524Y-129637728D01*
X187126521Y-129637728D01*
X187126222Y-129637658D01*
X187125913Y-129637620D01*
X187125909Y-129637619D01*
X187081886Y-129632162D01*
X187050461Y-129628266D01*
X186994870Y-129626259D01*
X186971278Y-129625407D01*
X186963134Y-129621684D01*
X186960000Y-129613715D01*
X186960000Y-129386285D01*
X186963427Y-129378012D01*
X186971278Y-129374593D01*
X187004212Y-129373403D01*
X187050461Y-129371733D01*
X187081886Y-129367837D01*
X187125909Y-129362380D01*
X187125913Y-129362379D01*
X187126222Y-129362341D01*
X187126521Y-129362271D01*
X187126524Y-129362271D01*
X187190070Y-129347509D01*
X187190068Y-129347509D01*
X187190389Y-129347435D01*
X187246064Y-129327625D01*
X187265766Y-129318182D01*
X187296144Y-129303623D01*
X187296150Y-129303620D01*
X187296352Y-129303523D01*
X187344359Y-129275738D01*
X187393187Y-129244883D01*
X187445785Y-129211666D01*
X187446061Y-129211496D01*
X187505465Y-129176556D01*
X187505994Y-129176263D01*
X187513879Y-129172158D01*
X187568191Y-129143881D01*
X187577111Y-129143100D01*
X187581703Y-129145826D01*
G37*
%TD.AperFunction*%
%TD*%
%TA.AperFunction,Conductor*%
%TO.N,Net-(D7-Pad1)*%
G36*
X201472844Y-108515779D02*
G01*
X201633776Y-108676711D01*
X201637203Y-108684984D01*
X201634454Y-108692518D01*
X201556540Y-108785072D01*
X201506757Y-108880592D01*
X201487268Y-108972493D01*
X201493323Y-109062404D01*
X201493510Y-109063028D01*
X201493511Y-109063033D01*
X201520044Y-109151534D01*
X201520170Y-109151953D01*
X201520352Y-109152339D01*
X201520355Y-109152346D01*
X201554230Y-109224077D01*
X201563058Y-109242770D01*
X201617236Y-109336483D01*
X201677953Y-109434721D01*
X201682393Y-109442136D01*
X201740305Y-109538859D01*
X201740601Y-109539384D01*
X201796026Y-109643803D01*
X201796878Y-109652717D01*
X201794125Y-109657398D01*
X201090715Y-110388858D01*
X201082511Y-110392446D01*
X201074172Y-110389181D01*
X201072187Y-110386662D01*
X200575863Y-109539384D01*
X200518896Y-109442135D01*
X200517671Y-109433265D01*
X200520742Y-109427925D01*
X200628724Y-109320563D01*
X200628776Y-109320511D01*
X200726944Y-109224128D01*
X200726997Y-109224077D01*
X200813267Y-109140435D01*
X200813310Y-109140393D01*
X200892340Y-109064556D01*
X200892363Y-109064534D01*
X200968595Y-108991779D01*
X201046495Y-108917354D01*
X201130555Y-108836490D01*
X201130583Y-108836463D01*
X201225264Y-108744411D01*
X201335113Y-108636348D01*
X201456319Y-108515758D01*
X201464601Y-108512352D01*
X201472844Y-108515779D01*
G37*
%TD.AperFunction*%
%TD*%
%TA.AperFunction,Conductor*%
%TO.N,Net-(D9-Pad1)*%
G36*
X170797934Y-108144418D02*
G01*
X170801272Y-108151251D01*
X170820535Y-108306573D01*
X170878626Y-108415091D01*
X170968999Y-108477296D01*
X171086381Y-108503943D01*
X171225498Y-108505785D01*
X171381076Y-108493577D01*
X171381132Y-108493572D01*
X171381154Y-108493570D01*
X171547586Y-108478095D01*
X171548124Y-108478058D01*
X171719906Y-108470051D01*
X171721136Y-108470058D01*
X171817684Y-108475717D01*
X171892863Y-108480124D01*
X171894817Y-108480407D01*
X172053663Y-108517248D01*
X172060948Y-108522455D01*
X172062718Y-108528416D01*
X172082540Y-109542386D01*
X172079275Y-109550725D01*
X172071071Y-109554313D01*
X172067885Y-109553935D01*
X171007990Y-109277087D01*
X171000852Y-109271681D01*
X170999290Y-109266773D01*
X170987448Y-109129608D01*
X170987400Y-109129052D01*
X170953200Y-109009141D01*
X170902800Y-108908213D01*
X170902570Y-108907878D01*
X170841712Y-108819381D01*
X170841704Y-108819370D01*
X170841600Y-108819219D01*
X170775040Y-108735157D01*
X170774951Y-108735043D01*
X170708714Y-108649232D01*
X170708125Y-108648396D01*
X170647661Y-108554045D01*
X170646846Y-108552541D01*
X170597223Y-108442490D01*
X170596547Y-108440552D01*
X170562847Y-108307435D01*
X170562523Y-108305452D01*
X170550959Y-108153579D01*
X170553748Y-108145070D01*
X170562625Y-108140991D01*
X170789661Y-108140991D01*
X170797934Y-108144418D01*
G37*
%TD.AperFunction*%
%TD*%
%TA.AperFunction,Conductor*%
%TO.N,Net-(D10-Pad1)*%
G36*
X181022341Y-114069767D02*
G01*
X181152957Y-114187746D01*
X181152968Y-114187755D01*
X181153234Y-114187995D01*
X181280994Y-114277609D01*
X181400864Y-114338017D01*
X181516337Y-114376077D01*
X181630908Y-114398650D01*
X181748072Y-114412595D01*
X181871164Y-114424758D01*
X181871477Y-114424794D01*
X182003759Y-114441994D01*
X182004542Y-114442122D01*
X182029380Y-114447097D01*
X182149545Y-114471166D01*
X182150564Y-114471418D01*
X182304326Y-114516879D01*
X182311288Y-114522511D01*
X182312707Y-114527870D01*
X182332604Y-115545677D01*
X182329339Y-115554016D01*
X182320677Y-115557604D01*
X181302870Y-115537707D01*
X181294666Y-115534119D01*
X181291879Y-115529326D01*
X181246418Y-115375564D01*
X181246166Y-115374545D01*
X181217123Y-115229545D01*
X181216993Y-115228756D01*
X181199797Y-115096503D01*
X181199756Y-115096144D01*
X181187605Y-114973175D01*
X181187595Y-114973072D01*
X181173650Y-114855908D01*
X181151077Y-114741337D01*
X181113017Y-114625864D01*
X181052609Y-114505994D01*
X181007717Y-114441993D01*
X180963200Y-114378526D01*
X180963198Y-114378524D01*
X180962995Y-114378234D01*
X180962755Y-114377968D01*
X180962746Y-114377957D01*
X180844767Y-114247341D01*
X180841764Y-114238905D01*
X180845176Y-114231226D01*
X181006226Y-114070176D01*
X181014499Y-114066749D01*
X181022341Y-114069767D01*
G37*
%TD.AperFunction*%
%TD*%
%TA.AperFunction,Conductor*%
%TO.N,Net-(D11-Pad1)*%
G36*
X181047934Y-108144418D02*
G01*
X181051272Y-108151251D01*
X181070535Y-108306573D01*
X181128626Y-108415091D01*
X181218999Y-108477296D01*
X181336381Y-108503943D01*
X181475498Y-108505785D01*
X181631076Y-108493577D01*
X181631132Y-108493572D01*
X181631154Y-108493570D01*
X181797586Y-108478095D01*
X181798124Y-108478058D01*
X181969906Y-108470051D01*
X181971136Y-108470058D01*
X182067684Y-108475717D01*
X182142863Y-108480124D01*
X182144817Y-108480407D01*
X182303663Y-108517248D01*
X182310948Y-108522455D01*
X182312718Y-108528416D01*
X182332540Y-109542386D01*
X182329275Y-109550725D01*
X182321071Y-109554313D01*
X182317885Y-109553935D01*
X181257990Y-109277087D01*
X181250852Y-109271681D01*
X181249290Y-109266773D01*
X181237448Y-109129608D01*
X181237400Y-109129052D01*
X181203200Y-109009141D01*
X181152800Y-108908213D01*
X181152570Y-108907878D01*
X181091712Y-108819381D01*
X181091704Y-108819370D01*
X181091600Y-108819219D01*
X181025040Y-108735157D01*
X181024951Y-108735043D01*
X180958714Y-108649232D01*
X180958125Y-108648396D01*
X180897661Y-108554045D01*
X180896846Y-108552541D01*
X180847223Y-108442490D01*
X180846547Y-108440552D01*
X180812847Y-108307435D01*
X180812523Y-108305452D01*
X180800959Y-108153579D01*
X180803748Y-108145070D01*
X180812625Y-108140991D01*
X181039661Y-108140991D01*
X181047934Y-108144418D01*
G37*
%TD.AperFunction*%
%TD*%
%TA.AperFunction,Conductor*%
%TO.N,Net-(D8-Pad1)*%
G36*
X170772341Y-114069767D02*
G01*
X170902957Y-114187746D01*
X170902968Y-114187755D01*
X170903234Y-114187995D01*
X171030994Y-114277609D01*
X171150864Y-114338017D01*
X171266337Y-114376077D01*
X171380908Y-114398650D01*
X171498072Y-114412595D01*
X171621164Y-114424758D01*
X171621477Y-114424794D01*
X171753759Y-114441994D01*
X171754542Y-114442122D01*
X171779380Y-114447097D01*
X171899545Y-114471166D01*
X171900564Y-114471418D01*
X172054326Y-114516879D01*
X172061288Y-114522511D01*
X172062707Y-114527870D01*
X172082604Y-115545677D01*
X172079339Y-115554016D01*
X172070677Y-115557604D01*
X171052870Y-115537707D01*
X171044666Y-115534119D01*
X171041879Y-115529326D01*
X170996418Y-115375564D01*
X170996166Y-115374545D01*
X170967123Y-115229545D01*
X170966993Y-115228756D01*
X170949797Y-115096503D01*
X170949756Y-115096144D01*
X170937605Y-114973175D01*
X170937595Y-114973072D01*
X170923650Y-114855908D01*
X170901077Y-114741337D01*
X170863017Y-114625864D01*
X170802609Y-114505994D01*
X170757717Y-114441993D01*
X170713200Y-114378526D01*
X170713198Y-114378524D01*
X170712995Y-114378234D01*
X170712755Y-114377968D01*
X170712746Y-114377957D01*
X170594767Y-114247341D01*
X170591764Y-114238905D01*
X170595176Y-114231226D01*
X170756226Y-114070176D01*
X170764499Y-114066749D01*
X170772341Y-114069767D01*
G37*
%TD.AperFunction*%
%TD*%
%TA.AperFunction,Conductor*%
%TO.N,Net-(J2-Pad1)*%
G36*
X140482357Y-107001592D02*
G01*
X140894332Y-107429995D01*
X140897597Y-107438334D01*
X140896413Y-107443237D01*
X140820808Y-107598124D01*
X140750957Y-107742330D01*
X140690208Y-107874698D01*
X140638326Y-108001422D01*
X140595075Y-108128694D01*
X140560217Y-108262706D01*
X140533517Y-108409650D01*
X140514739Y-108575718D01*
X140503645Y-108767104D01*
X140503643Y-108767247D01*
X140500188Y-108978491D01*
X140496627Y-108986707D01*
X140488490Y-108990000D01*
X139511510Y-108990000D01*
X139503237Y-108986573D01*
X139499812Y-108978491D01*
X139496356Y-108767247D01*
X139496354Y-108767104D01*
X139485260Y-108575718D01*
X139466482Y-108409650D01*
X139439782Y-108262706D01*
X139404924Y-108128694D01*
X139361673Y-108001422D01*
X139309791Y-107874698D01*
X139249042Y-107742330D01*
X139179191Y-107598124D01*
X139103587Y-107443237D01*
X139103037Y-107434299D01*
X139105668Y-107429995D01*
X139517560Y-107001678D01*
X140000000Y-106500000D01*
X140482357Y-107001592D01*
G37*
%TD.AperFunction*%
%TD*%
%TA.AperFunction,Conductor*%
%TO.N,Net-(J2-Pad1)*%
G36*
X140496763Y-125206427D02*
G01*
X140500188Y-125214509D01*
X140503645Y-125425895D01*
X140514739Y-125617281D01*
X140533517Y-125783349D01*
X140560217Y-125930293D01*
X140595075Y-126064305D01*
X140638326Y-126191577D01*
X140690208Y-126318301D01*
X140750957Y-126450669D01*
X140750986Y-126450729D01*
X140750987Y-126450731D01*
X140820808Y-126594875D01*
X140896413Y-126749763D01*
X140896963Y-126758701D01*
X140894332Y-126763005D01*
X140008433Y-127684231D01*
X140000229Y-127687819D01*
X139991567Y-127684231D01*
X139105668Y-126763005D01*
X139102403Y-126754666D01*
X139103587Y-126749763D01*
X139179191Y-126594875D01*
X139249012Y-126450731D01*
X139249013Y-126450729D01*
X139249042Y-126450669D01*
X139309791Y-126318301D01*
X139361673Y-126191577D01*
X139404924Y-126064305D01*
X139439782Y-125930293D01*
X139466482Y-125783349D01*
X139485260Y-125617281D01*
X139496354Y-125425895D01*
X139499812Y-125214509D01*
X139503373Y-125206293D01*
X139511510Y-125203000D01*
X140488490Y-125203000D01*
X140496763Y-125206427D01*
G37*
%TD.AperFunction*%
%TD*%
%TA.AperFunction,Conductor*%
%TO.N,Net-(J2-Pad1)*%
G36*
X141814372Y-99327805D02*
G01*
X141817960Y-99336467D01*
X141795515Y-100484552D01*
X141791927Y-100492756D01*
X141787715Y-100495355D01*
X141647903Y-100544752D01*
X141647884Y-100544759D01*
X141647870Y-100544764D01*
X141647827Y-100544780D01*
X141647814Y-100544785D01*
X141517254Y-100593916D01*
X141517234Y-100593924D01*
X141517133Y-100593962D01*
X141517016Y-100594011D01*
X141517001Y-100594017D01*
X141399246Y-100643343D01*
X141399236Y-100643348D01*
X141399094Y-100643407D01*
X141289698Y-100696258D01*
X141184891Y-100755673D01*
X141080621Y-100824812D01*
X140972834Y-100906833D01*
X140857476Y-101004894D01*
X140857403Y-101004961D01*
X140857391Y-101004972D01*
X140801572Y-101056517D01*
X140730493Y-101122155D01*
X140730470Y-101122178D01*
X140730462Y-101122185D01*
X140596105Y-101253678D01*
X140587795Y-101257015D01*
X140579648Y-101253589D01*
X139888910Y-100562851D01*
X139885483Y-100554578D01*
X139888820Y-100546397D01*
X140020344Y-100412006D01*
X140137605Y-100285023D01*
X140235666Y-100169665D01*
X140317687Y-100061878D01*
X140386826Y-99957608D01*
X140446241Y-99852801D01*
X140499092Y-99743405D01*
X140548537Y-99625366D01*
X140597735Y-99494629D01*
X140647145Y-99354785D01*
X140653133Y-99348126D01*
X140657948Y-99346985D01*
X141806033Y-99324540D01*
X141814372Y-99327805D01*
G37*
%TD.AperFunction*%
%TD*%
%TA.AperFunction,Conductor*%
%TO.N,Net-(J2-Pad1)*%
G36*
X140496763Y-105013427D02*
G01*
X140500188Y-105021509D01*
X140503645Y-105232895D01*
X140514739Y-105424281D01*
X140533517Y-105590349D01*
X140560217Y-105737293D01*
X140595075Y-105871305D01*
X140638326Y-105998577D01*
X140690208Y-106125301D01*
X140750957Y-106257669D01*
X140750986Y-106257729D01*
X140750987Y-106257731D01*
X140820808Y-106401875D01*
X140896413Y-106556763D01*
X140896963Y-106565701D01*
X140894332Y-106570005D01*
X140000000Y-107500000D01*
X139105668Y-106570005D01*
X139102403Y-106561666D01*
X139103587Y-106556763D01*
X139179191Y-106401875D01*
X139249012Y-106257731D01*
X139249013Y-106257729D01*
X139249042Y-106257669D01*
X139309791Y-106125301D01*
X139361673Y-105998577D01*
X139404924Y-105871305D01*
X139439782Y-105737293D01*
X139466482Y-105590349D01*
X139485260Y-105424281D01*
X139496354Y-105232895D01*
X139499812Y-105021509D01*
X139503373Y-105013293D01*
X139511510Y-105010000D01*
X140488490Y-105010000D01*
X140496763Y-105013427D01*
G37*
%TD.AperFunction*%
%TD*%
%TA.AperFunction,Conductor*%
%TO.N,Net-(J2-Pad2)*%
G36*
X147719500Y-104763787D02*
G01*
X147720140Y-104764480D01*
X147858138Y-104926755D01*
X147859344Y-104928462D01*
X147955294Y-105093789D01*
X147956176Y-105095677D01*
X148014238Y-105255962D01*
X148014703Y-105257617D01*
X148046433Y-105413772D01*
X148046597Y-105414821D01*
X148063427Y-105567662D01*
X148063451Y-105567903D01*
X148074429Y-105690895D01*
X148076826Y-105717756D01*
X148098293Y-105864736D01*
X148139432Y-106009239D01*
X148139689Y-106009745D01*
X148211554Y-106151227D01*
X148211557Y-106151231D01*
X148211838Y-106151785D01*
X148268663Y-106221349D01*
X148321961Y-106286596D01*
X148324541Y-106295171D01*
X148322995Y-106299912D01*
X148304829Y-106330924D01*
X147627813Y-107486662D01*
X147620675Y-107492068D01*
X147611804Y-107490843D01*
X147609285Y-107488858D01*
X146726020Y-106570371D01*
X146722755Y-106562032D01*
X146724249Y-106556537D01*
X146786824Y-106444974D01*
X146787354Y-106444117D01*
X146864359Y-106330924D01*
X146864616Y-106330562D01*
X146945121Y-106221376D01*
X146945140Y-106221349D01*
X147021799Y-106115174D01*
X147021916Y-106115012D01*
X147022017Y-106114851D01*
X147022026Y-106114838D01*
X147087568Y-106010588D01*
X147087772Y-106010264D01*
X147135598Y-105905737D01*
X147158305Y-105800034D01*
X147158228Y-105799156D01*
X147148887Y-105692703D01*
X147148886Y-105692701D01*
X147148804Y-105691761D01*
X147100005Y-105579522D01*
X147011444Y-105470109D01*
X147008902Y-105461524D01*
X147012265Y-105454476D01*
X147702954Y-104763787D01*
X147711227Y-104760360D01*
X147719500Y-104763787D01*
G37*
%TD.AperFunction*%
%TD*%
%TA.AperFunction,Conductor*%
%TO.N,Net-(J2-Pad2)*%
G36*
X145008433Y-99201269D02*
G01*
X145804382Y-100028958D01*
X145807647Y-100037297D01*
X145806507Y-100042111D01*
X145742558Y-100175936D01*
X145684901Y-100303169D01*
X145636398Y-100421599D01*
X145596414Y-100536325D01*
X145564318Y-100652447D01*
X145539476Y-100775066D01*
X145521256Y-100909281D01*
X145509025Y-101060191D01*
X145502150Y-101232897D01*
X145502149Y-101233021D01*
X145502148Y-101233047D01*
X145500125Y-101420926D01*
X145496610Y-101429162D01*
X145488426Y-101432500D01*
X144511574Y-101432500D01*
X144503301Y-101429073D01*
X144499875Y-101420926D01*
X144497851Y-101233047D01*
X144497850Y-101233021D01*
X144497849Y-101232897D01*
X144490974Y-101060191D01*
X144478743Y-100909281D01*
X144460523Y-100775066D01*
X144435681Y-100652447D01*
X144403585Y-100536325D01*
X144363601Y-100421599D01*
X144315098Y-100303169D01*
X144257441Y-100175936D01*
X144257426Y-100175904D01*
X144257410Y-100175870D01*
X144193494Y-100042112D01*
X144193019Y-100033170D01*
X144195618Y-100028958D01*
X144991567Y-99201269D01*
X144999771Y-99197681D01*
X145008433Y-99201269D01*
G37*
%TD.AperFunction*%
%TD*%
%TA.AperFunction,Conductor*%
%TO.N,Net-(J2-Pad3)*%
G36*
X148508433Y-99201269D02*
G01*
X149304382Y-100028958D01*
X149307647Y-100037297D01*
X149306507Y-100042111D01*
X149242558Y-100175936D01*
X149184901Y-100303169D01*
X149136398Y-100421599D01*
X149096414Y-100536325D01*
X149064318Y-100652447D01*
X149039476Y-100775066D01*
X149021256Y-100909281D01*
X149009025Y-101060191D01*
X149002150Y-101232897D01*
X149002149Y-101233021D01*
X149002148Y-101233047D01*
X149000125Y-101420926D01*
X148996610Y-101429162D01*
X148988426Y-101432500D01*
X148011574Y-101432500D01*
X148003301Y-101429073D01*
X147999875Y-101420926D01*
X147997851Y-101233047D01*
X147997850Y-101233021D01*
X147997849Y-101232897D01*
X147990974Y-101060191D01*
X147978743Y-100909281D01*
X147960523Y-100775066D01*
X147935681Y-100652447D01*
X147903585Y-100536325D01*
X147863601Y-100421599D01*
X147815098Y-100303169D01*
X147757441Y-100175936D01*
X147757426Y-100175904D01*
X147757410Y-100175870D01*
X147693494Y-100042112D01*
X147693019Y-100033170D01*
X147695618Y-100028958D01*
X148491567Y-99201269D01*
X148499771Y-99197681D01*
X148508433Y-99201269D01*
G37*
%TD.AperFunction*%
%TD*%
%TA.AperFunction,Conductor*%
%TO.N,Net-(J2-Pad3)*%
G36*
X148681727Y-111978444D02*
G01*
X149372556Y-112669273D01*
X149375983Y-112677546D01*
X149372690Y-112685683D01*
X149225762Y-112837496D01*
X149225747Y-112837512D01*
X149225662Y-112837600D01*
X149098176Y-112980774D01*
X148994026Y-113111481D01*
X148909001Y-113234266D01*
X148838888Y-113353674D01*
X148779477Y-113474252D01*
X148726556Y-113600545D01*
X148675913Y-113737099D01*
X148675894Y-113737155D01*
X148623336Y-113888460D01*
X148567276Y-114051443D01*
X148561344Y-114058151D01*
X148556442Y-114059335D01*
X147916153Y-114071852D01*
X147278612Y-114084315D01*
X147270273Y-114081050D01*
X147266685Y-114072388D01*
X147291665Y-112794559D01*
X147295253Y-112786355D01*
X147299555Y-112783725D01*
X147462539Y-112727663D01*
X147613900Y-112675086D01*
X147613927Y-112675076D01*
X147613947Y-112675069D01*
X147688414Y-112647451D01*
X147750454Y-112624443D01*
X147750556Y-112624400D01*
X147750572Y-112624394D01*
X147802981Y-112602432D01*
X147876747Y-112571522D01*
X147997325Y-112512111D01*
X148116733Y-112441998D01*
X148170470Y-112404787D01*
X148239351Y-112357089D01*
X148239358Y-112357084D01*
X148239518Y-112356973D01*
X148239684Y-112356841D01*
X148370090Y-112252931D01*
X148370099Y-112252923D01*
X148370225Y-112252823D01*
X148513399Y-112125337D01*
X148513487Y-112125252D01*
X148513503Y-112125237D01*
X148665317Y-111978310D01*
X148673645Y-111975019D01*
X148681727Y-111978444D01*
G37*
%TD.AperFunction*%
%TD*%
%TA.AperFunction,Conductor*%
%TO.N,Net-(J2-Pad4)*%
G36*
X148681727Y-118709444D02*
G01*
X149372556Y-119400273D01*
X149375983Y-119408546D01*
X149372690Y-119416683D01*
X149225762Y-119568496D01*
X149225747Y-119568512D01*
X149225662Y-119568600D01*
X149098176Y-119711774D01*
X148994026Y-119842481D01*
X148909001Y-119965266D01*
X148838888Y-120084674D01*
X148779477Y-120205252D01*
X148726556Y-120331545D01*
X148675913Y-120468099D01*
X148675894Y-120468155D01*
X148623336Y-120619460D01*
X148567276Y-120782443D01*
X148561344Y-120789151D01*
X148556442Y-120790335D01*
X147916153Y-120802852D01*
X147278612Y-120815315D01*
X147270273Y-120812050D01*
X147266685Y-120803388D01*
X147291665Y-119525559D01*
X147295253Y-119517355D01*
X147299555Y-119514725D01*
X147462539Y-119458663D01*
X147613900Y-119406086D01*
X147613927Y-119406076D01*
X147613947Y-119406069D01*
X147688414Y-119378451D01*
X147750454Y-119355443D01*
X147750556Y-119355400D01*
X147750572Y-119355394D01*
X147802981Y-119333432D01*
X147876747Y-119302522D01*
X147997325Y-119243111D01*
X148116733Y-119172998D01*
X148170470Y-119135787D01*
X148239351Y-119088089D01*
X148239358Y-119088084D01*
X148239518Y-119087973D01*
X148239684Y-119087841D01*
X148370090Y-118983931D01*
X148370099Y-118983923D01*
X148370225Y-118983823D01*
X148513399Y-118856337D01*
X148513487Y-118856252D01*
X148513503Y-118856237D01*
X148665317Y-118709310D01*
X148673645Y-118706019D01*
X148681727Y-118709444D01*
G37*
%TD.AperFunction*%
%TD*%
%TA.AperFunction,Conductor*%
%TO.N,Net-(J2-Pad4)*%
G36*
X152008433Y-99201269D02*
G01*
X152804382Y-100028958D01*
X152807647Y-100037297D01*
X152806507Y-100042111D01*
X152742558Y-100175936D01*
X152684901Y-100303169D01*
X152636398Y-100421599D01*
X152596414Y-100536325D01*
X152564318Y-100652447D01*
X152539476Y-100775066D01*
X152521256Y-100909281D01*
X152509025Y-101060191D01*
X152502150Y-101232897D01*
X152502149Y-101233021D01*
X152502148Y-101233047D01*
X152500125Y-101420926D01*
X152496610Y-101429162D01*
X152488426Y-101432500D01*
X151511574Y-101432500D01*
X151503301Y-101429073D01*
X151499875Y-101420926D01*
X151497851Y-101233047D01*
X151497850Y-101233021D01*
X151497849Y-101232897D01*
X151490974Y-101060191D01*
X151478743Y-100909281D01*
X151460523Y-100775066D01*
X151435681Y-100652447D01*
X151403585Y-100536325D01*
X151363601Y-100421599D01*
X151315098Y-100303169D01*
X151257441Y-100175936D01*
X151257426Y-100175904D01*
X151257410Y-100175870D01*
X151193494Y-100042112D01*
X151193019Y-100033170D01*
X151195618Y-100028958D01*
X151991567Y-99201269D01*
X151999771Y-99197681D01*
X152008433Y-99201269D01*
G37*
%TD.AperFunction*%
%TD*%
%TA.AperFunction,Conductor*%
%TO.N,Net-(J2-Pad5)*%
G36*
X155508433Y-99201269D02*
G01*
X156304382Y-100028958D01*
X156307647Y-100037297D01*
X156306507Y-100042111D01*
X156242558Y-100175936D01*
X156184901Y-100303169D01*
X156136398Y-100421599D01*
X156096414Y-100536325D01*
X156064318Y-100652447D01*
X156039476Y-100775066D01*
X156021256Y-100909281D01*
X156009025Y-101060191D01*
X156002150Y-101232897D01*
X156002149Y-101233021D01*
X156002148Y-101233047D01*
X156000125Y-101420926D01*
X155996610Y-101429162D01*
X155988426Y-101432500D01*
X155011574Y-101432500D01*
X155003301Y-101429073D01*
X154999875Y-101420926D01*
X154997851Y-101233047D01*
X154997850Y-101233021D01*
X154997849Y-101232897D01*
X154990974Y-101060191D01*
X154978743Y-100909281D01*
X154960523Y-100775066D01*
X154935681Y-100652447D01*
X154903585Y-100536325D01*
X154863601Y-100421599D01*
X154815098Y-100303169D01*
X154757441Y-100175936D01*
X154757426Y-100175904D01*
X154757410Y-100175870D01*
X154693494Y-100042112D01*
X154693019Y-100033170D01*
X154695618Y-100028958D01*
X155491567Y-99201269D01*
X155499771Y-99197681D01*
X155508433Y-99201269D01*
G37*
%TD.AperFunction*%
%TD*%
%TA.AperFunction,Conductor*%
%TO.N,Net-(J2-Pad5)*%
G36*
X148681727Y-125440444D02*
G01*
X149372556Y-126131273D01*
X149375983Y-126139546D01*
X149372690Y-126147683D01*
X149225762Y-126299496D01*
X149225747Y-126299512D01*
X149225662Y-126299600D01*
X149098176Y-126442774D01*
X148994026Y-126573481D01*
X148909001Y-126696266D01*
X148838888Y-126815674D01*
X148779477Y-126936252D01*
X148726556Y-127062545D01*
X148675913Y-127199099D01*
X148675894Y-127199155D01*
X148623336Y-127350460D01*
X148567276Y-127513443D01*
X148561344Y-127520151D01*
X148556442Y-127521335D01*
X147916153Y-127533852D01*
X147278612Y-127546315D01*
X147270273Y-127543050D01*
X147266685Y-127534388D01*
X147291665Y-126256559D01*
X147295253Y-126248355D01*
X147299555Y-126245725D01*
X147462539Y-126189663D01*
X147613900Y-126137086D01*
X147613927Y-126137076D01*
X147613947Y-126137069D01*
X147688414Y-126109451D01*
X147750454Y-126086443D01*
X147750556Y-126086400D01*
X147750572Y-126086394D01*
X147802981Y-126064432D01*
X147876747Y-126033522D01*
X147997325Y-125974111D01*
X148116733Y-125903998D01*
X148170470Y-125866787D01*
X148239351Y-125819089D01*
X148239358Y-125819084D01*
X148239518Y-125818973D01*
X148239684Y-125818841D01*
X148370090Y-125714931D01*
X148370099Y-125714923D01*
X148370225Y-125714823D01*
X148513399Y-125587337D01*
X148513487Y-125587252D01*
X148513503Y-125587237D01*
X148665317Y-125440310D01*
X148673645Y-125437019D01*
X148681727Y-125440444D01*
G37*
%TD.AperFunction*%
%TD*%
%TA.AperFunction,Conductor*%
%TO.N,/GPIO01*%
G36*
X188831703Y-137145826D02*
G01*
X189191231Y-137491567D01*
X189194819Y-137499771D01*
X189191231Y-137508433D01*
X188831703Y-137854174D01*
X188823365Y-137857439D01*
X188818191Y-137856119D01*
X188755994Y-137823736D01*
X188755465Y-137823443D01*
X188746739Y-137818311D01*
X188696061Y-137788503D01*
X188695785Y-137788333D01*
X188643190Y-137755118D01*
X188643188Y-137755115D01*
X188643187Y-137755116D01*
X188594437Y-137724310D01*
X188594427Y-137724304D01*
X188594359Y-137724261D01*
X188546352Y-137696476D01*
X188546150Y-137696379D01*
X188546144Y-137696376D01*
X188496339Y-137672506D01*
X188496064Y-137672374D01*
X188440389Y-137652564D01*
X188414557Y-137646563D01*
X188376524Y-137637728D01*
X188376521Y-137637728D01*
X188376222Y-137637658D01*
X188375913Y-137637620D01*
X188375909Y-137637619D01*
X188331886Y-137632162D01*
X188300461Y-137628266D01*
X188244870Y-137626259D01*
X188221278Y-137625407D01*
X188213134Y-137621684D01*
X188210000Y-137613715D01*
X188210000Y-137386285D01*
X188213427Y-137378012D01*
X188221278Y-137374593D01*
X188254212Y-137373403D01*
X188300461Y-137371733D01*
X188331886Y-137367837D01*
X188375909Y-137362380D01*
X188375913Y-137362379D01*
X188376222Y-137362341D01*
X188376521Y-137362271D01*
X188376524Y-137362271D01*
X188440070Y-137347509D01*
X188440068Y-137347509D01*
X188440389Y-137347435D01*
X188496064Y-137327625D01*
X188515766Y-137318182D01*
X188546144Y-137303623D01*
X188546150Y-137303620D01*
X188546352Y-137303523D01*
X188594359Y-137275738D01*
X188643187Y-137244883D01*
X188695785Y-137211666D01*
X188696061Y-137211496D01*
X188755465Y-137176556D01*
X188755994Y-137176263D01*
X188763879Y-137172158D01*
X188818191Y-137143881D01*
X188827111Y-137143100D01*
X188831703Y-137145826D01*
G37*
%TD.AperFunction*%
%TD*%
%TA.AperFunction,Conductor*%
%TO.N,/GPIO01*%
G36*
X201436399Y-106284653D02*
G01*
X201565667Y-106362883D01*
X201567068Y-106363879D01*
X201689325Y-106465133D01*
X201690101Y-106465837D01*
X201801736Y-106576550D01*
X201802009Y-106576830D01*
X201906060Y-106687290D01*
X201906114Y-106687344D01*
X202005246Y-106787319D01*
X202005254Y-106787326D01*
X202005458Y-106787532D01*
X202005684Y-106787717D01*
X202005687Y-106787720D01*
X202020198Y-106799613D01*
X202103270Y-106867699D01*
X202202691Y-106918068D01*
X202306915Y-106928917D01*
X202308116Y-106928506D01*
X202308118Y-106928506D01*
X202385450Y-106902050D01*
X202419137Y-106890526D01*
X202505645Y-106822285D01*
X202534387Y-106799613D01*
X202543005Y-106797180D01*
X202549906Y-106800526D01*
X202710574Y-106961194D01*
X202714001Y-106969467D01*
X202710095Y-106978193D01*
X202594659Y-107081294D01*
X202593496Y-107082207D01*
X202478340Y-107161431D01*
X202477031Y-107162212D01*
X202368881Y-107217451D01*
X202367684Y-107217979D01*
X202264447Y-107256836D01*
X202263690Y-107257091D01*
X202186486Y-107280157D01*
X202163282Y-107287089D01*
X202163170Y-107287122D01*
X202063892Y-107315700D01*
X201964297Y-107350299D01*
X201862610Y-107398461D01*
X201757012Y-107467739D01*
X201756708Y-107468006D01*
X201756702Y-107468011D01*
X201652032Y-107560101D01*
X201643557Y-107562993D01*
X201638391Y-107561412D01*
X201052117Y-107217981D01*
X200693338Y-107007813D01*
X200687932Y-107000675D01*
X200689157Y-106991804D01*
X200691142Y-106989285D01*
X201422233Y-106286230D01*
X201430571Y-106282965D01*
X201436399Y-106284653D01*
G37*
%TD.AperFunction*%
%TD*%
%TA.AperFunction,Conductor*%
%TO.N,Net-(J7-Pad2)*%
G36*
X205971384Y-114463447D02*
G01*
X206798731Y-115259067D01*
X206802319Y-115267271D01*
X206798731Y-115275933D01*
X205971385Y-116071553D01*
X205963047Y-116074817D01*
X205957669Y-116073388D01*
X205797119Y-115985722D01*
X205796182Y-115985152D01*
X205657168Y-115891355D01*
X205656486Y-115890858D01*
X205601464Y-115847648D01*
X205537506Y-115797419D01*
X205537238Y-115797201D01*
X205429899Y-115706848D01*
X205326204Y-115622694D01*
X205326196Y-115622688D01*
X205326037Y-115622559D01*
X205217401Y-115547265D01*
X205154348Y-115514403D01*
X205096010Y-115483998D01*
X205096004Y-115483996D01*
X205095608Y-115483789D01*
X205095185Y-115483645D01*
X205095183Y-115483644D01*
X204952695Y-115435096D01*
X204952694Y-115435096D01*
X204952281Y-115434955D01*
X204951856Y-115434878D01*
X204951852Y-115434877D01*
X204880552Y-115421966D01*
X204779038Y-115403584D01*
X204578588Y-115393081D01*
X204570505Y-115389226D01*
X204567500Y-115381397D01*
X204567500Y-115153603D01*
X204570927Y-115145330D01*
X204578588Y-115141919D01*
X204594082Y-115141107D01*
X204779038Y-115131415D01*
X204880552Y-115113033D01*
X204951852Y-115100122D01*
X204951856Y-115100121D01*
X204952281Y-115100044D01*
X204952695Y-115099903D01*
X205095183Y-115051355D01*
X205095185Y-115051354D01*
X205095608Y-115051210D01*
X205096004Y-115051003D01*
X205096010Y-115051001D01*
X205154348Y-115020596D01*
X205217401Y-114987734D01*
X205326037Y-114912440D01*
X205326196Y-114912311D01*
X205326204Y-114912305D01*
X205429899Y-114828151D01*
X205537238Y-114737798D01*
X205537506Y-114737580D01*
X205601464Y-114687351D01*
X205656486Y-114644141D01*
X205657168Y-114643644D01*
X205796182Y-114549847D01*
X205797119Y-114549277D01*
X205957669Y-114461612D01*
X205966572Y-114460655D01*
X205971384Y-114463447D01*
G37*
%TD.AperFunction*%
%TD*%
%TA.AperFunction,Conductor*%
%TO.N,Net-(J7-Pad2)*%
G36*
X201168103Y-116671084D02*
G01*
X201329035Y-116832016D01*
X201332462Y-116840289D01*
X201329445Y-116848131D01*
X201266768Y-116917531D01*
X201266562Y-116917827D01*
X201266557Y-116917833D01*
X201237906Y-116958963D01*
X201216539Y-116989636D01*
X201183326Y-117058042D01*
X201164241Y-117124599D01*
X201156400Y-117191157D01*
X201156916Y-117259563D01*
X201162903Y-117331669D01*
X201162913Y-117331756D01*
X201171465Y-117409229D01*
X201171481Y-117409381D01*
X201179721Y-117494121D01*
X201179759Y-117494623D01*
X201184378Y-117580282D01*
X201181402Y-117588728D01*
X201177027Y-117591780D01*
X200562916Y-117836574D01*
X200553962Y-117836454D01*
X200547555Y-117829610D01*
X200345845Y-117259780D01*
X200326981Y-117206491D01*
X200327450Y-117197549D01*
X200330884Y-117193308D01*
X200418225Y-117126233D01*
X200419020Y-117125673D01*
X200504279Y-117070814D01*
X200505060Y-117070353D01*
X200584258Y-117027675D01*
X200584845Y-117027380D01*
X200660396Y-116991991D01*
X200660613Y-116991892D01*
X200666554Y-116989255D01*
X200734803Y-116958963D01*
X200809687Y-116923732D01*
X200809842Y-116923648D01*
X200809853Y-116923642D01*
X200887200Y-116881502D01*
X200887203Y-116881500D01*
X200887409Y-116881388D01*
X200970221Y-116827075D01*
X201060374Y-116755932D01*
X201060546Y-116755772D01*
X201151859Y-116670792D01*
X201160250Y-116667665D01*
X201168103Y-116671084D01*
G37*
%TD.AperFunction*%
%TD*%
%TA.AperFunction,Conductor*%
%TO.N,Net-(Q1-Pad2)*%
G36*
X166256458Y-118409327D02*
G01*
X166417070Y-118569939D01*
X166420497Y-118578212D01*
X166417954Y-118585495D01*
X166364200Y-118653078D01*
X166363878Y-118653947D01*
X166338710Y-118721810D01*
X166338710Y-118721813D01*
X166338303Y-118722909D01*
X166338355Y-118724081D01*
X166340792Y-118778893D01*
X166341219Y-118788506D01*
X166367401Y-118851560D01*
X166411302Y-118913761D01*
X166467378Y-118976801D01*
X166474296Y-118984035D01*
X166530000Y-119042285D01*
X166530166Y-119042463D01*
X166540962Y-119054274D01*
X166593564Y-119111826D01*
X166594131Y-119112495D01*
X166606884Y-119128769D01*
X166652718Y-119187258D01*
X166653577Y-119188515D01*
X166671833Y-119219354D01*
X166697968Y-119263503D01*
X166699234Y-119272366D01*
X166696333Y-119277571D01*
X166240715Y-119751358D01*
X166232511Y-119754946D01*
X166224172Y-119751681D01*
X166222187Y-119749162D01*
X165942886Y-119272366D01*
X165863022Y-119136029D01*
X165861797Y-119127159D01*
X165864298Y-119122427D01*
X165923110Y-119054968D01*
X165923111Y-119054967D01*
X165923395Y-119054641D01*
X165931207Y-119042370D01*
X165968341Y-118984035D01*
X165968566Y-118983682D01*
X165999432Y-118914813D01*
X166021145Y-118846953D01*
X166038856Y-118779023D01*
X166057607Y-118710347D01*
X166057861Y-118709536D01*
X166060648Y-118701637D01*
X166082650Y-118639283D01*
X166083177Y-118638026D01*
X166119140Y-118564736D01*
X166119940Y-118563354D01*
X166142586Y-118529733D01*
X166172273Y-118485659D01*
X166173223Y-118484433D01*
X166239435Y-118409833D01*
X166247489Y-118405921D01*
X166256458Y-118409327D01*
G37*
%TD.AperFunction*%
%TD*%
%TA.AperFunction,Conductor*%
%TO.N,Net-(Q1-Pad2)*%
G36*
X169692434Y-118165427D02*
G01*
X169793797Y-118165980D01*
X169793938Y-118165982D01*
X169945340Y-118168638D01*
X169945488Y-118168641D01*
X170075361Y-118172559D01*
X170075493Y-118172564D01*
X170190098Y-118177319D01*
X170190184Y-118177323D01*
X170296076Y-118182500D01*
X170296089Y-118182501D01*
X170399704Y-118187680D01*
X170507460Y-118192439D01*
X170625794Y-118196360D01*
X170761157Y-118199020D01*
X170911021Y-118199945D01*
X170919273Y-118203423D01*
X170922269Y-118208688D01*
X171198935Y-119267885D01*
X171197710Y-119276756D01*
X171190572Y-119282162D01*
X171187387Y-119282540D01*
X170882692Y-119276583D01*
X170172867Y-119262707D01*
X170164663Y-119259119D01*
X170161877Y-119254329D01*
X170127139Y-119136960D01*
X170126938Y-119136184D01*
X170099502Y-119013026D01*
X170099434Y-119012701D01*
X170076506Y-118893999D01*
X170076496Y-118893946D01*
X170053000Y-118782466D01*
X170023855Y-118681010D01*
X169983937Y-118592174D01*
X169928124Y-118518557D01*
X169892688Y-118492821D01*
X169851997Y-118463267D01*
X169851994Y-118463266D01*
X169851294Y-118462757D01*
X169748324Y-118427372D01*
X169747630Y-118427308D01*
X169624718Y-118415979D01*
X169616794Y-118411807D01*
X169614092Y-118404328D01*
X169614092Y-118176764D01*
X169617519Y-118168491D01*
X169625856Y-118165064D01*
X169692434Y-118165427D01*
G37*
%TD.AperFunction*%
%TD*%
%TA.AperFunction,Conductor*%
%TO.N,Net-(Q2-Pad2)*%
G36*
X166256458Y-123409327D02*
G01*
X166417070Y-123569939D01*
X166420497Y-123578212D01*
X166417954Y-123585495D01*
X166364200Y-123653078D01*
X166363878Y-123653947D01*
X166338710Y-123721810D01*
X166338710Y-123721813D01*
X166338303Y-123722909D01*
X166338355Y-123724081D01*
X166340792Y-123778893D01*
X166341219Y-123788506D01*
X166367401Y-123851560D01*
X166411302Y-123913761D01*
X166467378Y-123976801D01*
X166474296Y-123984035D01*
X166530000Y-124042285D01*
X166530166Y-124042463D01*
X166540962Y-124054274D01*
X166593564Y-124111826D01*
X166594131Y-124112495D01*
X166606884Y-124128769D01*
X166652718Y-124187258D01*
X166653577Y-124188515D01*
X166671833Y-124219354D01*
X166697968Y-124263503D01*
X166699234Y-124272366D01*
X166696333Y-124277571D01*
X166240715Y-124751358D01*
X166232511Y-124754946D01*
X166224172Y-124751681D01*
X166222187Y-124749162D01*
X165942886Y-124272366D01*
X165863022Y-124136029D01*
X165861797Y-124127159D01*
X165864298Y-124122427D01*
X165923110Y-124054968D01*
X165923111Y-124054967D01*
X165923395Y-124054641D01*
X165931207Y-124042370D01*
X165968341Y-123984035D01*
X165968566Y-123983682D01*
X165999432Y-123914813D01*
X166021145Y-123846953D01*
X166038856Y-123779023D01*
X166057607Y-123710347D01*
X166057861Y-123709536D01*
X166060648Y-123701637D01*
X166082650Y-123639283D01*
X166083177Y-123638026D01*
X166119140Y-123564736D01*
X166119940Y-123563354D01*
X166142586Y-123529733D01*
X166172273Y-123485659D01*
X166173223Y-123484433D01*
X166239435Y-123409833D01*
X166247489Y-123405921D01*
X166256458Y-123409327D01*
G37*
%TD.AperFunction*%
%TD*%
%TA.AperFunction,Conductor*%
%TO.N,Net-(Q2-Pad2)*%
G36*
X170577462Y-121285937D02*
G01*
X170826077Y-121525018D01*
X171190016Y-121875000D01*
X171311231Y-121991567D01*
X171314819Y-121999771D01*
X171311231Y-122008433D01*
X171152144Y-122161419D01*
X170577462Y-122714063D01*
X170569123Y-122717328D01*
X170563764Y-122715909D01*
X170422897Y-122639331D01*
X170421998Y-122638789D01*
X170298927Y-122556792D01*
X170298277Y-122556326D01*
X170192617Y-122474981D01*
X170192334Y-122474757D01*
X170096732Y-122396349D01*
X170096693Y-122396317D01*
X170003984Y-122323331D01*
X170003803Y-122323210D01*
X170003794Y-122323203D01*
X169962963Y-122295814D01*
X169907008Y-122258278D01*
X169866242Y-122237723D01*
X169798826Y-122203730D01*
X169798819Y-122203727D01*
X169798444Y-122203538D01*
X169670968Y-122161492D01*
X169517261Y-122134519D01*
X169516909Y-122134501D01*
X169516908Y-122134501D01*
X169497482Y-122133514D01*
X169341105Y-122125564D01*
X169333018Y-122121722D01*
X169330000Y-122113880D01*
X169330000Y-121886120D01*
X169333427Y-121877847D01*
X169341105Y-121874435D01*
X169495559Y-121866583D01*
X169516908Y-121865498D01*
X169516909Y-121865498D01*
X169517261Y-121865480D01*
X169670968Y-121838507D01*
X169798444Y-121796461D01*
X169798819Y-121796272D01*
X169798826Y-121796269D01*
X169866242Y-121762276D01*
X169907008Y-121741721D01*
X169962963Y-121704185D01*
X170003794Y-121676796D01*
X170003803Y-121676789D01*
X170003984Y-121676668D01*
X170096693Y-121603682D01*
X170192336Y-121525240D01*
X170192617Y-121525018D01*
X170298277Y-121443673D01*
X170298927Y-121443207D01*
X170421997Y-121361211D01*
X170422896Y-121360669D01*
X170563764Y-121284091D01*
X170572669Y-121283150D01*
X170577462Y-121285937D01*
G37*
%TD.AperFunction*%
%TD*%
%TA.AperFunction,Conductor*%
%TO.N,Net-(Q2-Pad3)*%
G36*
X161646594Y-112243311D02*
G01*
X161807689Y-112404406D01*
X161811116Y-112412679D01*
X161808120Y-112420497D01*
X161666952Y-112577666D01*
X161657719Y-112587945D01*
X161546692Y-112749557D01*
X161546499Y-112749957D01*
X161546498Y-112749959D01*
X161473661Y-112901039D01*
X161473464Y-112901448D01*
X161429053Y-113047982D01*
X161404473Y-113193526D01*
X161404453Y-113193740D01*
X161404453Y-113193742D01*
X161390741Y-113342444D01*
X161378890Y-113498893D01*
X161378850Y-113499317D01*
X161359935Y-113667427D01*
X161359804Y-113668297D01*
X161324900Y-113852549D01*
X161324635Y-113853651D01*
X161267025Y-114050925D01*
X161261416Y-114057906D01*
X161256023Y-114059343D01*
X161161537Y-114061190D01*
X159978612Y-114084315D01*
X159970273Y-114081050D01*
X159966685Y-114072388D01*
X159991657Y-112794977D01*
X159995245Y-112786773D01*
X160000075Y-112783975D01*
X160197348Y-112726364D01*
X160198450Y-112726099D01*
X160382702Y-112691195D01*
X160383572Y-112691064D01*
X160529304Y-112674667D01*
X160551686Y-112672149D01*
X160552101Y-112672109D01*
X160708555Y-112660258D01*
X160764249Y-112655122D01*
X160857257Y-112646546D01*
X160857259Y-112646546D01*
X160857473Y-112646526D01*
X160857680Y-112646491D01*
X160857688Y-112646490D01*
X160932406Y-112633871D01*
X161003017Y-112621946D01*
X161003358Y-112621843D01*
X161003365Y-112621841D01*
X161116140Y-112587661D01*
X161149551Y-112577535D01*
X161301442Y-112504307D01*
X161463054Y-112393280D01*
X161630503Y-112242880D01*
X161638948Y-112239901D01*
X161646594Y-112243311D01*
G37*
%TD.AperFunction*%
%TD*%
%TA.AperFunction,Conductor*%
%TO.N,Net-(Q3-Pad2)*%
G36*
X166256458Y-128409327D02*
G01*
X166417070Y-128569939D01*
X166420497Y-128578212D01*
X166417954Y-128585495D01*
X166364200Y-128653078D01*
X166363878Y-128653947D01*
X166338710Y-128721810D01*
X166338710Y-128721813D01*
X166338303Y-128722909D01*
X166338355Y-128724081D01*
X166340792Y-128778893D01*
X166341219Y-128788506D01*
X166367401Y-128851560D01*
X166411302Y-128913761D01*
X166467378Y-128976801D01*
X166474296Y-128984035D01*
X166530000Y-129042285D01*
X166530166Y-129042463D01*
X166540962Y-129054274D01*
X166593564Y-129111826D01*
X166594131Y-129112495D01*
X166606884Y-129128769D01*
X166652718Y-129187258D01*
X166653577Y-129188515D01*
X166671833Y-129219354D01*
X166697968Y-129263503D01*
X166699234Y-129272366D01*
X166696333Y-129277571D01*
X166240715Y-129751358D01*
X166232511Y-129754946D01*
X166224172Y-129751681D01*
X166222187Y-129749162D01*
X165942886Y-129272366D01*
X165863022Y-129136029D01*
X165861797Y-129127159D01*
X165864298Y-129122427D01*
X165923110Y-129054968D01*
X165923111Y-129054967D01*
X165923395Y-129054641D01*
X165931207Y-129042370D01*
X165968341Y-128984035D01*
X165968566Y-128983682D01*
X165999432Y-128914813D01*
X166021145Y-128846953D01*
X166038856Y-128779023D01*
X166057607Y-128710347D01*
X166057861Y-128709536D01*
X166060648Y-128701637D01*
X166082650Y-128639283D01*
X166083177Y-128638026D01*
X166119140Y-128564736D01*
X166119940Y-128563354D01*
X166142586Y-128529733D01*
X166172273Y-128485659D01*
X166173223Y-128484433D01*
X166239435Y-128409833D01*
X166247489Y-128405921D01*
X166256458Y-128409327D01*
G37*
%TD.AperFunction*%
%TD*%
%TA.AperFunction,Conductor*%
%TO.N,Net-(Q3-Pad2)*%
G36*
X170361969Y-124438799D02*
G01*
X171306662Y-124992187D01*
X171312068Y-124999325D01*
X171310843Y-125008196D01*
X171308859Y-125010714D01*
X171168426Y-125145762D01*
X170577534Y-125713994D01*
X170569195Y-125717259D01*
X170563723Y-125715778D01*
X170518400Y-125690488D01*
X170452001Y-125653438D01*
X170451134Y-125652903D01*
X170341471Y-125578337D01*
X170341049Y-125578036D01*
X170238379Y-125501360D01*
X170141051Y-125429154D01*
X170141045Y-125429150D01*
X170140897Y-125429040D01*
X170140763Y-125428952D01*
X170140748Y-125428942D01*
X170047121Y-125367796D01*
X170046795Y-125367583D01*
X170046450Y-125367419D01*
X170046444Y-125367415D01*
X169954649Y-125323623D01*
X169954650Y-125323623D01*
X169954052Y-125323338D01*
X169860650Y-125302655D01*
X169859734Y-125302743D01*
X169765526Y-125311792D01*
X169765525Y-125311792D01*
X169764570Y-125311884D01*
X169763699Y-125312277D01*
X169763696Y-125312278D01*
X169738564Y-125323623D01*
X169663793Y-125357375D01*
X169663200Y-125357861D01*
X169564496Y-125438759D01*
X169555925Y-125441353D01*
X169548806Y-125437983D01*
X169387927Y-125277104D01*
X169384500Y-125268831D01*
X169388057Y-125260430D01*
X169506117Y-125146033D01*
X169506406Y-125145762D01*
X169616550Y-125046258D01*
X169616871Y-125045978D01*
X169714420Y-124964108D01*
X169714716Y-124963868D01*
X169803372Y-124894254D01*
X169803569Y-124894103D01*
X169887052Y-124831366D01*
X169887081Y-124831344D01*
X169969089Y-124770117D01*
X170053106Y-124705185D01*
X170053150Y-124705151D01*
X170142930Y-124631097D01*
X170242096Y-124542601D01*
X170347931Y-124440475D01*
X170356264Y-124437196D01*
X170361969Y-124438799D01*
G37*
%TD.AperFunction*%
%TD*%
%TA.AperFunction,Conductor*%
%TO.N,Net-(Q3-Pad3)*%
G36*
X161646594Y-118974311D02*
G01*
X161807689Y-119135406D01*
X161811116Y-119143679D01*
X161808120Y-119151497D01*
X161666952Y-119308666D01*
X161657719Y-119318945D01*
X161546692Y-119480557D01*
X161546499Y-119480957D01*
X161546498Y-119480959D01*
X161473661Y-119632039D01*
X161473464Y-119632448D01*
X161429053Y-119778982D01*
X161404473Y-119924526D01*
X161404453Y-119924740D01*
X161404453Y-119924742D01*
X161390741Y-120073444D01*
X161378890Y-120229893D01*
X161378850Y-120230317D01*
X161359935Y-120398427D01*
X161359804Y-120399297D01*
X161324900Y-120583549D01*
X161324635Y-120584651D01*
X161267025Y-120781925D01*
X161261416Y-120788906D01*
X161256023Y-120790343D01*
X161161537Y-120792190D01*
X159978612Y-120815315D01*
X159970273Y-120812050D01*
X159966685Y-120803388D01*
X159991657Y-119525977D01*
X159995245Y-119517773D01*
X160000075Y-119514975D01*
X160197348Y-119457364D01*
X160198450Y-119457099D01*
X160382702Y-119422195D01*
X160383572Y-119422064D01*
X160529304Y-119405667D01*
X160551686Y-119403149D01*
X160552101Y-119403109D01*
X160708555Y-119391258D01*
X160764249Y-119386122D01*
X160857257Y-119377546D01*
X160857259Y-119377546D01*
X160857473Y-119377526D01*
X160857680Y-119377491D01*
X160857688Y-119377490D01*
X160932406Y-119364871D01*
X161003017Y-119352946D01*
X161003358Y-119352843D01*
X161003365Y-119352841D01*
X161116140Y-119318661D01*
X161149551Y-119308535D01*
X161301442Y-119235307D01*
X161463054Y-119124280D01*
X161630503Y-118973880D01*
X161638948Y-118970901D01*
X161646594Y-118974311D01*
G37*
%TD.AperFunction*%
%TD*%
%TA.AperFunction,Conductor*%
%TO.N,Net-(Q4-Pad2)*%
G36*
X171199016Y-127720661D02*
G01*
X171202604Y-127729323D01*
X171182707Y-128747130D01*
X171179119Y-128755334D01*
X171174326Y-128758121D01*
X171020564Y-128803581D01*
X171019545Y-128803833D01*
X170899380Y-128827902D01*
X170874542Y-128832877D01*
X170873759Y-128833005D01*
X170741477Y-128850205D01*
X170741164Y-128850241D01*
X170618072Y-128862404D01*
X170500908Y-128876349D01*
X170386337Y-128898922D01*
X170270864Y-128936982D01*
X170150994Y-128997390D01*
X170023234Y-129087004D01*
X169946847Y-129156001D01*
X169892341Y-129205233D01*
X169883905Y-129208236D01*
X169876226Y-129204824D01*
X169715176Y-129043774D01*
X169711749Y-129035501D01*
X169714766Y-129027660D01*
X169832995Y-128896765D01*
X169865656Y-128850202D01*
X169922369Y-128769347D01*
X169922609Y-128769005D01*
X169983017Y-128649135D01*
X170021077Y-128533662D01*
X170043650Y-128419091D01*
X170057595Y-128301927D01*
X170069758Y-128178835D01*
X170069797Y-128178496D01*
X170086993Y-128046243D01*
X170087123Y-128045454D01*
X170116166Y-127900454D01*
X170116418Y-127899435D01*
X170161879Y-127745674D01*
X170167511Y-127738712D01*
X170172870Y-127737293D01*
X171190677Y-127717396D01*
X171199016Y-127720661D01*
G37*
%TD.AperFunction*%
%TD*%
%TA.AperFunction,Conductor*%
%TO.N,Net-(Q4-Pad2)*%
G36*
X166352064Y-133458427D02*
G01*
X166355480Y-133466198D01*
X166360195Y-133576266D01*
X166375016Y-133676904D01*
X166398316Y-133761344D01*
X166428948Y-133834018D01*
X166465766Y-133899358D01*
X166507623Y-133961795D01*
X166553371Y-134025763D01*
X166601707Y-134095463D01*
X166601999Y-134095905D01*
X166651740Y-134175665D01*
X166652145Y-134176367D01*
X166698523Y-134263671D01*
X166699377Y-134272585D01*
X166696624Y-134277268D01*
X166238433Y-134753731D01*
X166230229Y-134757319D01*
X166221567Y-134753731D01*
X165763377Y-134277269D01*
X165760112Y-134268931D01*
X165761477Y-134263671D01*
X165807855Y-134176367D01*
X165808260Y-134175665D01*
X165833867Y-134134603D01*
X165858000Y-134095905D01*
X165858292Y-134095463D01*
X165906628Y-134025763D01*
X165952376Y-133961795D01*
X165994233Y-133899358D01*
X166031051Y-133834018D01*
X166061683Y-133761344D01*
X166084983Y-133676904D01*
X166099804Y-133576266D01*
X166104520Y-133466199D01*
X166108298Y-133458080D01*
X166116209Y-133455000D01*
X166343791Y-133455000D01*
X166352064Y-133458427D01*
G37*
%TD.AperFunction*%
%TD*%
%TA.AperFunction,Conductor*%
%TO.N,Net-(Q4-Pad3)*%
G36*
X161646594Y-125705311D02*
G01*
X161807689Y-125866406D01*
X161811116Y-125874679D01*
X161808120Y-125882497D01*
X161666952Y-126039666D01*
X161657719Y-126049945D01*
X161546692Y-126211557D01*
X161546499Y-126211957D01*
X161546498Y-126211959D01*
X161473661Y-126363039D01*
X161473464Y-126363448D01*
X161429053Y-126509982D01*
X161404473Y-126655526D01*
X161404453Y-126655740D01*
X161404453Y-126655742D01*
X161390741Y-126804444D01*
X161378890Y-126960893D01*
X161378850Y-126961317D01*
X161359935Y-127129427D01*
X161359804Y-127130297D01*
X161324900Y-127314549D01*
X161324635Y-127315651D01*
X161267025Y-127512925D01*
X161261416Y-127519906D01*
X161256023Y-127521343D01*
X161161537Y-127523190D01*
X159978612Y-127546315D01*
X159970273Y-127543050D01*
X159966685Y-127534388D01*
X159991657Y-126256977D01*
X159995245Y-126248773D01*
X160000075Y-126245975D01*
X160197348Y-126188364D01*
X160198450Y-126188099D01*
X160382702Y-126153195D01*
X160383572Y-126153064D01*
X160529304Y-126136667D01*
X160551686Y-126134149D01*
X160552101Y-126134109D01*
X160708555Y-126122258D01*
X160764249Y-126117122D01*
X160857257Y-126108546D01*
X160857259Y-126108546D01*
X160857473Y-126108526D01*
X160857680Y-126108491D01*
X160857688Y-126108490D01*
X160932406Y-126095871D01*
X161003017Y-126083946D01*
X161003358Y-126083843D01*
X161003365Y-126083841D01*
X161116140Y-126049661D01*
X161149551Y-126039535D01*
X161301442Y-125966307D01*
X161463054Y-125855280D01*
X161630503Y-125704880D01*
X161638948Y-125701901D01*
X161646594Y-125705311D01*
G37*
%TD.AperFunction*%
%TD*%
%TA.AperFunction,Conductor*%
%TO.N,/GPIO02*%
G36*
X181780778Y-124617143D02*
G01*
X181784335Y-124621400D01*
X181859239Y-124773848D01*
X181859683Y-124774873D01*
X181914126Y-124918984D01*
X181914425Y-124919885D01*
X181952477Y-125052203D01*
X181952618Y-125052743D01*
X181981851Y-125177041D01*
X182009753Y-125296646D01*
X182043840Y-125414826D01*
X182043947Y-125415095D01*
X182091554Y-125534784D01*
X182091557Y-125534791D01*
X182091687Y-125535117D01*
X182160871Y-125661051D01*
X182161078Y-125661336D01*
X182161083Y-125661344D01*
X182258783Y-125795909D01*
X182258788Y-125795916D01*
X182258968Y-125796163D01*
X182386039Y-125935732D01*
X182389075Y-125944156D01*
X182385661Y-125951881D01*
X182224624Y-126112918D01*
X182216351Y-126116345D01*
X182208528Y-126113345D01*
X182208054Y-126112918D01*
X182084054Y-126001431D01*
X182011859Y-125951881D01*
X181962044Y-125917691D01*
X181962040Y-125917688D01*
X181961663Y-125917430D01*
X181846224Y-125862692D01*
X181845748Y-125862558D01*
X181845746Y-125862557D01*
X181795803Y-125848474D01*
X181734356Y-125831147D01*
X181733933Y-125831092D01*
X181733931Y-125831092D01*
X181690550Y-125825492D01*
X181622675Y-125816729D01*
X181535503Y-125814180D01*
X181507944Y-125813374D01*
X181507937Y-125813374D01*
X181507802Y-125813370D01*
X181466341Y-125813926D01*
X181386412Y-125814999D01*
X181386304Y-125815000D01*
X181323836Y-125815264D01*
X181255230Y-125815553D01*
X181254666Y-125815541D01*
X181197161Y-125812922D01*
X181110649Y-125808982D01*
X181109757Y-125808907D01*
X180957203Y-125790195D01*
X180949408Y-125785786D01*
X180947136Y-125780781D01*
X180755774Y-124780890D01*
X180757584Y-124772120D01*
X180765517Y-124767122D01*
X181161658Y-124707250D01*
X181772087Y-124614991D01*
X181780778Y-124617143D01*
G37*
%TD.AperFunction*%
%TD*%
%TA.AperFunction,Conductor*%
%TO.N,/GPIO03*%
G36*
X181827130Y-127737293D02*
G01*
X181835334Y-127740881D01*
X181838121Y-127745674D01*
X181883581Y-127899435D01*
X181883833Y-127900454D01*
X181912876Y-128045454D01*
X181913006Y-128046243D01*
X181930202Y-128178496D01*
X181930241Y-128178835D01*
X181942404Y-128301927D01*
X181956349Y-128419091D01*
X181978922Y-128533662D01*
X182016982Y-128649135D01*
X182077390Y-128769005D01*
X182077630Y-128769347D01*
X182134344Y-128850202D01*
X182167004Y-128896765D01*
X182167244Y-128897031D01*
X182167253Y-128897042D01*
X182285233Y-129027659D01*
X182288236Y-129036095D01*
X182284824Y-129043774D01*
X182123774Y-129204824D01*
X182115501Y-129208251D01*
X182107659Y-129205233D01*
X181977042Y-129087253D01*
X181977031Y-129087244D01*
X181976765Y-129087004D01*
X181849005Y-128997390D01*
X181729135Y-128936982D01*
X181613662Y-128898922D01*
X181499091Y-128876349D01*
X181381927Y-128862404D01*
X181258835Y-128850241D01*
X181258522Y-128850205D01*
X181126240Y-128833005D01*
X181125457Y-128832877D01*
X181100619Y-128827902D01*
X180980454Y-128803833D01*
X180979435Y-128803581D01*
X180825674Y-128758121D01*
X180818712Y-128752489D01*
X180817293Y-128747130D01*
X180797396Y-127729323D01*
X180800661Y-127720984D01*
X180809323Y-127717396D01*
X181827130Y-127737293D01*
G37*
%TD.AperFunction*%
%TD*%
%TA.AperFunction,Conductor*%
%TO.N,/GPIO12*%
G36*
X174786237Y-114559091D02*
G01*
X174927116Y-114635676D01*
X174927989Y-114636202D01*
X175027291Y-114702363D01*
X175051072Y-114718207D01*
X175051722Y-114718673D01*
X175157382Y-114800018D01*
X175157663Y-114800240D01*
X175253306Y-114878682D01*
X175346015Y-114951668D01*
X175346196Y-114951789D01*
X175346205Y-114951796D01*
X175387036Y-114979185D01*
X175442991Y-115016721D01*
X175483757Y-115037276D01*
X175551173Y-115071269D01*
X175551180Y-115071272D01*
X175551555Y-115071461D01*
X175679031Y-115113507D01*
X175832738Y-115140480D01*
X175833090Y-115140498D01*
X175833091Y-115140498D01*
X175854330Y-115141578D01*
X176008895Y-115149435D01*
X176016983Y-115153278D01*
X176020000Y-115161120D01*
X176020000Y-115388880D01*
X176016573Y-115397153D01*
X176008895Y-115400564D01*
X175852432Y-115408518D01*
X175833091Y-115409501D01*
X175833090Y-115409501D01*
X175832738Y-115409519D01*
X175679031Y-115436492D01*
X175551555Y-115478538D01*
X175551180Y-115478727D01*
X175551173Y-115478730D01*
X175483757Y-115512723D01*
X175442991Y-115533278D01*
X175387036Y-115570814D01*
X175346205Y-115598203D01*
X175346196Y-115598210D01*
X175346015Y-115598331D01*
X175253306Y-115671317D01*
X175253267Y-115671349D01*
X175157665Y-115749757D01*
X175157382Y-115749981D01*
X175051722Y-115831326D01*
X175051072Y-115831792D01*
X174928001Y-115913789D01*
X174927102Y-115914331D01*
X174786236Y-115990909D01*
X174777331Y-115991850D01*
X174772538Y-115989063D01*
X174197856Y-115436419D01*
X174038769Y-115283433D01*
X174035181Y-115275229D01*
X174038769Y-115266567D01*
X174159985Y-115150000D01*
X174523923Y-114800018D01*
X174772538Y-114560937D01*
X174780877Y-114557672D01*
X174786237Y-114559091D01*
G37*
%TD.AperFunction*%
%TD*%
%TA.AperFunction,Conductor*%
%TO.N,/GPIO13*%
G36*
X174372343Y-108887841D02*
G01*
X174373904Y-108888814D01*
X175191553Y-109492972D01*
X175196170Y-109500645D01*
X175195742Y-109505951D01*
X175157809Y-109624378D01*
X175157670Y-109624786D01*
X175115726Y-109740743D01*
X175076347Y-109848498D01*
X175043700Y-109949925D01*
X175021877Y-110047096D01*
X175021845Y-110047530D01*
X175021845Y-110047533D01*
X175019325Y-110082213D01*
X175014974Y-110142084D01*
X175027083Y-110236961D01*
X175062298Y-110333799D01*
X175124714Y-110434670D01*
X175125032Y-110435033D01*
X175211207Y-110533409D01*
X175214081Y-110541890D01*
X175210679Y-110549391D01*
X175049680Y-110710390D01*
X175041407Y-110713817D01*
X175033382Y-110710630D01*
X174894873Y-110580038D01*
X174763768Y-110471701D01*
X174712682Y-110435033D01*
X174645019Y-110386466D01*
X174645011Y-110386461D01*
X174644875Y-110386363D01*
X174534739Y-110316972D01*
X174429905Y-110256478D01*
X174327053Y-110197907D01*
X174326753Y-110197730D01*
X174222619Y-110134160D01*
X174222044Y-110133786D01*
X174113003Y-110058109D01*
X174112324Y-110057600D01*
X173994806Y-109962723D01*
X173994163Y-109962164D01*
X173872529Y-109848370D01*
X173870794Y-109846746D01*
X173867093Y-109838592D01*
X173868404Y-109832811D01*
X174038154Y-109505951D01*
X174356569Y-108892831D01*
X174363422Y-108887069D01*
X174372343Y-108887841D01*
G37*
%TD.AperFunction*%
%TD*%
M02*
