%TF.GenerationSoftware,KiCad,Pcbnew,(6.0.7)*%
%TF.CreationDate,2023-01-15T20:37:24-05:00*%
%TF.ProjectId,ESPoules,4553506f-756c-4657-932e-6b696361645f,rev?*%
%TF.SameCoordinates,Original*%
%TF.FileFunction,Paste,Top*%
%TF.FilePolarity,Positive*%
%FSLAX46Y46*%
G04 Gerber Fmt 4.6, Leading zero omitted, Abs format (unit mm)*
G04 Created by KiCad (PCBNEW (6.0.7)) date 2023-01-15 20:37:24*
%MOMM*%
%LPD*%
G01*
G04 APERTURE LIST*
G04 Aperture macros list*
%AMRoundRect*
0 Rectangle with rounded corners*
0 $1 Rounding radius*
0 $2 $3 $4 $5 $6 $7 $8 $9 X,Y pos of 4 corners*
0 Add a 4 corners polygon primitive as box body*
4,1,4,$2,$3,$4,$5,$6,$7,$8,$9,$2,$3,0*
0 Add four circle primitives for the rounded corners*
1,1,$1+$1,$2,$3*
1,1,$1+$1,$4,$5*
1,1,$1+$1,$6,$7*
1,1,$1+$1,$8,$9*
0 Add four rect primitives between the rounded corners*
20,1,$1+$1,$2,$3,$4,$5,0*
20,1,$1+$1,$4,$5,$6,$7,0*
20,1,$1+$1,$6,$7,$8,$9,0*
20,1,$1+$1,$8,$9,$2,$3,0*%
G04 Aperture macros list end*
%ADD10RoundRect,0.250001X0.624999X-0.462499X0.624999X0.462499X-0.624999X0.462499X-0.624999X-0.462499X0*%
%ADD11RoundRect,0.250000X0.450000X-0.350000X0.450000X0.350000X-0.450000X0.350000X-0.450000X-0.350000X0*%
%ADD12RoundRect,0.250001X-0.624999X0.462499X-0.624999X-0.462499X0.624999X-0.462499X0.624999X0.462499X0*%
%ADD13RoundRect,0.150000X-0.825000X-0.150000X0.825000X-0.150000X0.825000X0.150000X-0.825000X0.150000X0*%
%ADD14RoundRect,0.250000X-0.450000X0.350000X-0.450000X-0.350000X0.450000X-0.350000X0.450000X0.350000X0*%
%ADD15R,2.500000X1.000000*%
%ADD16R,1.000000X1.800000*%
%ADD17RoundRect,0.250001X0.462499X0.624999X-0.462499X0.624999X-0.462499X-0.624999X0.462499X-0.624999X0*%
%ADD18RoundRect,0.150000X-0.512500X-0.150000X0.512500X-0.150000X0.512500X0.150000X-0.512500X0.150000X0*%
%ADD19R,0.500000X2.500000*%
%ADD20R,2.000000X2.500000*%
G04 APERTURE END LIST*
D10*
%TO.C,D2*%
X160000000Y-99975000D03*
X160000000Y-97000000D03*
%TD*%
D11*
%TO.C,R21*%
X202000000Y-104000000D03*
X202000000Y-102000000D03*
%TD*%
%TO.C,R12*%
X163000000Y-104000000D03*
X163000000Y-102000000D03*
%TD*%
D12*
%TO.C,D8*%
X193000000Y-97012500D03*
X193000000Y-99987500D03*
%TD*%
D10*
%TO.C,D3*%
X163000000Y-99975000D03*
X163000000Y-97000000D03*
%TD*%
D13*
%TO.C,U8*%
X169525000Y-140095000D03*
X169525000Y-141365000D03*
X169525000Y-142635000D03*
X169525000Y-143905000D03*
X174475000Y-143905000D03*
X174475000Y-142635000D03*
X174475000Y-141365000D03*
X174475000Y-140095000D03*
%TD*%
D11*
%TO.C,R20*%
X199000000Y-104000000D03*
X199000000Y-102000000D03*
%TD*%
D12*
%TO.C,D9*%
X196000000Y-97012500D03*
X196000000Y-99987500D03*
%TD*%
D14*
%TO.C,R6*%
X208000000Y-135750000D03*
X208000000Y-137750000D03*
%TD*%
D11*
%TO.C,R11*%
X160000000Y-104000000D03*
X160000000Y-102000000D03*
%TD*%
D15*
%TO.C,U1*%
X200600000Y-137500000D03*
X200600000Y-135500000D03*
X200600000Y-133500000D03*
X200600000Y-131500000D03*
X200600000Y-129500000D03*
X200600000Y-127500000D03*
X200600000Y-125500000D03*
X200600000Y-123500000D03*
D16*
X198000000Y-122000000D03*
X196000000Y-122000000D03*
X194000000Y-122000000D03*
X192000000Y-122000000D03*
X190000000Y-122000000D03*
X188000000Y-122000000D03*
D15*
X185400000Y-123500000D03*
X185400000Y-125500000D03*
X185400000Y-127500000D03*
X185400000Y-129500000D03*
X185400000Y-131500000D03*
X185400000Y-133500000D03*
X185400000Y-135500000D03*
X185400000Y-137500000D03*
%TD*%
D17*
%TO.C,D7*%
X207987500Y-104500000D03*
X205012500Y-104500000D03*
%TD*%
D18*
%TO.C,U2*%
X156862500Y-138050000D03*
X156862500Y-139000000D03*
X156862500Y-139950000D03*
X159137500Y-139950000D03*
X159137500Y-138050000D03*
%TD*%
D10*
%TO.C,D4*%
X166000000Y-99975000D03*
X166000000Y-97000000D03*
%TD*%
D12*
%TO.C,D10*%
X199000000Y-97012500D03*
X199000000Y-99987500D03*
%TD*%
D11*
%TO.C,R13*%
X166000000Y-104000000D03*
X166000000Y-102000000D03*
%TD*%
D10*
%TO.C,D1*%
X208000000Y-133487500D03*
X208000000Y-130512500D03*
%TD*%
D14*
%TO.C,R5*%
X205750000Y-135750000D03*
X205750000Y-137750000D03*
%TD*%
D11*
%TO.C,R19*%
X196000000Y-104000000D03*
X196000000Y-102000000D03*
%TD*%
D10*
%TO.C,D5*%
X169000000Y-99975000D03*
X169000000Y-97000000D03*
%TD*%
D17*
%TO.C,D6*%
X207987500Y-107250000D03*
X205012500Y-107250000D03*
%TD*%
D11*
%TO.C,R14*%
X169000000Y-104000000D03*
X169000000Y-102000000D03*
%TD*%
%TO.C,R4*%
X193000000Y-104000000D03*
X193000000Y-102000000D03*
%TD*%
D19*
%TO.C,J1*%
X150400000Y-143875000D03*
X151200000Y-143875000D03*
X152000000Y-143875000D03*
X152800000Y-143875000D03*
X153600000Y-143875000D03*
D20*
X147600000Y-149375000D03*
X156400000Y-143875000D03*
X156400000Y-149375000D03*
X147600000Y-143875000D03*
%TD*%
D12*
%TO.C,D11*%
X202000000Y-97012500D03*
X202000000Y-99987500D03*
%TD*%
M02*
