%TF.GenerationSoftware,KiCad,Pcbnew,(6.0.7)*%
%TF.CreationDate,2023-01-15T20:37:24-05:00*%
%TF.ProjectId,ESPoules,4553506f-756c-4657-932e-6b696361645f,rev?*%
%TF.SameCoordinates,Original*%
%TF.FileFunction,Copper,L1,Top*%
%TF.FilePolarity,Positive*%
%FSLAX46Y46*%
G04 Gerber Fmt 4.6, Leading zero omitted, Abs format (unit mm)*
G04 Created by KiCad (PCBNEW (6.0.7)) date 2023-01-15 20:37:24*
%MOMM*%
%LPD*%
G01*
G04 APERTURE LIST*
G04 Aperture macros list*
%AMRoundRect*
0 Rectangle with rounded corners*
0 $1 Rounding radius*
0 $2 $3 $4 $5 $6 $7 $8 $9 X,Y pos of 4 corners*
0 Add a 4 corners polygon primitive as box body*
4,1,4,$2,$3,$4,$5,$6,$7,$8,$9,$2,$3,0*
0 Add four circle primitives for the rounded corners*
1,1,$1+$1,$2,$3*
1,1,$1+$1,$4,$5*
1,1,$1+$1,$6,$7*
1,1,$1+$1,$8,$9*
0 Add four rect primitives between the rounded corners*
20,1,$1+$1,$2,$3,$4,$5,0*
20,1,$1+$1,$4,$5,$6,$7,0*
20,1,$1+$1,$6,$7,$8,$9,0*
20,1,$1+$1,$8,$9,$2,$3,0*%
G04 Aperture macros list end*
%TA.AperFunction,SMDPad,CuDef*%
%ADD10RoundRect,0.250001X0.624999X-0.462499X0.624999X0.462499X-0.624999X0.462499X-0.624999X-0.462499X0*%
%TD*%
%TA.AperFunction,ComponentPad*%
%ADD11C,1.400000*%
%TD*%
%TA.AperFunction,ComponentPad*%
%ADD12R,1.700000X1.700000*%
%TD*%
%TA.AperFunction,ComponentPad*%
%ADD13O,1.700000X1.700000*%
%TD*%
%TA.AperFunction,ComponentPad*%
%ADD14R,2.000000X3.000000*%
%TD*%
%TA.AperFunction,ComponentPad*%
%ADD15O,2.000000X3.000000*%
%TD*%
%TA.AperFunction,ComponentPad*%
%ADD16C,1.600000*%
%TD*%
%TA.AperFunction,ComponentPad*%
%ADD17O,1.600000X1.600000*%
%TD*%
%TA.AperFunction,SMDPad,CuDef*%
%ADD18RoundRect,0.250000X0.450000X-0.350000X0.450000X0.350000X-0.450000X0.350000X-0.450000X-0.350000X0*%
%TD*%
%TA.AperFunction,SMDPad,CuDef*%
%ADD19RoundRect,0.250001X-0.624999X0.462499X-0.624999X-0.462499X0.624999X-0.462499X0.624999X0.462499X0*%
%TD*%
%TA.AperFunction,ComponentPad*%
%ADD20R,1.600000X1.600000*%
%TD*%
%TA.AperFunction,ComponentPad*%
%ADD21R,2.000000X1.905000*%
%TD*%
%TA.AperFunction,ComponentPad*%
%ADD22O,2.000000X1.905000*%
%TD*%
%TA.AperFunction,ComponentPad*%
%ADD23R,1.050000X1.500000*%
%TD*%
%TA.AperFunction,ComponentPad*%
%ADD24O,1.050000X1.500000*%
%TD*%
%TA.AperFunction,SMDPad,CuDef*%
%ADD25RoundRect,0.150000X-0.825000X-0.150000X0.825000X-0.150000X0.825000X0.150000X-0.825000X0.150000X0*%
%TD*%
%TA.AperFunction,SMDPad,CuDef*%
%ADD26RoundRect,0.250000X-0.450000X0.350000X-0.450000X-0.350000X0.450000X-0.350000X0.450000X0.350000X0*%
%TD*%
%TA.AperFunction,ComponentPad*%
%ADD27RoundRect,0.250000X-0.650000X-1.550000X0.650000X-1.550000X0.650000X1.550000X-0.650000X1.550000X0*%
%TD*%
%TA.AperFunction,ComponentPad*%
%ADD28O,1.800000X3.600000*%
%TD*%
%TA.AperFunction,ComponentPad*%
%ADD29RoundRect,0.250000X1.550000X-0.650000X1.550000X0.650000X-1.550000X0.650000X-1.550000X-0.650000X0*%
%TD*%
%TA.AperFunction,ComponentPad*%
%ADD30O,3.600000X1.800000*%
%TD*%
%TA.AperFunction,SMDPad,CuDef*%
%ADD31R,2.500000X1.000000*%
%TD*%
%TA.AperFunction,SMDPad,CuDef*%
%ADD32R,1.000000X1.800000*%
%TD*%
%TA.AperFunction,SMDPad,CuDef*%
%ADD33RoundRect,0.250001X0.462499X0.624999X-0.462499X0.624999X-0.462499X-0.624999X0.462499X-0.624999X0*%
%TD*%
%TA.AperFunction,SMDPad,CuDef*%
%ADD34RoundRect,0.150000X-0.512500X-0.150000X0.512500X-0.150000X0.512500X0.150000X-0.512500X0.150000X0*%
%TD*%
%TA.AperFunction,SMDPad,CuDef*%
%ADD35R,0.500000X2.500000*%
%TD*%
%TA.AperFunction,SMDPad,CuDef*%
%ADD36R,2.000000X2.500000*%
%TD*%
%TA.AperFunction,ComponentPad*%
%ADD37RoundRect,0.250000X-1.550000X0.650000X-1.550000X-0.650000X1.550000X-0.650000X1.550000X0.650000X0*%
%TD*%
%TA.AperFunction,ViaPad*%
%ADD38C,0.800000*%
%TD*%
%TA.AperFunction,Conductor*%
%ADD39C,0.250000*%
%TD*%
%TA.AperFunction,Conductor*%
%ADD40C,0.500000*%
%TD*%
%TA.AperFunction,Conductor*%
%ADD41C,1.000000*%
%TD*%
G04 APERTURE END LIST*
D10*
%TO.P,D2,1,K*%
%TO.N,Net-(D2-Pad1)*%
X160000000Y-99975000D03*
%TO.P,D2,2,A*%
%TO.N,+5V*%
X160000000Y-97000000D03*
%TD*%
D11*
%TO.P,REF\u002A\u002A,1*%
%TO.N,+3.3V*%
X162540000Y-149540000D03*
%TD*%
D12*
%TO.P,J9,1,NC*%
%TO.N,unconnected-(J9-Pad1)*%
X177000000Y-151000000D03*
D13*
%TO.P,J9,2,Vcc*%
%TO.N,+5V*%
X179540000Y-151000000D03*
%TO.P,J9,3,GND*%
%TO.N,GND*%
X182080000Y-151000000D03*
%TO.P,J9,4,Vout*%
%TO.N,Net-(R1-Pad1)*%
X184620000Y-151000000D03*
%TO.P,J9,5,NC*%
%TO.N,unconnected-(J9-Pad5)*%
X187160000Y-151000000D03*
%TO.P,J9,6,NC*%
%TO.N,unconnected-(J9-Pad6)*%
X189700000Y-151000000D03*
%TD*%
D11*
%TO.P,REF\u002A\u002A,1*%
%TO.N,+3.3V*%
X162540000Y-147000000D03*
%TD*%
D14*
%TO.P,U5,1*%
%TO.N,Net-(J2-Pad1)*%
X140000000Y-113731000D03*
D15*
%TO.P,U5,2*%
%TO.N,Net-(J2-Pad3)*%
X147620000Y-113731000D03*
%TO.P,U5,3*%
%TO.N,+5V*%
X157780000Y-113731000D03*
%TO.P,U5,4*%
%TO.N,Net-(Q2-Pad3)*%
X160320000Y-113731000D03*
%TD*%
D12*
%TO.P,J5,1,Pin_1*%
%TO.N,/GPIO01*%
X194225000Y-150975000D03*
D13*
%TO.P,J5,2,Pin_2*%
X196765000Y-150975000D03*
%TO.P,J5,3,Pin_3*%
%TO.N,GND*%
X199305000Y-150975000D03*
%TD*%
D11*
%TO.P,REF\u002A\u002A,1*%
%TO.N,N/C*%
X179839765Y-139700000D03*
%TD*%
D16*
%TO.P,R10,1*%
%TO.N,/GPIO03*%
X181080000Y-128000000D03*
D17*
%TO.P,R10,2*%
%TO.N,Net-(Q4-Pad2)*%
X170920000Y-128000000D03*
%TD*%
D11*
%TO.P,REF\u002A\u002A,1*%
%TO.N,N/C*%
X170160000Y-149540000D03*
%TD*%
D16*
%TO.P,C5,1*%
%TO.N,+3.3V*%
X205500000Y-128250000D03*
%TO.P,C5,2*%
%TO.N,GND*%
X205500000Y-133250000D03*
%TD*%
D18*
%TO.P,R21,1*%
%TO.N,+5V*%
X202000000Y-104000000D03*
%TO.P,R21,2*%
%TO.N,Net-(D11-Pad2)*%
X202000000Y-102000000D03*
%TD*%
D16*
%TO.P,R2,1*%
%TO.N,GND*%
X170920000Y-134000000D03*
D17*
%TO.P,R2,2*%
%TO.N,Net-(R2-Pad2)*%
X181080000Y-134000000D03*
%TD*%
D11*
%TO.P,REF\u002A\u002A,1*%
%TO.N,N/C*%
X182366740Y-139700000D03*
%TD*%
D18*
%TO.P,R12,1*%
%TO.N,Net-(Q2-Pad3)*%
X163000000Y-104000000D03*
%TO.P,R12,2*%
%TO.N,Net-(D3-Pad1)*%
X163000000Y-102000000D03*
%TD*%
D19*
%TO.P,D8,1,K*%
%TO.N,Net-(U9-Pad1)*%
X193000000Y-97012500D03*
%TO.P,D8,2,A*%
%TO.N,Net-(R4-Pad2)*%
X193000000Y-99987500D03*
%TD*%
D16*
%TO.P,C4,1*%
%TO.N,+3.3V*%
X165000000Y-138500000D03*
%TO.P,C4,2*%
%TO.N,GND*%
X165000000Y-143500000D03*
%TD*%
D20*
%TO.P,U11,1*%
%TO.N,Net-(D10-Pad1)*%
X182050000Y-115275000D03*
D17*
%TO.P,U11,2*%
%TO.N,Net-(J6-Pad4)*%
X182050000Y-112735000D03*
%TO.P,U11,3*%
%TO.N,GND*%
X174430000Y-112735000D03*
%TO.P,U11,4*%
%TO.N,/GPIO12*%
X174430000Y-115275000D03*
%TD*%
D12*
%TO.P,J4,1,Pin_1*%
%TO.N,GND*%
X188000000Y-119000000D03*
D13*
%TO.P,J4,2,Pin_2*%
%TO.N,/GPIO00*%
X185460000Y-119000000D03*
%TD*%
D16*
%TO.P,R7,1*%
%TO.N,/GPIO00*%
X181080000Y-119000000D03*
D17*
%TO.P,R7,2*%
%TO.N,Net-(Q1-Pad2)*%
X170920000Y-119000000D03*
%TD*%
D10*
%TO.P,D3,1,K*%
%TO.N,Net-(D3-Pad1)*%
X163000000Y-99975000D03*
%TO.P,D3,2,A*%
%TO.N,+5V*%
X163000000Y-97000000D03*
%TD*%
D16*
%TO.P,R8,1*%
%TO.N,/GPIO01*%
X181080000Y-122000000D03*
D17*
%TO.P,R8,2*%
%TO.N,Net-(Q2-Pad2)*%
X170920000Y-122000000D03*
%TD*%
D21*
%TO.P,U14,1,VI*%
%TO.N,Net-(C3-Pad1)*%
X153000000Y-140000000D03*
D22*
%TO.P,U14,2,GND*%
%TO.N,GND*%
X153000000Y-137460000D03*
%TO.P,U14,3,VO*%
%TO.N,+5V*%
X153000000Y-134920000D03*
%TD*%
D16*
%TO.P,R3,1*%
%TO.N,Net-(R2-Pad2)*%
X181080000Y-131000000D03*
D17*
%TO.P,R3,2*%
%TO.N,/ADC*%
X170920000Y-131000000D03*
%TD*%
D23*
%TO.P,Q5,1,E*%
%TO.N,/GPIO01*%
X192000000Y-118000000D03*
D24*
%TO.P,Q5,2,B*%
%TO.N,Net-(Q5-Pad2)*%
X193270000Y-118000000D03*
%TO.P,Q5,3,C*%
%TO.N,+3.3V*%
X194540000Y-118000000D03*
%TD*%
D25*
%TO.P,U8,1*%
%TO.N,/ADC*%
X169525000Y-140095000D03*
%TO.P,U8,2,-*%
%TO.N,Net-(R2-Pad2)*%
X169525000Y-141365000D03*
%TO.P,U8,3,+*%
%TO.N,Net-(R1-Pad2)*%
X169525000Y-142635000D03*
%TO.P,U8,4,V-*%
%TO.N,GND*%
X169525000Y-143905000D03*
%TO.P,U8,5,+*%
%TO.N,unconnected-(U8-Pad5)*%
X174475000Y-143905000D03*
%TO.P,U8,6,-*%
%TO.N,unconnected-(U8-Pad6)*%
X174475000Y-142635000D03*
%TO.P,U8,7*%
%TO.N,unconnected-(U8-Pad7)*%
X174475000Y-141365000D03*
%TO.P,U8,8,V+*%
%TO.N,+5V*%
X174475000Y-140095000D03*
%TD*%
D18*
%TO.P,R20,1*%
%TO.N,+5V*%
X199000000Y-104000000D03*
%TO.P,R20,2*%
%TO.N,Net-(D10-Pad2)*%
X199000000Y-102000000D03*
%TD*%
D16*
%TO.P,C3,1*%
%TO.N,Net-(C3-Pad1)*%
X148000000Y-140000000D03*
%TO.P,C3,2*%
%TO.N,GND*%
X148000000Y-135000000D03*
%TD*%
D19*
%TO.P,D9,1,K*%
%TO.N,Net-(D9-Pad1)*%
X196000000Y-97012500D03*
%TO.P,D9,2,A*%
%TO.N,Net-(D9-Pad2)*%
X196000000Y-99987500D03*
%TD*%
D11*
%TO.P,REF\u002A\u002A,1*%
%TO.N,N/C*%
X179839765Y-137160000D03*
%TD*%
D26*
%TO.P,R6,1*%
%TO.N,Net-(D1-Pad1)*%
X208000000Y-135750000D03*
%TO.P,R6,2*%
%TO.N,GND*%
X208000000Y-137750000D03*
%TD*%
D11*
%TO.P,+,1*%
%TO.N,unconnected-(U8-Pad7)*%
X177323246Y-139700000D03*
%TD*%
D12*
%TO.P,J8,1,Pin_1*%
%TO.N,+3.3V*%
X203975000Y-151000000D03*
D13*
%TO.P,J8,2,Pin_2*%
%TO.N,/GPIO4*%
X206515000Y-151000000D03*
%TO.P,J8,3,Pin_3*%
%TO.N,GND*%
X209055000Y-151000000D03*
%TD*%
D27*
%TO.P,J2,1,Pin_1*%
%TO.N,Net-(J2-Pad1)*%
X141500000Y-99642500D03*
D28*
%TO.P,J2,2,Pin_2*%
%TO.N,Net-(J2-Pad2)*%
X145000000Y-99642500D03*
%TO.P,J2,3,Pin_3*%
%TO.N,Net-(J2-Pad3)*%
X148500000Y-99642500D03*
%TO.P,J2,4,Pin_4*%
%TO.N,Net-(J2-Pad4)*%
X152000000Y-99642500D03*
%TO.P,J2,5,Pin_5*%
%TO.N,Net-(J2-Pad5)*%
X155500000Y-99642500D03*
%TD*%
D18*
%TO.P,R11,1*%
%TO.N,Net-(Q1-Pad3)*%
X160000000Y-104000000D03*
%TO.P,R11,2*%
%TO.N,Net-(D2-Pad1)*%
X160000000Y-102000000D03*
%TD*%
D29*
%TO.P,J3,1,Pin_1*%
%TO.N,Net-(C3-Pad1)*%
X142000000Y-139000000D03*
D30*
%TO.P,J3,2,Pin_2*%
%TO.N,GND*%
X142000000Y-135500000D03*
%TD*%
D11*
%TO.P,REF\u002A\u002A,1*%
%TO.N,GND*%
X165080000Y-149540000D03*
%TD*%
%TO.P,REF\u002A\u002A,1*%
%TO.N,N/C*%
X170160000Y-147000000D03*
%TD*%
%TO.P,REF\u002A\u002A,1*%
%TO.N,N/C*%
X177323246Y-137160000D03*
%TD*%
D31*
%TO.P,U1,1,~{RST}*%
%TO.N,+3.3V*%
X200600000Y-137500000D03*
%TO.P,U1,2,ADC*%
%TO.N,/ADC*%
X200600000Y-135500000D03*
%TO.P,U1,3,EN*%
%TO.N,+3.3V*%
X200600000Y-133500000D03*
%TO.P,U1,4,GPIO16*%
%TO.N,Net-(SW1-Pad3)*%
X200600000Y-131500000D03*
%TO.P,U1,5,GPIO14*%
%TO.N,Net-(SW1-Pad4)*%
X200600000Y-129500000D03*
%TO.P,U1,6,GPIO12*%
%TO.N,/GPIO12*%
X200600000Y-127500000D03*
%TO.P,U1,7,GPIO13*%
%TO.N,/GPIO13*%
X200600000Y-125500000D03*
%TO.P,U1,8,VCC*%
%TO.N,+3.3V*%
X200600000Y-123500000D03*
D32*
%TO.P,U1,9,CS0*%
%TO.N,unconnected-(U1-Pad9)*%
X198000000Y-122000000D03*
%TO.P,U1,10,MISO*%
%TO.N,unconnected-(U1-Pad10)*%
X196000000Y-122000000D03*
%TO.P,U1,11,GPIO9*%
%TO.N,unconnected-(U1-Pad11)*%
X194000000Y-122000000D03*
%TO.P,U1,12,GPIO10*%
%TO.N,unconnected-(U1-Pad12)*%
X192000000Y-122000000D03*
%TO.P,U1,13,MOSI*%
%TO.N,unconnected-(U1-Pad13)*%
X190000000Y-122000000D03*
%TO.P,U1,14,SCLK*%
%TO.N,unconnected-(U1-Pad14)*%
X188000000Y-122000000D03*
D31*
%TO.P,U1,15,GND*%
%TO.N,GND*%
X185400000Y-123500000D03*
%TO.P,U1,16,GPIO15*%
%TO.N,Net-(D1-Pad2)*%
X185400000Y-125500000D03*
%TO.P,U1,17,GPIO2*%
%TO.N,/GPIO02*%
X185400000Y-127500000D03*
%TO.P,U1,18,GPIO0*%
%TO.N,/GPIO00*%
X185400000Y-129500000D03*
%TO.P,U1,19,GPIO4*%
%TO.N,/GPIO4*%
X185400000Y-131500000D03*
%TO.P,U1,20,GPIO5*%
%TO.N,/GPIO5*%
X185400000Y-133500000D03*
%TO.P,U1,21,GPIO3/RXD*%
%TO.N,/GPIO03*%
X185400000Y-135500000D03*
%TO.P,U1,22,GPIO1/TXD*%
%TO.N,/GPIO01*%
X185400000Y-137500000D03*
%TD*%
D11*
%TO.P,REF\u002A\u002A,1*%
%TO.N,N/C*%
X179863246Y-144780000D03*
%TD*%
D33*
%TO.P,D7,1,K*%
%TO.N,Net-(D7-Pad1)*%
X207987500Y-104500000D03*
%TO.P,D7,2,A*%
%TO.N,/GPIO01*%
X205012500Y-104500000D03*
%TD*%
D11*
%TO.P,REF\u002A\u002A,1*%
%TO.N,GND*%
X165080000Y-147000000D03*
%TD*%
D20*
%TO.P,U9,1*%
%TO.N,Net-(U9-Pad1)*%
X171800000Y-115275000D03*
D17*
%TO.P,U9,2*%
%TO.N,Net-(J6-Pad2)*%
X171800000Y-112735000D03*
%TO.P,U9,3*%
%TO.N,GND*%
X164180000Y-112735000D03*
%TO.P,U9,4*%
%TO.N,/GPIO4*%
X164180000Y-115275000D03*
%TD*%
D34*
%TO.P,U2,1,VIN*%
%TO.N,+5V*%
X156862500Y-138050000D03*
%TO.P,U2,2,GND*%
%TO.N,GND*%
X156862500Y-139000000D03*
%TO.P,U2,3,EN*%
%TO.N,+5V*%
X156862500Y-139950000D03*
%TO.P,U2,4,NC*%
%TO.N,unconnected-(U2-Pad4)*%
X159137500Y-139950000D03*
%TO.P,U2,5,VOUT*%
%TO.N,+3.3V*%
X159137500Y-138050000D03*
%TD*%
D16*
%TO.P,R1,1*%
%TO.N,Net-(R1-Pad1)*%
X182580000Y-148000000D03*
D17*
%TO.P,R1,2*%
%TO.N,Net-(R1-Pad2)*%
X172420000Y-148000000D03*
%TD*%
D10*
%TO.P,D4,1,K*%
%TO.N,Net-(D4-Pad1)*%
X166000000Y-99975000D03*
%TO.P,D4,2,A*%
%TO.N,+5V*%
X166000000Y-97000000D03*
%TD*%
D19*
%TO.P,D10,1,K*%
%TO.N,Net-(D10-Pad1)*%
X199000000Y-97012500D03*
%TO.P,D10,2,A*%
%TO.N,Net-(D10-Pad2)*%
X199000000Y-99987500D03*
%TD*%
D20*
%TO.P,U12,1*%
%TO.N,Net-(D11-Pad1)*%
X182050000Y-109275000D03*
D17*
%TO.P,U12,2*%
%TO.N,Net-(J6-Pad5)*%
X182050000Y-106735000D03*
%TO.P,U12,3*%
%TO.N,GND*%
X174430000Y-106735000D03*
%TO.P,U12,4*%
%TO.N,/GPIO13*%
X174430000Y-109275000D03*
%TD*%
D11*
%TO.P,-,1*%
%TO.N,unconnected-(U8-Pad6)*%
X177323246Y-142240000D03*
%TD*%
D18*
%TO.P,R13,1*%
%TO.N,Net-(Q3-Pad3)*%
X166000000Y-104000000D03*
%TO.P,R13,2*%
%TO.N,Net-(D4-Pad1)*%
X166000000Y-102000000D03*
%TD*%
D11*
%TO.P,REF\u002A\u002A,1*%
%TO.N,+5V*%
X160000000Y-149540000D03*
%TD*%
%TO.P,REF\u002A\u002A,1*%
%TO.N,N/C*%
X179839765Y-142240000D03*
%TD*%
D20*
%TO.P,SW1,1*%
%TO.N,GND*%
X207500000Y-140200000D03*
D17*
%TO.P,SW1,2*%
X204960000Y-140200000D03*
%TO.P,SW1,3*%
%TO.N,Net-(SW1-Pad3)*%
X204960000Y-147820000D03*
%TO.P,SW1,4*%
%TO.N,Net-(SW1-Pad4)*%
X207500000Y-147820000D03*
%TD*%
D10*
%TO.P,D1,1,K*%
%TO.N,Net-(D1-Pad1)*%
X208000000Y-133487500D03*
%TO.P,D1,2,A*%
%TO.N,Net-(D1-Pad2)*%
X208000000Y-130512500D03*
%TD*%
D16*
%TO.P,RTRIG1,1*%
%TO.N,/GPIO00*%
X188000000Y-115250000D03*
D17*
%TO.P,RTRIG1,2*%
%TO.N,Net-(Q6-Pad2)*%
X188000000Y-105090000D03*
%TD*%
D23*
%TO.P,Q2,1,E*%
%TO.N,GND*%
X167500000Y-124500000D03*
D24*
%TO.P,Q2,2,B*%
%TO.N,Net-(Q2-Pad2)*%
X166230000Y-124500000D03*
%TO.P,Q2,3,C*%
%TO.N,Net-(Q2-Pad3)*%
X164960000Y-124500000D03*
%TD*%
D16*
%TO.P,R17,1*%
%TO.N,Net-(Q6-Pad3)*%
X185000000Y-105000000D03*
D17*
%TO.P,R17,2*%
%TO.N,+5V*%
X185000000Y-115160000D03*
%TD*%
D23*
%TO.P,Q3,1,E*%
%TO.N,GND*%
X167500000Y-129500000D03*
D24*
%TO.P,Q3,2,B*%
%TO.N,Net-(Q3-Pad2)*%
X166230000Y-129500000D03*
%TO.P,Q3,3,C*%
%TO.N,Net-(Q3-Pad3)*%
X164960000Y-129500000D03*
%TD*%
D11*
%TO.P,REF\u002A\u002A,1*%
%TO.N,N/C*%
X182390221Y-144780000D03*
%TD*%
D16*
%TO.P,R16,1*%
%TO.N,GND*%
X190920000Y-107000000D03*
D17*
%TO.P,R16,2*%
%TO.N,/GPIO01*%
X201080000Y-107000000D03*
%TD*%
D16*
%TO.P,C1,1*%
%TO.N,+5V*%
X156500000Y-134000000D03*
%TO.P,C1,2*%
%TO.N,GND*%
X161500000Y-134000000D03*
%TD*%
%TO.P,RECHO1,1*%
%TO.N,Net-(Q5-Pad2)*%
X190920000Y-113000000D03*
D17*
%TO.P,RECHO1,2*%
%TO.N,Net-(J7-Pad3)*%
X201080000Y-113000000D03*
%TD*%
D23*
%TO.P,Q4,1,E*%
%TO.N,GND*%
X167500000Y-134500000D03*
D24*
%TO.P,Q4,2,B*%
%TO.N,Net-(Q4-Pad2)*%
X166230000Y-134500000D03*
%TO.P,Q4,3,C*%
%TO.N,Net-(Q4-Pad3)*%
X164960000Y-134500000D03*
%TD*%
D11*
%TO.P,REF\u002A\u002A,1*%
%TO.N,+5V*%
X160000000Y-147000000D03*
%TD*%
D23*
%TO.P,Q1,1,E*%
%TO.N,GND*%
X167500000Y-119500000D03*
D24*
%TO.P,Q1,2,B*%
%TO.N,Net-(Q1-Pad2)*%
X166230000Y-119500000D03*
%TO.P,Q1,3,C*%
%TO.N,Net-(Q1-Pad3)*%
X164960000Y-119500000D03*
%TD*%
D14*
%TO.P,U4,1*%
%TO.N,Net-(J2-Pad1)*%
X140000000Y-107000000D03*
D15*
%TO.P,U4,2*%
%TO.N,Net-(J2-Pad2)*%
X147620000Y-107000000D03*
%TO.P,U4,3*%
%TO.N,+5V*%
X157780000Y-107000000D03*
%TO.P,U4,4*%
%TO.N,Net-(Q1-Pad3)*%
X160320000Y-107000000D03*
%TD*%
D11*
%TO.P,REF\u002A\u002A,1*%
%TO.N,N/C*%
X167620000Y-147000000D03*
%TD*%
D26*
%TO.P,R5,1*%
%TO.N,Net-(D1-Pad2)*%
X205750000Y-135750000D03*
%TO.P,R5,2*%
%TO.N,GND*%
X205750000Y-137750000D03*
%TD*%
D27*
%TO.P,J6,1,Pin_1*%
%TO.N,GND*%
X174517500Y-99642500D03*
D28*
%TO.P,J6,2,Pin_2*%
%TO.N,Net-(J6-Pad2)*%
X178017500Y-99642500D03*
%TO.P,J6,3,Pin_3*%
%TO.N,Net-(J6-Pad3)*%
X181517500Y-99642500D03*
%TO.P,J6,4,Pin_4*%
%TO.N,Net-(J6-Pad4)*%
X185017500Y-99642500D03*
%TO.P,J6,5,Pin_5*%
%TO.N,Net-(J6-Pad5)*%
X188517500Y-99642500D03*
%TD*%
D14*
%TO.P,U7,1*%
%TO.N,Net-(J2-Pad1)*%
X140000000Y-127193000D03*
D15*
%TO.P,U7,2*%
%TO.N,Net-(J2-Pad5)*%
X147620000Y-127193000D03*
%TO.P,U7,3*%
%TO.N,+5V*%
X157780000Y-127193000D03*
%TO.P,U7,4*%
%TO.N,Net-(Q4-Pad3)*%
X160320000Y-127193000D03*
%TD*%
D18*
%TO.P,R19,1*%
%TO.N,+5V*%
X196000000Y-104000000D03*
%TO.P,R19,2*%
%TO.N,Net-(D9-Pad2)*%
X196000000Y-102000000D03*
%TD*%
D11*
%TO.P,REF\u002A\u002A,1*%
%TO.N,N/C*%
X182366740Y-142240000D03*
%TD*%
D16*
%TO.P,R15,1*%
%TO.N,Net-(D7-Pad1)*%
X201080000Y-110000000D03*
D17*
%TO.P,R15,2*%
%TO.N,GND*%
X190920000Y-110000000D03*
%TD*%
D23*
%TO.P,Q6,1,E*%
%TO.N,Net-(J7-Pad2)*%
X200750000Y-117250000D03*
D24*
%TO.P,Q6,2,B*%
%TO.N,Net-(Q6-Pad2)*%
X199480000Y-117250000D03*
%TO.P,Q6,3,C*%
%TO.N,Net-(Q6-Pad3)*%
X198210000Y-117250000D03*
%TD*%
D14*
%TO.P,U6,1*%
%TO.N,Net-(J2-Pad1)*%
X140000000Y-120462000D03*
D15*
%TO.P,U6,2*%
%TO.N,Net-(J2-Pad4)*%
X147620000Y-120462000D03*
%TO.P,U6,3*%
%TO.N,+5V*%
X157780000Y-120462000D03*
%TO.P,U6,4*%
%TO.N,Net-(Q3-Pad3)*%
X160320000Y-120462000D03*
%TD*%
D10*
%TO.P,D5,1,K*%
%TO.N,Net-(D5-Pad1)*%
X169000000Y-99975000D03*
%TO.P,D5,2,A*%
%TO.N,+5V*%
X169000000Y-97000000D03*
%TD*%
D33*
%TO.P,D6,1,K*%
%TO.N,GND*%
X207987500Y-107250000D03*
%TO.P,D6,2,A*%
%TO.N,Net-(Q6-Pad2)*%
X205012500Y-107250000D03*
%TD*%
D11*
%TO.P,REF\u002A\u002A,1*%
%TO.N,N/C*%
X167620000Y-149540000D03*
%TD*%
D18*
%TO.P,R14,1*%
%TO.N,Net-(Q4-Pad3)*%
X169000000Y-104000000D03*
%TO.P,R14,2*%
%TO.N,Net-(D5-Pad1)*%
X169000000Y-102000000D03*
%TD*%
D16*
%TO.P,R9,1*%
%TO.N,/GPIO02*%
X181080000Y-125000000D03*
D17*
%TO.P,R9,2*%
%TO.N,Net-(Q3-Pad2)*%
X170920000Y-125000000D03*
%TD*%
D11*
%TO.P,OUT,1*%
%TO.N,unconnected-(U8-Pad5)*%
X177323246Y-144780000D03*
%TD*%
D18*
%TO.P,R4,1*%
%TO.N,+5V*%
X193000000Y-104000000D03*
%TO.P,R4,2*%
%TO.N,Net-(R4-Pad2)*%
X193000000Y-102000000D03*
%TD*%
D35*
%TO.P,J1,1,VBUS*%
%TO.N,+5V*%
X150400000Y-143875000D03*
%TO.P,J1,2,D-*%
%TO.N,unconnected-(J1-Pad2)*%
X151200000Y-143875000D03*
%TO.P,J1,3,D+*%
%TO.N,unconnected-(J1-Pad3)*%
X152000000Y-143875000D03*
%TO.P,J1,4,ID*%
%TO.N,unconnected-(J1-Pad4)*%
X152800000Y-143875000D03*
%TO.P,J1,5,GND*%
%TO.N,GND*%
X153600000Y-143875000D03*
D36*
%TO.P,J1,6,Shield*%
%TO.N,unconnected-(J1-Pad6)*%
X147600000Y-149375000D03*
X156400000Y-143875000D03*
X156400000Y-149375000D03*
X147600000Y-143875000D03*
%TD*%
D16*
%TO.P,C2,1*%
%TO.N,+3.3V*%
X162000000Y-138500000D03*
%TO.P,C2,2*%
%TO.N,GND*%
X162000000Y-143500000D03*
%TD*%
D20*
%TO.P,U10,1*%
%TO.N,Net-(D9-Pad1)*%
X171800000Y-109275000D03*
D17*
%TO.P,U10,2*%
%TO.N,Net-(J6-Pad3)*%
X171800000Y-106735000D03*
%TO.P,U10,3*%
%TO.N,GND*%
X164180000Y-106735000D03*
%TO.P,U10,4*%
%TO.N,/GPIO5*%
X164180000Y-109275000D03*
%TD*%
D19*
%TO.P,D11,1,K*%
%TO.N,Net-(D11-Pad1)*%
X202000000Y-97012500D03*
%TO.P,D11,2,A*%
%TO.N,Net-(D11-Pad2)*%
X202000000Y-99987500D03*
%TD*%
D37*
%TO.P,J7,1,Pin_1*%
%TO.N,+5V*%
X206357500Y-111767500D03*
D30*
%TO.P,J7,2,Pin_2*%
%TO.N,Net-(J7-Pad2)*%
X206357500Y-115267500D03*
%TO.P,J7,3,Pin_3*%
%TO.N,Net-(J7-Pad3)*%
X206357500Y-118767500D03*
%TO.P,J7,4,Pin_4*%
%TO.N,GND*%
X206357500Y-122267500D03*
%TD*%
D11*
%TO.P,REF\u002A\u002A,1*%
%TO.N,N/C*%
X182366740Y-137160000D03*
%TD*%
D38*
%TO.N,GND*%
X207975200Y-108762800D03*
X187350400Y-123698000D03*
%TO.N,+5V*%
X200495200Y-104000000D03*
X167510400Y-97000000D03*
X174498000Y-139039600D03*
X155600400Y-137820400D03*
X149479000Y-143891000D03*
%TO.N,GND*%
X154559000Y-143891000D03*
%TO.N,/GPIO00*%
X187750000Y-129500000D03*
%TO.N,/GPIO01*%
X189000000Y-137500000D03*
%TO.N,/GPIO4*%
X169767795Y-115232205D03*
%TD*%
D39*
%TO.N,Net-(Q6-Pad3)*%
X198210000Y-115507600D02*
X198210000Y-117250000D01*
X191211200Y-108508800D02*
X198210000Y-115507600D01*
X186280000Y-105000000D02*
X189788800Y-108508800D01*
X185000000Y-105000000D02*
X186280000Y-105000000D01*
X189788800Y-108508800D02*
X191211200Y-108508800D01*
%TO.N,Net-(Q6-Pad2)*%
X193329600Y-105090000D02*
X199489600Y-111250000D01*
X188000000Y-105090000D02*
X193329600Y-105090000D01*
X199480000Y-111259600D02*
X199489600Y-111250000D01*
X199480000Y-117250000D02*
X199480000Y-111259600D01*
X199489600Y-111250000D02*
X201424000Y-111250000D01*
X201424000Y-111250000D02*
X202082400Y-110591600D01*
X202082400Y-110591600D02*
X205012500Y-107661500D01*
X205012500Y-107661500D02*
X205012500Y-107250000D01*
D40*
%TO.N,GND*%
X207987500Y-108750500D02*
X207975200Y-108762800D01*
X207987500Y-107250000D02*
X207987500Y-108750500D01*
X187152400Y-123500000D02*
X187350400Y-123698000D01*
X185400000Y-123500000D02*
X187152400Y-123500000D01*
%TO.N,+5V*%
X193000000Y-104000000D02*
X202000000Y-104000000D01*
X160000000Y-97000000D02*
X169000000Y-97000000D01*
X174475000Y-139062600D02*
X174498000Y-139039600D01*
X174475000Y-140095000D02*
X174475000Y-139062600D01*
X155830000Y-138050000D02*
X155600400Y-137820400D01*
X156862500Y-138050000D02*
X155830000Y-138050000D01*
X149495000Y-143875000D02*
X149479000Y-143891000D01*
X150400000Y-143875000D02*
X149495000Y-143875000D01*
%TO.N,GND*%
X154543000Y-143875000D02*
X154559000Y-143891000D01*
X153600000Y-143875000D02*
X154543000Y-143875000D01*
%TO.N,+5V*%
X156862500Y-139950000D02*
X157550000Y-139950000D01*
X157550000Y-139950000D02*
X158000000Y-139500000D01*
X158000000Y-139500000D02*
X158000000Y-138500000D01*
X158000000Y-138500000D02*
X157500000Y-138000000D01*
D39*
%TO.N,GND*%
X207500000Y-140200000D02*
X207500000Y-138250000D01*
X207500000Y-138250000D02*
X208000000Y-137750000D01*
D40*
X155500000Y-139000000D02*
X153960000Y-137460000D01*
X153960000Y-137460000D02*
X153000000Y-137460000D01*
X169525000Y-143905000D02*
X165405000Y-143905000D01*
X156862500Y-139000000D02*
X155500000Y-139000000D01*
X165405000Y-143905000D02*
X165000000Y-143500000D01*
D39*
X205750000Y-137750000D02*
X208000000Y-137750000D01*
D40*
%TO.N,+3.3V*%
X202300000Y-134450000D02*
X202200000Y-134450000D01*
X200600000Y-133500000D02*
X201350000Y-133500000D01*
X202300000Y-139550000D02*
X202300000Y-149450000D01*
X201350000Y-133500000D02*
X202300000Y-134450000D01*
X202300000Y-137450000D02*
X202300000Y-135450000D01*
X200600000Y-123500000D02*
X201750000Y-123500000D01*
X202300000Y-149450000D02*
X203850000Y-151000000D01*
X202250000Y-137500000D02*
X202300000Y-137450000D01*
X203850000Y-151000000D02*
X203975000Y-151000000D01*
X202200000Y-134450000D02*
X202300000Y-134550000D01*
X159137500Y-138050000D02*
X161550000Y-138050000D01*
X161550000Y-138050000D02*
X162000000Y-138500000D01*
X202300000Y-139200000D02*
X202300000Y-139550000D01*
X202300000Y-134550000D02*
X202300000Y-135450000D01*
X205500000Y-127250000D02*
X205500000Y-128250000D01*
X201200000Y-137500000D02*
X200600000Y-137500000D01*
X200600000Y-137500000D02*
X202250000Y-137500000D01*
X202300000Y-139550000D02*
X202300000Y-137450000D01*
X202300000Y-135450000D02*
X202300000Y-136400000D01*
X201750000Y-123500000D02*
X205500000Y-127250000D01*
D41*
%TO.N,Net-(C3-Pad1)*%
X148000000Y-140000000D02*
X153000000Y-140000000D01*
X147000000Y-139000000D02*
X148000000Y-140000000D01*
X142000000Y-139000000D02*
X147000000Y-139000000D01*
D39*
%TO.N,Net-(D1-Pad1)*%
X208000000Y-133487500D02*
X208000000Y-135750000D01*
%TO.N,Net-(D1-Pad2)*%
X206737500Y-134762500D02*
X206737500Y-130512500D01*
X206737500Y-130512500D02*
X206012500Y-130512500D01*
X205750000Y-135750000D02*
X206737500Y-134762500D01*
X206012500Y-130512500D02*
X202000000Y-126500000D01*
X189750000Y-126500000D02*
X202000000Y-126500000D01*
X185400000Y-125500000D02*
X188750000Y-125500000D01*
X208000000Y-130512500D02*
X206737500Y-130512500D01*
X188750000Y-125500000D02*
X189750000Y-126500000D01*
D40*
%TO.N,Net-(D2-Pad1)*%
X160000000Y-102000000D02*
X160000000Y-99975000D01*
%TO.N,Net-(D3-Pad1)*%
X163000000Y-99975000D02*
X163000000Y-102000000D01*
%TO.N,Net-(D4-Pad1)*%
X166000000Y-102000000D02*
X166000000Y-99975000D01*
%TO.N,Net-(D5-Pad1)*%
X169000000Y-99975000D02*
X169000000Y-102000000D01*
D39*
%TO.N,Net-(U9-Pad1)*%
X192537500Y-96550000D02*
X193000000Y-97012500D01*
X173960431Y-96550000D02*
X192537500Y-96550000D01*
X170225000Y-100285431D02*
X173960431Y-96550000D01*
X170225000Y-113700000D02*
X170225000Y-100285431D01*
X171800000Y-115275000D02*
X170225000Y-113700000D01*
%TO.N,/GPIO00*%
X188000000Y-116460000D02*
X185460000Y-119000000D01*
X187750000Y-129500000D02*
X185400000Y-129500000D01*
X188000000Y-115250000D02*
X188000000Y-116460000D01*
%TO.N,Net-(D7-Pad1)*%
X204148896Y-106000000D02*
X201080000Y-109068896D01*
X207987500Y-104500000D02*
X206487500Y-106000000D01*
X201080000Y-109068896D02*
X201080000Y-110000000D01*
X206487500Y-106000000D02*
X204148896Y-106000000D01*
%TO.N,Net-(R4-Pad2)*%
X193000000Y-99987500D02*
X193000000Y-102000000D01*
%TO.N,Net-(D9-Pad1)*%
X170675000Y-100471827D02*
X174146827Y-97000000D01*
X194962500Y-98050000D02*
X196000000Y-97012500D01*
X191086828Y-97000000D02*
X192136828Y-98050000D01*
X174146827Y-97000000D02*
X191086828Y-97000000D01*
X171800000Y-109275000D02*
X170675000Y-108150000D01*
X170675000Y-108150000D02*
X170675000Y-100471827D01*
X192136828Y-98050000D02*
X194962500Y-98050000D01*
%TO.N,Net-(D10-Pad1)*%
X197512500Y-98500000D02*
X199000000Y-97012500D01*
X188792412Y-102000000D02*
X189750000Y-101042412D01*
X189750000Y-100700432D02*
X191950432Y-98500000D01*
X180475000Y-104638604D02*
X183113604Y-102000000D01*
X189750000Y-101042412D02*
X189750000Y-100700432D01*
X182050000Y-115275000D02*
X180475000Y-113700000D01*
X191950432Y-98500000D02*
X197512500Y-98500000D01*
X180475000Y-113700000D02*
X180475000Y-104638604D01*
X183113604Y-102000000D02*
X188792412Y-102000000D01*
%TO.N,Net-(D10-Pad2)*%
X199000000Y-99987500D02*
X199000000Y-102000000D01*
%TO.N,Net-(D11-Pad1)*%
X200062500Y-98950000D02*
X192136828Y-98950000D01*
X180925000Y-104825000D02*
X180925000Y-108150000D01*
X190200000Y-101228808D02*
X188978808Y-102450000D01*
X183300000Y-102450000D02*
X180925000Y-104825000D01*
X188978808Y-102450000D02*
X183300000Y-102450000D01*
X180925000Y-108150000D02*
X182050000Y-109275000D01*
X202000000Y-97012500D02*
X200062500Y-98950000D01*
X192136828Y-98950000D02*
X190200000Y-100886828D01*
X190200000Y-100886828D02*
X190200000Y-101228808D01*
%TO.N,Net-(D11-Pad2)*%
X202000000Y-99987500D02*
X202000000Y-102000000D01*
D41*
%TO.N,Net-(J2-Pad1)*%
X140000000Y-127193000D02*
X140000000Y-107000000D01*
X140000000Y-101142500D02*
X141500000Y-99642500D01*
X140000000Y-107000000D02*
X140000000Y-101142500D01*
%TO.N,Net-(J2-Pad2)*%
X147620000Y-107000000D02*
X147620000Y-105370000D01*
X145000000Y-99642500D02*
X145000000Y-102750000D01*
X147620000Y-105370000D02*
X145000000Y-102750000D01*
%TO.N,Net-(J2-Pad3)*%
X148500000Y-99642500D02*
X148500000Y-102250000D01*
X148500000Y-102250000D02*
X150000000Y-103750000D01*
X150000000Y-111351000D02*
X150000000Y-103750000D01*
X147620000Y-113731000D02*
X150000000Y-111351000D01*
%TO.N,Net-(J2-Pad4)*%
X147620000Y-120462000D02*
X152000000Y-116082000D01*
X152000000Y-116082000D02*
X152000000Y-99642500D01*
%TO.N,Net-(J2-Pad5)*%
X154000000Y-103750000D02*
X154000000Y-120813000D01*
X154000000Y-120813000D02*
X152656500Y-122156500D01*
X155500000Y-99642500D02*
X155500000Y-102250000D01*
X155500000Y-102250000D02*
X154000000Y-103750000D01*
X147620000Y-127193000D02*
X152656500Y-122156500D01*
D39*
%TO.N,/GPIO01*%
X185400000Y-137500000D02*
X189000000Y-137500000D01*
X194225000Y-150975000D02*
X196765000Y-150975000D01*
X201080000Y-107000000D02*
X202512500Y-107000000D01*
X202512500Y-107000000D02*
X205012500Y-104500000D01*
%TO.N,Net-(J7-Pad2)*%
X206357500Y-115267500D02*
X202732500Y-115267500D01*
X202732500Y-115267500D02*
X200750000Y-117250000D01*
%TO.N,/GPIO4*%
X202875000Y-133375000D02*
X202000000Y-132500000D01*
X183825000Y-128188604D02*
X183825000Y-131075000D01*
X175750000Y-126250000D02*
X181886396Y-126250000D01*
X181886396Y-126250000D02*
X183825000Y-128188604D01*
X203750000Y-149750000D02*
X202875000Y-148875000D01*
X206460000Y-151000000D02*
X205210000Y-149750000D01*
X185400000Y-131500000D02*
X198250000Y-131500000D01*
X202000000Y-132500000D02*
X199250000Y-132500000D01*
X172700000Y-118552613D02*
X172700000Y-123200000D01*
X183825000Y-131075000D02*
X184250000Y-131500000D01*
X170448693Y-116301307D02*
X172700000Y-118552613D01*
X205210000Y-149750000D02*
X203750000Y-149750000D01*
X172700000Y-123200000D02*
X175750000Y-126250000D01*
X198250000Y-131500000D02*
X199250000Y-132500000D01*
X202875000Y-148875000D02*
X202875000Y-133375000D01*
X184250000Y-131500000D02*
X185400000Y-131500000D01*
X170448693Y-115913103D02*
X169767795Y-115232205D01*
X170448693Y-116301307D02*
X170448693Y-115913103D01*
D40*
%TO.N,Net-(Q1-Pad2)*%
X166535000Y-118290000D02*
X170210000Y-118290000D01*
X166230000Y-118595000D02*
X166535000Y-118290000D01*
X166230000Y-119500000D02*
X166230000Y-118595000D01*
X170210000Y-118290000D02*
X170920000Y-119000000D01*
D39*
%TO.N,Net-(Q1-Pad3)*%
X160000000Y-104000000D02*
X160000000Y-106680000D01*
X160000000Y-106680000D02*
X160320000Y-107000000D01*
D40*
X160320000Y-104320000D02*
X160000000Y-104000000D01*
%TO.N,Net-(Q2-Pad2)*%
X166230000Y-124500000D02*
X166230000Y-123595000D01*
X167825000Y-122000000D02*
X170920000Y-122000000D01*
X166230000Y-123595000D02*
X167825000Y-122000000D01*
D39*
%TO.N,Net-(Q2-Pad3)*%
X161850000Y-105150000D02*
X163000000Y-104000000D01*
X160320000Y-113731000D02*
X161850000Y-112201000D01*
X161850000Y-112201000D02*
X161850000Y-105150000D01*
D40*
%TO.N,Net-(Q3-Pad2)*%
X166230000Y-128595000D02*
X169825000Y-125000000D01*
X166230000Y-129500000D02*
X166230000Y-128595000D01*
X169825000Y-125000000D02*
X170920000Y-125000000D01*
D39*
%TO.N,Net-(Q3-Pad3)*%
X162300000Y-118482000D02*
X162300000Y-105813604D01*
X160320000Y-120462000D02*
X162300000Y-118482000D01*
X162300000Y-105813604D02*
X163188604Y-104925000D01*
X165075000Y-104925000D02*
X166000000Y-104000000D01*
X163188604Y-104925000D02*
X165075000Y-104925000D01*
D40*
%TO.N,Net-(Q4-Pad2)*%
X166230000Y-132690000D02*
X170920000Y-128000000D01*
X166230000Y-134500000D02*
X166230000Y-132690000D01*
D39*
%TO.N,Net-(Q4-Pad3)*%
X162750000Y-106000000D02*
X163250000Y-105500000D01*
X162750000Y-124763000D02*
X162750000Y-106000000D01*
X160320000Y-127193000D02*
X162750000Y-124763000D01*
X167500000Y-105500000D02*
X169000000Y-104000000D01*
X163250000Y-105500000D02*
X167500000Y-105500000D01*
D40*
%TO.N,Net-(R1-Pad1)*%
X182580000Y-148960000D02*
X184620000Y-151000000D01*
X182580000Y-148000000D02*
X182580000Y-148960000D01*
%TO.N,Net-(R1-Pad2)*%
X169525000Y-142635000D02*
X170365000Y-142635000D01*
X170365000Y-142635000D02*
X172420000Y-144690000D01*
X172420000Y-144690000D02*
X172420000Y-148000000D01*
%TO.N,Net-(R2-Pad2)*%
X181080000Y-134000000D02*
X181080000Y-131000000D01*
X169525000Y-141365000D02*
X170078528Y-141365000D01*
X177443528Y-134000000D02*
X181080000Y-134000000D01*
X170078528Y-141365000D02*
X177443528Y-134000000D01*
D39*
%TO.N,/ADC*%
X199775000Y-136325000D02*
X200600000Y-135500000D01*
D40*
X169525000Y-140095000D02*
X169525000Y-132395000D01*
D39*
X170920000Y-131000000D02*
X172170000Y-129750000D01*
X182475000Y-130225000D02*
X182475000Y-134975000D01*
X183825000Y-136325000D02*
X199775000Y-136325000D01*
X182000000Y-129750000D02*
X182475000Y-130225000D01*
X182475000Y-134975000D02*
X183825000Y-136325000D01*
D40*
X169525000Y-132395000D02*
X170920000Y-131000000D01*
D39*
X172170000Y-129750000D02*
X182000000Y-129750000D01*
%TO.N,/GPIO02*%
X181272792Y-125000000D02*
X183772792Y-127500000D01*
X183772792Y-127500000D02*
X185400000Y-127500000D01*
X181080000Y-125000000D02*
X181272792Y-125000000D01*
%TO.N,/GPIO03*%
X184850000Y-135500000D02*
X185400000Y-135500000D01*
X182925000Y-129845000D02*
X182925000Y-133575000D01*
X181080000Y-128000000D02*
X182925000Y-129845000D01*
X182925000Y-133575000D02*
X184850000Y-135500000D01*
%TO.N,Net-(SW1-Pad3)*%
X203325000Y-133188604D02*
X201636396Y-131500000D01*
X201636396Y-131500000D02*
X200600000Y-131500000D01*
X204960000Y-147820000D02*
X203325000Y-146185000D01*
X203325000Y-146185000D02*
X203325000Y-133188604D01*
%TO.N,Net-(SW1-Pad4)*%
X203775000Y-144095000D02*
X207500000Y-147820000D01*
X203775000Y-131525000D02*
X203775000Y-144095000D01*
X200600000Y-129500000D02*
X201750000Y-129500000D01*
X201750000Y-129500000D02*
X203775000Y-131525000D01*
%TO.N,/GPIO12*%
X189000000Y-126500000D02*
X190000000Y-127500000D01*
X190000000Y-127500000D02*
X200600000Y-127500000D01*
X184000000Y-126500000D02*
X189000000Y-126500000D01*
X178945991Y-115275000D02*
X182750000Y-119079009D01*
X182750000Y-119079009D02*
X182750000Y-125250000D01*
X174430000Y-115275000D02*
X178945991Y-115275000D01*
X182750000Y-125250000D02*
X184000000Y-126500000D01*
%TO.N,/GPIO13*%
X183250000Y-118750000D02*
X183250000Y-123750000D01*
X188450000Y-124500000D02*
X189450000Y-125500000D01*
X174430000Y-109275000D02*
X174430000Y-109930000D01*
X189450000Y-125500000D02*
X200600000Y-125500000D01*
X183250000Y-123750000D02*
X184000000Y-124500000D01*
X174430000Y-109930000D02*
X183250000Y-118750000D01*
X184000000Y-124500000D02*
X188450000Y-124500000D01*
%TO.N,/GPIO5*%
X175563604Y-126700000D02*
X172250000Y-123386396D01*
X172250000Y-118739009D02*
X164180000Y-110669008D01*
X183375000Y-132125000D02*
X183375000Y-128375000D01*
X183375000Y-128375000D02*
X181700000Y-126700000D01*
X181700000Y-126700000D02*
X175563604Y-126700000D01*
X164180000Y-110669008D02*
X164180000Y-109275000D01*
X172250000Y-123386396D02*
X172250000Y-118739009D01*
X184250000Y-133000000D02*
X183375000Y-132125000D01*
%TO.N,Net-(Q5-Pad2)*%
X193270000Y-115350000D02*
X193270000Y-118000000D01*
X190920000Y-113000000D02*
X193270000Y-115350000D01*
%TO.N,unconnected-(U8-Pad5)*%
X174475000Y-143905000D02*
X176448246Y-143905000D01*
X176448246Y-143905000D02*
X177323246Y-144780000D01*
%TO.N,unconnected-(U8-Pad6)*%
X174475000Y-142635000D02*
X175635000Y-142635000D01*
X175635000Y-142635000D02*
X176030000Y-142240000D01*
X176030000Y-142240000D02*
X177323246Y-142240000D01*
%TO.N,unconnected-(U8-Pad7)*%
X175658246Y-141365000D02*
X177323246Y-139700000D01*
X174475000Y-141365000D02*
X175658246Y-141365000D01*
%TO.N,Net-(D9-Pad2)*%
X196000000Y-99987500D02*
X196000000Y-102000000D01*
%TD*%
M02*
