%TF.GenerationSoftware,KiCad,Pcbnew,(6.0.7)*%
%TF.CreationDate,2023-01-15T20:37:24-05:00*%
%TF.ProjectId,ESPoules,4553506f-756c-4657-932e-6b696361645f,rev?*%
%TF.SameCoordinates,Original*%
%TF.FileFunction,Soldermask,Bot*%
%TF.FilePolarity,Negative*%
%FSLAX46Y46*%
G04 Gerber Fmt 4.6, Leading zero omitted, Abs format (unit mm)*
G04 Created by KiCad (PCBNEW (6.0.7)) date 2023-01-15 20:37:24*
%MOMM*%
%LPD*%
G01*
G04 APERTURE LIST*
G04 Aperture macros list*
%AMRoundRect*
0 Rectangle with rounded corners*
0 $1 Rounding radius*
0 $2 $3 $4 $5 $6 $7 $8 $9 X,Y pos of 4 corners*
0 Add a 4 corners polygon primitive as box body*
4,1,4,$2,$3,$4,$5,$6,$7,$8,$9,$2,$3,0*
0 Add four circle primitives for the rounded corners*
1,1,$1+$1,$2,$3*
1,1,$1+$1,$4,$5*
1,1,$1+$1,$6,$7*
1,1,$1+$1,$8,$9*
0 Add four rect primitives between the rounded corners*
20,1,$1+$1,$2,$3,$4,$5,0*
20,1,$1+$1,$4,$5,$6,$7,0*
20,1,$1+$1,$6,$7,$8,$9,0*
20,1,$1+$1,$8,$9,$2,$3,0*%
G04 Aperture macros list end*
%ADD10C,1.400000*%
%ADD11R,1.700000X1.700000*%
%ADD12O,1.700000X1.700000*%
%ADD13R,2.000000X3.000000*%
%ADD14O,2.000000X3.000000*%
%ADD15C,3.700000*%
%ADD16C,1.600000*%
%ADD17O,1.600000X1.600000*%
%ADD18R,1.600000X1.600000*%
%ADD19R,2.000000X1.905000*%
%ADD20O,2.000000X1.905000*%
%ADD21R,1.050000X1.500000*%
%ADD22O,1.050000X1.500000*%
%ADD23RoundRect,0.250000X-0.650000X-1.550000X0.650000X-1.550000X0.650000X1.550000X-0.650000X1.550000X0*%
%ADD24O,1.800000X3.600000*%
%ADD25RoundRect,0.250000X1.550000X-0.650000X1.550000X0.650000X-1.550000X0.650000X-1.550000X-0.650000X0*%
%ADD26O,3.600000X1.800000*%
%ADD27C,0.900000*%
%ADD28RoundRect,0.250000X-1.550000X0.650000X-1.550000X-0.650000X1.550000X-0.650000X1.550000X0.650000X0*%
G04 APERTURE END LIST*
D10*
%TO.C,REF\u002A\u002A*%
X162540000Y-149540000D03*
%TD*%
D11*
%TO.C,J9*%
X177000000Y-151000000D03*
D12*
X179540000Y-151000000D03*
X182080000Y-151000000D03*
X184620000Y-151000000D03*
X187160000Y-151000000D03*
X189700000Y-151000000D03*
%TD*%
D10*
%TO.C,REF\u002A\u002A*%
X162540000Y-147000000D03*
%TD*%
D13*
%TO.C,U5*%
X140000000Y-113731000D03*
D14*
X147620000Y-113731000D03*
X157780000Y-113731000D03*
X160320000Y-113731000D03*
%TD*%
D11*
%TO.C,J5*%
X194225000Y-150975000D03*
D12*
X196765000Y-150975000D03*
X199305000Y-150975000D03*
%TD*%
D15*
%TO.C,REF\u002A\u002A*%
X207000000Y-99000000D03*
%TD*%
D10*
%TO.C,REF\u002A\u002A*%
X179839765Y-139700000D03*
%TD*%
D16*
%TO.C,R10*%
X181080000Y-128000000D03*
D17*
X170920000Y-128000000D03*
%TD*%
D10*
%TO.C,REF\u002A\u002A*%
X170160000Y-149540000D03*
%TD*%
D16*
%TO.C,C5*%
X205500000Y-128250000D03*
X205500000Y-133250000D03*
%TD*%
%TO.C,R2*%
X170920000Y-134000000D03*
D17*
X181080000Y-134000000D03*
%TD*%
D10*
%TO.C,REF\u002A\u002A*%
X182366740Y-139700000D03*
%TD*%
D16*
%TO.C,C4*%
X165000000Y-138500000D03*
X165000000Y-143500000D03*
%TD*%
D18*
%TO.C,U11*%
X182050000Y-115275000D03*
D17*
X182050000Y-112735000D03*
X174430000Y-112735000D03*
X174430000Y-115275000D03*
%TD*%
D11*
%TO.C,J4*%
X188000000Y-119000000D03*
D12*
X185460000Y-119000000D03*
%TD*%
D16*
%TO.C,R7*%
X181080000Y-119000000D03*
D17*
X170920000Y-119000000D03*
%TD*%
D16*
%TO.C,R8*%
X181080000Y-122000000D03*
D17*
X170920000Y-122000000D03*
%TD*%
D19*
%TO.C,U14*%
X153000000Y-140000000D03*
D20*
X153000000Y-137460000D03*
X153000000Y-134920000D03*
%TD*%
D16*
%TO.C,R3*%
X181080000Y-131000000D03*
D17*
X170920000Y-131000000D03*
%TD*%
D21*
%TO.C,Q5*%
X192000000Y-118000000D03*
D22*
X193270000Y-118000000D03*
X194540000Y-118000000D03*
%TD*%
D16*
%TO.C,C3*%
X148000000Y-140000000D03*
X148000000Y-135000000D03*
%TD*%
D10*
%TO.C,REF\u002A\u002A*%
X179839765Y-137160000D03*
%TD*%
%TO.C,+*%
X177323246Y-139700000D03*
%TD*%
D11*
%TO.C,J8*%
X203975000Y-151000000D03*
D12*
X206515000Y-151000000D03*
X209055000Y-151000000D03*
%TD*%
D23*
%TO.C,J2*%
X141500000Y-99642500D03*
D24*
X145000000Y-99642500D03*
X148500000Y-99642500D03*
X152000000Y-99642500D03*
X155500000Y-99642500D03*
%TD*%
D25*
%TO.C,J3*%
X142000000Y-139000000D03*
D26*
X142000000Y-135500000D03*
%TD*%
D10*
%TO.C,REF\u002A\u002A*%
X165080000Y-149540000D03*
%TD*%
%TO.C,REF\u002A\u002A*%
X170160000Y-147000000D03*
%TD*%
%TO.C,REF\u002A\u002A*%
X177323246Y-137160000D03*
%TD*%
%TO.C,REF\u002A\u002A*%
X179863246Y-144780000D03*
%TD*%
%TO.C,REF\u002A\u002A*%
X165080000Y-147000000D03*
%TD*%
D18*
%TO.C,U9*%
X171800000Y-115275000D03*
D17*
X171800000Y-112735000D03*
X164180000Y-112735000D03*
X164180000Y-115275000D03*
%TD*%
D16*
%TO.C,R1*%
X182580000Y-148000000D03*
D17*
X172420000Y-148000000D03*
%TD*%
D15*
%TO.C,REF\u002A\u002A*%
X141000000Y-149000000D03*
%TD*%
D18*
%TO.C,U12*%
X182050000Y-109275000D03*
D17*
X182050000Y-106735000D03*
X174430000Y-106735000D03*
X174430000Y-109275000D03*
%TD*%
D10*
%TO.C,-*%
X177323246Y-142240000D03*
%TD*%
%TO.C,REF\u002A\u002A*%
X160000000Y-149540000D03*
%TD*%
%TO.C,REF\u002A\u002A*%
X179839765Y-142240000D03*
%TD*%
D18*
%TO.C,SW1*%
X207500000Y-140200000D03*
D17*
X204960000Y-140200000D03*
X204960000Y-147820000D03*
X207500000Y-147820000D03*
%TD*%
D16*
%TO.C,RTRIG1*%
X188000000Y-115250000D03*
D17*
X188000000Y-105090000D03*
%TD*%
D21*
%TO.C,Q2*%
X167500000Y-124500000D03*
D22*
X166230000Y-124500000D03*
X164960000Y-124500000D03*
%TD*%
D16*
%TO.C,R17*%
X185000000Y-105000000D03*
D17*
X185000000Y-115160000D03*
%TD*%
D21*
%TO.C,Q3*%
X167500000Y-129500000D03*
D22*
X166230000Y-129500000D03*
X164960000Y-129500000D03*
%TD*%
D10*
%TO.C,REF\u002A\u002A*%
X182390221Y-144780000D03*
%TD*%
D16*
%TO.C,R16*%
X190920000Y-107000000D03*
D17*
X201080000Y-107000000D03*
%TD*%
D16*
%TO.C,C1*%
X156500000Y-134000000D03*
X161500000Y-134000000D03*
%TD*%
%TO.C,RECHO1*%
X190920000Y-113000000D03*
D17*
X201080000Y-113000000D03*
%TD*%
D21*
%TO.C,Q4*%
X167500000Y-134500000D03*
D22*
X166230000Y-134500000D03*
X164960000Y-134500000D03*
%TD*%
D10*
%TO.C,REF\u002A\u002A*%
X160000000Y-147000000D03*
%TD*%
D21*
%TO.C,Q1*%
X167500000Y-119500000D03*
D22*
X166230000Y-119500000D03*
X164960000Y-119500000D03*
%TD*%
D13*
%TO.C,U4*%
X140000000Y-107000000D03*
D14*
X147620000Y-107000000D03*
X157780000Y-107000000D03*
X160320000Y-107000000D03*
%TD*%
D10*
%TO.C,REF\u002A\u002A*%
X167620000Y-147000000D03*
%TD*%
D23*
%TO.C,J6*%
X174517500Y-99642500D03*
D24*
X178017500Y-99642500D03*
X181517500Y-99642500D03*
X185017500Y-99642500D03*
X188517500Y-99642500D03*
%TD*%
D13*
%TO.C,U7*%
X140000000Y-127193000D03*
D14*
X147620000Y-127193000D03*
X157780000Y-127193000D03*
X160320000Y-127193000D03*
%TD*%
D10*
%TO.C,REF\u002A\u002A*%
X182366740Y-142240000D03*
%TD*%
D16*
%TO.C,R15*%
X201080000Y-110000000D03*
D17*
X190920000Y-110000000D03*
%TD*%
D21*
%TO.C,Q6*%
X200750000Y-117250000D03*
D22*
X199480000Y-117250000D03*
X198210000Y-117250000D03*
%TD*%
D13*
%TO.C,U6*%
X140000000Y-120462000D03*
D14*
X147620000Y-120462000D03*
X157780000Y-120462000D03*
X160320000Y-120462000D03*
%TD*%
D10*
%TO.C,REF\u002A\u002A*%
X167620000Y-149540000D03*
%TD*%
D16*
%TO.C,R9*%
X181080000Y-125000000D03*
D17*
X170920000Y-125000000D03*
%TD*%
D10*
%TO.C,OUT*%
X177323246Y-144780000D03*
%TD*%
D27*
%TO.C,J1*%
X149800000Y-146475000D03*
X154200000Y-146475000D03*
%TD*%
D16*
%TO.C,C2*%
X162000000Y-138500000D03*
X162000000Y-143500000D03*
%TD*%
D18*
%TO.C,U10*%
X171800000Y-109275000D03*
D17*
X171800000Y-106735000D03*
X164180000Y-106735000D03*
X164180000Y-109275000D03*
%TD*%
D28*
%TO.C,J7*%
X206357500Y-111767500D03*
D26*
X206357500Y-115267500D03*
X206357500Y-118767500D03*
X206357500Y-122267500D03*
%TD*%
D10*
%TO.C,REF\u002A\u002A*%
X182366740Y-137160000D03*
%TD*%
M02*
