M48
; DRILL file {KiCad (6.0.7)} date Sun Jan 15 20:37:27 2023
; FORMAT={-:-/ absolute / inch / decimal}
; #@! TF.CreationDate,2023-01-15T20:37:27-05:00
; #@! TF.GenerationSoftware,Kicad,Pcbnew,(6.0.7)
; #@! TF.FileFunction,Plated,1,4,PTH
FMAT,2
INCH
; #@! TA.AperFunction,Plated,PTH,ViaDrill
T1C0.0157
; #@! TA.AperFunction,Plated,PTH,ComponentDrill
T2C0.0276
; #@! TA.AperFunction,Plated,PTH,ComponentDrill
T3C0.0295
; #@! TA.AperFunction,Plated,PTH,ComponentDrill
T4C0.0315
; #@! TA.AperFunction,Plated,PTH,ComponentDrill
T5C0.0394
; #@! TA.AperFunction,Plated,PTH,ComponentDrill
T6C0.0433
; #@! TA.AperFunction,Plated,PTH,ComponentDrill
T7C0.0472
%
G90
G05
T1
X5.885Y-5.665
X6.085Y-5.665
X6.126Y-5.426
X6.5949Y-3.8189
X6.6838Y-4.5367
X6.87Y-5.474
X7.376Y-4.87
X7.3917Y-5.0984
X7.4409Y-5.4134
X7.8935Y-4.0945
X8.188Y-4.282
T2
X6.2992Y-5.7874
X6.2992Y-5.8874
X6.3992Y-5.7874
X6.3992Y-5.8874
X6.4992Y-5.7874
X6.4992Y-5.8874
X6.5992Y-5.7874
X6.5992Y-5.8874
X6.6992Y-5.7874
X6.6992Y-5.8874
X6.9812Y-5.4
X6.9812Y-5.5
X6.9812Y-5.6
X6.9812Y-5.7
X7.0803Y-5.4
X7.0803Y-5.5
X7.0803Y-5.6
X7.0812Y-5.7
X7.1798Y-5.4
X7.1798Y-5.5
X7.1798Y-5.6
X7.1807Y-5.7
T3
X6.4945Y-4.7047
X6.4945Y-4.9016
X6.4945Y-5.0984
X6.4945Y-5.2953
X6.5445Y-4.7047
X6.5445Y-4.9016
X6.5445Y-5.0984
X6.5445Y-5.2953
X6.5945Y-4.7047
X6.5945Y-4.9016
X6.5945Y-5.0984
X6.5945Y-5.2953
X7.5591Y-4.6457
X7.6091Y-4.6457
X7.6591Y-4.6457
X7.8035Y-4.6161
X7.8535Y-4.6161
X7.9035Y-4.6161
T4
X5.8268Y-5.315
X5.8268Y-5.5118
X6.1614Y-5.2756
X6.3583Y-5.2756
X6.378Y-5.4528
X6.378Y-5.6496
X6.4638Y-4.2022
X6.4638Y-4.3022
X6.4638Y-4.4384
X6.4638Y-4.5384
X6.4961Y-5.4528
X6.4961Y-5.6496
X6.7291Y-4.685
X6.7291Y-4.8031
X6.7291Y-4.9213
X6.7291Y-5.0394
X6.7291Y-5.1575
X6.7291Y-5.2756
X6.7638Y-4.2022
X6.7638Y-4.3022
X6.7638Y-4.4384
X6.7638Y-4.5384
X6.7882Y-5.8268
X6.8673Y-4.2022
X6.8673Y-4.3022
X6.8673Y-4.4384
X6.8673Y-4.5384
X7.1291Y-4.685
X7.1291Y-4.8031
X7.1291Y-4.9213
X7.1291Y-5.0394
X7.1291Y-5.1575
X7.1291Y-5.2756
X7.1673Y-4.2022
X7.1673Y-4.3022
X7.1673Y-4.4384
X7.1673Y-4.5384
X7.1882Y-5.8268
X7.2835Y-4.1339
X7.2835Y-4.5339
X7.4016Y-4.1374
X7.4016Y-4.5374
X7.5165Y-4.2126
X7.5165Y-4.3307
X7.5165Y-4.4488
X7.9165Y-4.2126
X7.9165Y-4.3307
X7.9165Y-4.4488
X8.0693Y-5.5197
X8.0693Y-5.8197
X8.0906Y-5.0492
X8.0906Y-5.2461
X8.1693Y-5.5197
X8.1693Y-5.8197
T5
X6.9685Y-5.9449
X7.0685Y-5.9449
X7.1685Y-5.9449
X7.2685Y-5.9449
X7.3016Y-4.685
X7.3685Y-5.9449
X7.4016Y-4.685
X7.4685Y-5.9449
X7.6467Y-5.9439
X7.7467Y-5.9439
X7.8467Y-5.9439
X8.0305Y-5.9449
X8.1305Y-5.9449
X8.2305Y-5.9449
T6
X6.0236Y-5.3118
X6.0236Y-5.4118
X6.0236Y-5.5118
T7
X5.5118Y-4.2126
X5.5118Y-4.4776
X5.5118Y-4.7426
X5.5118Y-5.0076
X5.5709Y-3.9229
X5.5906Y-5.3346
X5.5906Y-5.4724
X5.7087Y-3.9229
X5.8118Y-4.2126
X5.8118Y-4.4776
X5.8118Y-4.7426
X5.8118Y-5.0076
X5.8465Y-3.9229
X5.9843Y-3.9229
X6.122Y-3.9229
X6.2118Y-4.2126
X6.2118Y-4.4776
X6.2118Y-4.7426
X6.2118Y-5.0076
X6.3118Y-4.2126
X6.3118Y-4.4776
X6.3118Y-4.7426
X6.3118Y-5.0076
X6.8708Y-3.9229
X7.0086Y-3.9229
X7.1464Y-3.9229
X7.2842Y-3.9229
X7.4219Y-3.9229
X8.1243Y-4.4003
X8.1243Y-4.5381
X8.1243Y-4.6759
X8.1243Y-4.8137
T0
M30
